{"glyphs":{"0":{"ha":708,"x_min":50,"x_max":658,"o":"m 658 496 q 643 289 658 382 q 593 128 628 196 q 500 23 558 60 q 354 -14 442 -14 q 185 42 253 -14 q 83 212 117 99 q 50 496 50 325 q 82 780 50 667 q 181 949 114 893 q 354 1006 249 1006 q 524 947 457 1006 q 624 776 590 889 q 658 496 658 663 m 267 496 q 274 313 267 385 q 300 206 281 242 q 354 171 319 171 q 408 206 389 171 q 434 313 426 240 q 442 496 442 385 q 434 676 442 604 q 408 785 426 749 q 354 821 389 821 q 300 785 319 821 q 274 676 281 749 q 267 496 267 604 z "},"1":{"ha":708,"x_min":63,"x_max":549,"o":"m 549 0 l 332 0 l 332 547 q 332 607 332 575 q 333 672 332 639 q 335 732 335 704 q 311 701 325 718 q 279 668 297 685 l 186 576 l 63 706 l 357 992 l 549 992 l 549 0 z "},"2":{"ha":708,"x_min":36,"x_max":643,"o":"m 643 0 l 42 0 l 42 153 l 247 408 q 349 544 314 490 q 397 637 383 597 q 410 717 410 676 q 385 792 410 765 q 315 819 361 819 q 234 797 274 819 q 146 718 194 774 l 36 860 q 124 940 79 908 q 220 989 168 972 q 339 1006 272 1006 q 489 971 425 1006 q 590 876 553 936 q 626 735 626 815 q 606 606 626 667 q 542 480 586 544 q 422 332 497 415 l 306 193 l 306 186 l 643 186 l 643 0 z "},"3":{"ha":708,"x_min":46,"x_max":650,"o":"m 626 757 q 604 653 626 700 q 541 574 582 607 q 443 522 500 542 l 443 518 q 598 440 546 499 q 650 283 650 382 q 610 128 650 194 q 491 24 569 61 q 299 -14 413 -14 q 168 -2 226 -14 q 46 36 110 10 l 46 232 q 159 183 101 199 q 267 168 217 168 q 386 200 350 168 q 422 293 422 232 q 403 365 422 338 q 342 407 385 393 q 228 421 300 421 l 172 421 l 172 596 l 229 596 q 336 612 296 596 q 396 656 376 628 q 415 725 415 685 q 387 799 415 774 q 303 824 358 824 q 242 815 272 824 q 185 791 213 806 q 133 757 158 776 l 47 911 q 178 983 108 960 q 342 1006 247 1006 q 550 942 474 1006 q 626 757 626 879 z "},"4":{"ha":708,"x_min":24,"x_max":690,"o":"m 690 197 l 586 197 l 586 0 l 374 0 l 374 197 l 24 197 l 24 365 l 379 993 l 586 993 l 586 371 l 690 371 l 690 197 m 374 544 q 374 581 374 557 q 376 631 375 604 q 377 677 376 657 q 379 703 378 697 l 372 703 q 351 649 363 674 q 326 600 340 624 l 201 371 l 374 371 l 374 544 z "},"5":{"ha":708,"x_min":68,"x_max":647,"o":"m 386 642 q 521 603 463 642 q 613 495 579 565 q 647 329 647 425 q 608 144 647 221 q 492 26 569 67 q 297 -14 415 -14 q 172 -1 229 -14 q 68 36 114 11 l 68 231 q 174 186 115 204 q 283 168 232 168 q 363 186 331 168 q 411 238 394 204 q 428 319 428 272 q 390 426 428 389 q 278 463 353 463 q 216 456 247 463 q 156 439 185 449 l 82 486 l 114 992 l 592 992 l 592 804 l 297 804 l 283 629 q 335 638 311 635 q 386 642 360 642 z "},"6":{"ha":708,"x_min":49,"x_max":664,"o":"m 49 421 q 60 597 49 511 q 99 758 71 683 q 176 888 126 832 q 298 974 225 943 q 475 1006 371 1006 q 544 1003 508 1006 q 610 993 579 1000 l 610 814 q 553 824 583 821 q 489 828 524 828 q 383 810 428 828 q 309 756 338 792 q 266 665 281 719 q 249 539 251 611 l 254 539 q 295 601 271 575 q 352 640 319 626 q 426 654 385 654 q 554 615 501 654 q 635 505 607 576 q 664 333 664 433 q 628 149 664 228 q 526 28 593 71 q 365 -14 460 -14 q 235 15 294 -14 q 135 98 176 43 q 71 234 93 153 q 49 421 49 315 m 361 168 q 426 208 401 168 q 450 331 450 247 q 428 439 450 401 q 363 476 407 476 q 312 458 333 476 q 278 412 290 440 q 265 350 265 383 q 272 283 265 315 q 290 224 278 250 q 319 183 301 199 q 361 168 338 168 z "},"7":{"ha":708,"x_min":47,"x_max":660,"o":"m 128 0 l 436 804 l 47 804 l 47 992 l 660 992 l 660 849 l 356 0 l 128 0 z "},"8":{"ha":708,"x_min":44,"x_max":664,"o":"m 356 1006 q 506 978 443 1006 q 603 897 569 950 q 638 765 638 843 q 621 666 638 711 q 571 585 604 621 q 488 522 538 550 q 583 447 544 486 q 643 362 622 407 q 664 261 664 317 q 627 115 664 176 q 521 19 590 53 q 354 -14 451 -14 q 185 19 254 -14 q 80 112 115 51 q 44 257 44 172 q 63 363 44 315 q 117 449 81 410 q 206 518 154 488 q 132 589 163 551 q 86 671 101 626 q 71 767 71 715 q 106 897 71 843 q 206 978 142 950 q 356 1006 271 1006 m 247 263 q 274 184 247 214 q 351 154 301 154 q 433 182 407 154 q 460 260 460 210 q 449 312 460 288 q 418 359 439 336 q 367 406 397 382 l 349 418 q 292 372 315 396 q 258 322 269 349 q 247 263 247 294 m 354 838 q 297 814 319 838 q 275 750 275 790 q 284 701 275 724 q 311 660 293 679 q 353 624 329 642 q 399 662 381 643 q 426 701 418 681 q 435 750 435 722 q 412 814 435 790 q 354 838 389 838 z "},"9":{"ha":708,"x_min":44,"x_max":660,"o":"m 660 571 q 647 387 660 475 q 603 226 633 299 q 524 99 574 153 q 402 15 474 44 q 232 -14 331 -14 q 164 -10 200 -14 q 97 -1 128 -7 l 97 178 q 154 167 125 171 q 215 164 183 164 q 326 183 281 164 q 400 240 371 203 q 444 330 429 276 q 460 453 458 383 l 453 453 q 413 391 436 417 q 356 351 389 365 q 281 338 324 338 q 153 376 206 338 q 72 487 100 415 q 44 657 44 558 q 80 842 44 764 q 182 963 115 919 q 343 1006 249 1006 q 473 977 415 1006 q 573 894 531 949 q 638 758 615 839 q 660 571 660 676 m 347 822 q 282 783 307 822 q 257 661 257 744 q 279 553 257 590 q 344 515 301 515 q 399 535 378 515 q 431 585 421 556 q 442 643 442 615 q 438 697 442 667 q 423 757 433 728 q 394 804 413 786 q 347 822 375 822 z "},"\u0000":{"ha":0,"x_min":0,"x_max":0,"o":""},"\r":{"ha":281,"x_min":0,"x_max":0,"o":""}," ":{"ha":281,"x_min":0,"x_max":0,"o":""},"!":{"ha":376,"x_min":67,"x_max":308,"o":"m 278 336 l 100 336 l 67 992 l 308 992 l 278 336 m 67 104 q 99 197 67 167 q 189 226 132 226 q 275 197 243 226 q 307 106 307 167 q 274 14 307 44 q 189 -17 242 -17 q 100 14 133 -17 q 67 104 67 44 z "},"\"":{"ha":656,"x_min":68,"x_max":589,"o":"m 285 992 l 257 633 l 94 633 l 68 992 l 285 992 m 589 992 l 561 633 l 399 633 l 371 992 l 589 992 z "},"#":{"ha":785,"x_min":28,"x_max":763,"o":"m 610 572 l 586 419 l 726 419 l 726 272 l 565 272 l 522 0 l 371 0 l 413 272 l 307 272 l 267 0 l 117 0 l 157 272 l 28 272 l 28 419 l 179 419 l 203 572 l 65 572 l 65 724 l 226 724 l 268 992 l 418 992 l 376 724 l 482 724 l 524 992 l 674 992 l 632 724 l 763 724 l 763 572 l 610 572 m 331 419 l 435 419 l 458 572 l 354 572 l 331 419 z "},"$":{"ha":707,"x_min":57,"x_max":651,"o":"m 308 50 q 180 67 242 53 q 65 106 118 82 l 65 292 q 183 236 117 260 q 308 210 249 213 l 308 431 q 169 500 225 463 q 85 588 113 538 q 57 708 57 638 q 89 834 57 782 q 178 917 121 886 q 308 956 235 947 l 308 1054 l 406 1054 l 406 957 q 523 937 465 953 q 633 894 581 921 l 583 738 q 494 773 540 760 q 406 790 449 786 l 406 581 q 540 519 485 553 q 624 438 596 485 q 651 318 651 390 q 589 144 651 217 q 406 54 526 72 l 406 -81 l 308 -81 l 308 50 m 406 219 q 460 252 443 231 q 476 304 476 274 q 469 340 476 325 q 446 368 461 356 q 406 392 431 381 l 406 219 m 308 789 q 266 773 282 783 q 243 745 250 763 q 236 707 236 728 q 243 672 236 688 q 266 644 250 657 q 308 619 282 632 l 308 789 z "},"%":{"ha":1165,"x_min":38,"x_max":1128,"o":"m 254 1006 q 416 923 357 1006 q 475 696 475 840 q 418 465 475 547 q 254 383 361 383 q 95 467 153 383 q 38 696 38 551 q 93 925 38 844 q 254 1006 149 1006 m 256 861 q 215 819 228 861 q 201 694 201 778 q 215 567 201 610 q 256 525 228 525 q 297 567 283 525 q 310 694 310 608 q 297 820 310 779 q 256 861 283 861 m 881 992 l 440 0 l 281 0 l 721 992 l 881 992 m 907 610 q 1069 527 1010 610 q 1128 300 1128 444 q 1071 70 1128 153 q 907 -12 1014 -12 q 748 72 806 -12 q 690 300 690 157 q 746 530 690 450 q 907 610 801 610 m 908 467 q 868 424 881 467 q 856 299 856 382 q 868 172 856 214 q 908 131 881 131 q 951 175 939 131 q 963 299 963 219 q 950 422 963 378 q 908 467 938 467 z "},"&":{"ha":913,"x_min":39,"x_max":918,"o":"m 386 1004 q 523 977 467 1004 q 610 899 579 950 q 640 776 640 849 q 597 632 640 694 q 482 518 554 569 l 604 371 q 634 448 621 406 q 656 540 647 490 l 876 540 q 829 366 863 454 q 746 204 796 278 l 918 0 l 650 0 l 596 69 q 522 24 561 43 q 438 -4 483 6 q 333 -14 392 -14 q 172 22 238 -14 q 72 122 106 58 q 39 271 39 186 q 58 382 39 332 q 115 473 76 432 q 210 546 153 514 q 161 617 181 582 q 133 691 142 653 q 124 774 124 729 q 156 895 124 843 q 247 976 188 947 q 386 1004 306 1004 m 317 418 q 283 381 296 401 q 263 338 269 361 q 257 285 257 314 q 285 203 257 236 q 363 169 314 169 q 426 181 399 169 q 478 215 453 193 l 317 418 m 385 851 q 340 832 358 851 q 321 771 321 813 q 335 708 321 740 q 374 644 349 675 q 428 706 410 671 q 447 778 447 740 q 429 833 447 815 q 385 851 411 851 z "},"'":{"ha":351,"x_min":68,"x_max":285,"o":"m 285 992 l 257 633 l 94 633 l 68 992 l 285 992 z "},"(":{"ha":454,"x_min":58,"x_max":436,"o":"m 58 390 q 81 627 58 515 q 147 836 104 739 q 249 1013 190 933 l 436 1013 q 300 722 344 878 q 256 392 256 567 q 276 174 256 279 q 337 -28 297 69 q 435 -219 376 -126 l 249 -219 q 146 -44 189 -139 q 81 160 103 51 q 58 390 58 269 z "},")":{"ha":454,"x_min":19,"x_max":396,"o":"m 396 390 q 374 160 396 269 q 309 -44 351 51 q 204 -219 267 -139 l 19 -219 q 119 -28 79 -126 q 178 174 158 69 q 199 392 199 279 q 179 616 199 508 q 120 823 160 724 q 19 1013 81 922 l 204 1013 q 308 835 265 933 q 374 626 351 738 q 396 390 396 514 z "},"*":{"ha":672,"x_min":28,"x_max":643,"o":"m 429 1058 l 404 843 l 607 913 l 643 735 l 447 714 l 588 549 l 433 449 l 335 636 l 240 449 l 83 549 l 224 714 l 28 735 l 65 913 l 268 843 l 242 1058 l 429 1058 z "},"+":{"ha":713,"x_min":51,"x_max":661,"o":"m 439 571 l 661 571 l 661 408 l 439 408 l 439 156 l 274 156 l 274 408 l 51 408 l 51 572 l 274 572 l 274 828 l 439 828 l 439 571 z "},",":{"ha":379,"x_min":43,"x_max":311,"o":"m 311 174 q 284 44 300 108 q 249 -78 268 -19 q 210 -189 231 -137 l 43 -189 q 67 -65 56 -133 q 88 70 78 3 q 101 189 97 138 l 303 189 l 311 174 z "},"-":{"ha":439,"x_min":39,"x_max":400,"o":"m 39 278 l 39 468 l 400 468 l 400 278 l 39 278 z "},".":{"ha":375,"x_min":68,"x_max":308,"o":"m 68 104 q 101 197 68 167 q 190 226 133 226 q 276 197 244 226 q 308 106 308 167 q 276 14 308 44 q 190 -17 243 -17 q 101 14 135 -17 q 68 104 68 44 z "},"/":{"ha":579,"x_min":8,"x_max":574,"o":"m 574 1001 l 196 -10 l 8 -10 l 388 1001 l 574 1001 z "},":":{"ha":382,"x_min":71,"x_max":310,"o":"m 71 104 q 103 197 71 167 q 193 226 136 226 q 278 197 247 226 q 310 106 310 167 q 278 14 310 44 q 193 -17 246 -17 q 104 14 138 -17 q 71 104 71 44 m 71 651 q 103 743 71 713 q 193 774 136 774 q 278 743 247 774 q 310 651 310 713 q 278 561 310 592 q 193 531 246 531 q 104 561 138 531 q 71 651 71 592 z "},";":{"ha":383,"x_min":43,"x_max":311,"o":"m 311 174 q 284 44 300 108 q 249 -78 268 -19 q 210 -189 231 -137 l 43 -189 q 60 -98 51 -147 q 77 3 69 -49 q 91 102 85 54 q 100 189 97 150 l 303 189 l 311 174 m 71 651 q 103 743 71 713 q 193 774 136 774 q 279 743 247 774 q 311 651 311 713 q 278 561 311 592 q 193 531 246 531 q 104 561 138 531 q 71 651 71 592 z "},"<":{"ha":713,"x_min":46,"x_max":661,"o":"m 661 151 l 46 442 l 46 549 l 661 849 l 661 667 l 282 497 l 661 332 l 661 151 z "},"=":{"ha":713,"x_min":51,"x_max":663,"o":"m 51 558 l 51 721 l 663 721 l 663 558 l 51 558 m 51 257 l 51 421 l 663 421 l 663 257 l 51 257 z "},">":{"ha":713,"x_min":50,"x_max":665,"o":"m 50 332 l 429 497 l 50 667 l 50 849 l 665 549 l 665 442 l 50 151 l 50 332 z "},"?":{"ha":578,"x_min":3,"x_max":554,"o":"m 161 390 q 171 471 161 436 q 203 536 181 506 q 261 599 225 567 q 314 650 294 628 q 342 694 333 672 q 350 744 350 717 q 326 803 350 783 q 258 824 303 824 q 170 806 215 824 q 75 757 125 789 l 3 917 q 135 983 68 960 q 276 1006 203 1006 q 483 940 411 1006 q 554 761 554 874 q 539 659 554 703 q 494 578 524 615 q 417 503 464 542 q 365 451 382 472 q 342 413 347 431 q 336 371 336 396 l 336 336 l 161 336 l 161 390 m 131 104 q 163 197 131 167 q 251 226 196 226 q 338 197 306 226 q 371 104 371 167 q 338 14 371 44 q 251 -17 306 -17 q 164 14 197 -17 q 131 104 131 44 z "},"@":{"ha":1096,"x_min":56,"x_max":1042,"o":"m 1042 508 q 1026 370 1042 435 q 980 258 1010 306 q 909 183 950 210 q 817 157 868 157 q 726 182 764 157 q 672 253 689 207 l 664 253 q 599 181 636 206 q 514 157 563 157 q 356 228 411 157 q 301 426 301 300 q 335 594 301 522 q 433 708 369 667 q 583 749 496 749 q 688 738 633 749 q 785 710 743 726 l 772 424 q 770 386 771 406 q 769 350 769 367 q 781 297 769 314 q 813 281 793 281 q 855 306 838 281 q 882 382 872 331 q 892 510 892 433 q 856 701 893 619 q 747 829 818 783 q 574 875 676 875 q 415 840 483 875 q 299 743 346 806 q 229 597 253 681 q 206 414 206 513 q 244 204 206 293 q 360 67 283 115 q 551 19 436 19 q 695 37 618 19 q 840 83 772 54 l 840 -51 q 706 -94 778 -79 q 554 -108 635 -108 q 284 -47 396 -108 q 114 131 172 15 q 56 408 56 247 q 92 651 56 542 q 197 838 129 760 q 360 959 265 917 q 572 1001 456 1001 q 764 967 678 1001 q 913 867 850 932 q 1008 710 975 801 q 1042 508 1042 619 m 458 425 q 479 315 458 350 q 533 281 500 281 q 594 328 575 281 q 619 488 614 376 l 626 618 q 604 622 614 621 q 583 624 594 624 q 515 599 543 624 q 473 529 488 574 q 458 425 458 485 z "},"A":{"ha":828,"x_min":0,"x_max":828,"o":"m 592 0 l 542 217 l 288 217 l 238 0 l 0 0 l 269 993 l 554 993 l 828 0 l 592 0 m 453 633 q 439 701 446 665 q 426 772 432 738 q 414 833 419 806 q 404 772 411 807 q 390 702 397 738 q 376 636 383 667 l 325 403 l 504 403 l 453 633 z "},"B":{"ha":807,"x_min":94,"x_max":744,"o":"m 383 992 q 642 932 558 992 q 726 744 726 872 q 709 642 726 688 q 660 567 692 596 q 588 526 629 538 l 588 519 q 673 478 638 507 q 726 402 708 449 q 744 289 744 356 q 706 135 744 200 q 594 35 667 71 q 419 0 521 0 l 94 0 l 94 992 l 383 992 m 388 600 q 476 629 449 600 q 504 714 504 658 q 474 790 504 764 q 383 815 444 815 l 314 815 l 314 600 l 388 600 m 314 429 l 314 181 l 401 181 q 492 213 464 181 q 519 307 519 246 q 507 372 519 346 q 467 414 494 399 q 396 429 439 429 l 314 429 z "},"C":{"ha":749,"x_min":63,"x_max":711,"o":"m 469 819 q 392 797 426 819 q 335 730 358 774 q 301 626 313 686 q 290 493 290 567 q 311 317 290 389 q 374 210 332 246 q 479 174 417 174 q 579 190 531 174 q 678 231 628 206 l 678 39 q 570 -1 626 13 q 449 -14 514 -14 q 236 47 322 -14 q 106 221 150 107 q 63 494 63 335 q 89 700 63 607 q 166 862 115 793 q 290 968 217 931 q 458 1006 364 1006 q 587 990 524 1006 q 711 939 650 974 l 649 761 q 562 803 606 786 q 469 819 518 819 z "},"D":{"ha":864,"x_min":94,"x_max":800,"o":"m 800 514 q 747 233 800 347 q 595 59 694 118 q 356 0 496 0 l 94 0 l 94 992 l 374 992 q 605 937 510 992 q 750 776 700 882 q 800 514 800 669 m 574 506 q 551 676 574 610 q 485 774 529 743 q 374 806 440 806 l 314 806 l 314 188 l 358 188 q 522 265 469 188 q 574 506 574 343 z "},"E":{"ha":654,"x_min":94,"x_max":592,"o":"m 592 0 l 94 0 l 94 992 l 592 992 l 592 808 l 314 808 l 314 606 l 571 606 l 571 422 l 314 422 l 314 186 l 592 186 l 592 0 z "},"F":{"ha":639,"x_min":94,"x_max":589,"o":"m 313 0 l 94 0 l 94 992 l 589 992 l 589 808 l 313 808 l 313 571 l 568 571 l 568 388 l 313 388 l 313 0 z "},"G":{"ha":871,"x_min":63,"x_max":792,"o":"m 440 568 l 792 568 l 792 44 q 636 1 717 15 q 467 -14 556 -14 q 247 46 338 -14 q 110 220 157 106 q 63 499 63 335 q 115 769 63 656 q 267 944 167 882 q 510 1006 367 1006 q 658 988 589 1006 q 778 943 726 971 l 714 765 q 619 806 669 792 q 515 819 569 819 q 391 781 442 819 q 315 668 340 742 q 290 493 290 594 q 311 322 290 393 q 374 212 332 250 q 482 174 417 174 q 533 177 508 174 q 579 186 557 181 l 579 388 l 440 388 l 440 568 z "},"H":{"ha":896,"x_min":94,"x_max":800,"o":"m 800 0 l 581 0 l 581 422 l 314 422 l 314 0 l 94 0 l 94 992 l 314 992 l 314 608 l 581 608 l 581 992 l 800 992 l 800 0 z "},"I":{"ha":501,"x_min":40,"x_max":461,"o":"m 461 0 l 40 0 l 40 119 l 142 165 l 142 826 l 40 872 l 40 992 l 461 992 l 461 872 l 361 826 l 361 165 l 461 119 l 461 0 z "},"J":{"ha":410,"x_min":-89,"x_max":315,"o":"m 28 -301 q -35 -298 -6 -301 q -89 -287 -64 -294 l -89 -104 q -50 -114 -71 -110 q -6 -118 -29 -118 q 54 -102 32 -118 q 87 -47 76 -86 q 97 57 97 -8 l 97 992 l 315 992 l 315 65 q 281 -153 315 -72 q 183 -267 247 -233 q 28 -301 118 -301 z "},"K":{"ha":796,"x_min":94,"x_max":804,"o":"m 804 0 l 560 0 l 381 392 l 314 342 l 314 0 l 94 0 l 94 992 l 314 992 l 314 547 q 341 608 325 576 q 378 675 357 639 l 567 992 l 804 992 l 538 549 l 804 0 z "},"L":{"ha":643,"x_min":94,"x_max":615,"o":"m 94 0 l 94 992 l 314 992 l 314 186 l 615 186 l 615 0 l 94 0 z "},"M":{"ha":1164,"x_min":94,"x_max":1069,"o":"m 486 0 l 290 715 l 285 715 q 291 632 289 676 q 294 545 293 588 q 296 465 296 503 l 296 0 l 94 0 l 94 992 l 394 992 l 579 324 l 583 324 l 771 992 l 1069 992 l 1069 0 l 861 0 l 861 469 q 863 549 861 507 q 866 634 864 592 q 871 715 868 676 l 865 715 l 665 0 l 486 0 z "},"N":{"ha":963,"x_min":94,"x_max":868,"o":"m 868 0 l 603 0 l 290 678 l 285 678 q 291 585 289 631 q 294 501 293 540 q 296 429 296 463 l 296 0 l 94 0 l 94 992 l 358 992 l 671 328 l 675 328 q 670 416 672 374 q 667 497 668 458 q 665 567 665 536 l 665 992 l 868 992 l 868 0 z "},"O":{"ha":921,"x_min":63,"x_max":858,"o":"m 858 497 q 834 283 858 378 q 760 122 810 189 q 636 21 711 56 q 461 -14 561 -14 q 286 21 361 -14 q 162 122 211 56 q 88 284 113 189 q 63 499 63 379 q 107 774 63 661 q 240 947 151 888 q 461 1007 329 1007 q 684 946 596 1007 q 815 771 772 885 q 858 497 858 657 m 292 497 q 310 321 292 393 q 366 213 328 249 q 461 176 404 176 q 556 212 519 176 q 611 319 593 247 q 629 497 629 390 q 589 739 629 657 q 461 821 549 821 q 366 783 404 821 q 310 674 328 746 q 292 497 292 603 z "},"P":{"ha":753,"x_min":94,"x_max":707,"o":"m 383 992 q 627 911 547 992 q 707 681 707 831 q 688 547 707 608 q 628 439 668 485 q 524 367 588 393 q 374 342 461 342 l 314 342 l 314 0 l 94 0 l 94 992 l 383 992 m 368 808 l 314 808 l 314 525 l 351 525 q 425 540 394 525 q 472 589 456 556 q 488 678 488 622 q 458 776 488 743 q 368 808 429 808 z "},"Q":{"ha":921,"x_min":63,"x_max":858,"o":"m 858 497 q 837 294 858 385 q 773 140 815 204 q 667 36 731 75 l 854 -236 l 597 -236 l 461 -12 q 455 -12 458 -12 q 447 -12 451 -12 q 278 24 351 -12 q 158 129 206 61 q 87 291 111 197 q 63 499 63 385 q 107 774 63 661 q 240 947 151 888 q 461 1007 329 1007 q 683 948 594 1007 q 815 775 771 889 q 858 497 858 661 m 292 497 q 310 321 292 393 q 366 213 328 249 q 461 176 404 176 q 556 212 519 176 q 611 319 593 247 q 629 497 629 390 q 589 739 629 657 q 461 821 549 821 q 366 783 404 821 q 310 674 328 746 q 292 497 292 603 z "},"R":{"ha":790,"x_min":94,"x_max":794,"o":"m 360 992 q 556 959 478 992 q 674 862 635 926 q 714 700 714 797 q 697 589 714 639 q 645 501 679 539 q 564 433 611 463 l 794 0 l 551 0 l 372 378 l 314 378 l 314 0 l 94 0 l 94 992 l 360 992 m 354 811 l 314 811 l 314 550 l 356 550 q 456 584 422 550 q 490 690 490 618 q 476 758 490 732 q 431 798 461 785 q 354 811 401 811 z "},"S":{"ha":668,"x_min":49,"x_max":625,"o":"m 625 293 q 587 135 625 204 q 476 26 549 65 q 301 -14 404 -14 q 212 -8 254 -14 q 129 10 169 -3 q 49 44 89 24 l 49 260 q 175 203 110 224 q 297 182 240 182 q 358 194 335 182 q 393 226 382 206 q 404 274 404 247 q 392 324 404 301 q 347 370 379 347 q 260 424 315 393 q 178 476 215 449 q 114 536 142 503 q 71 615 86 569 q 56 721 56 660 q 92 873 56 810 q 199 971 129 936 q 365 1006 268 1006 q 497 988 433 1006 q 624 938 561 971 l 561 753 q 459 797 507 782 q 368 813 411 813 q 316 802 338 813 q 284 774 294 792 q 274 732 274 756 q 287 679 274 701 q 333 635 300 657 q 425 579 365 613 q 535 504 490 544 q 602 413 579 464 q 625 293 625 363 z "},"T":{"ha":675,"x_min":24,"x_max":650,"o":"m 446 0 l 229 0 l 229 804 l 24 804 l 24 992 l 650 992 l 650 804 l 446 804 l 446 0 z "},"U":{"ha":874,"x_min":90,"x_max":785,"o":"m 785 343 q 744 149 785 229 q 627 28 704 69 q 435 -14 550 -14 q 178 76 267 -14 q 90 339 90 167 l 90 992 l 308 992 l 308 353 q 341 217 308 257 q 438 176 374 176 q 510 194 482 176 q 552 251 539 211 q 565 354 565 290 l 565 992 l 785 992 l 785 343 z "},"V":{"ha":799,"x_min":0,"x_max":799,"o":"m 799 992 l 525 0 l 272 0 l 0 992 l 231 992 l 357 458 q 372 385 364 429 q 388 298 381 342 q 399 224 396 254 q 410 297 403 254 q 426 384 418 340 q 442 457 435 428 l 569 992 l 799 992 z "},"W":{"ha":1186,"x_min":3,"x_max":1182,"o":"m 1182 992 l 974 0 l 721 0 l 631 442 q 620 496 625 465 q 610 560 615 526 q 600 627 604 593 q 593 692 596 661 q 586 634 590 667 q 577 567 582 601 q 567 499 572 532 q 556 443 561 467 l 464 0 l 214 0 l 3 992 l 217 992 l 310 507 q 319 447 314 482 q 331 376 325 413 q 342 303 338 339 q 350 235 347 267 q 360 310 354 271 q 373 389 367 350 q 386 462 379 428 q 397 519 393 496 l 499 992 l 688 992 l 783 519 q 796 459 789 494 q 809 385 803 424 q 821 308 815 346 q 831 235 826 269 q 841 322 835 274 q 856 418 847 369 q 871 506 864 467 l 965 992 l 1182 992 z "},"X":{"ha":769,"x_min":0,"x_max":769,"o":"m 769 0 l 529 0 l 383 321 l 233 0 l 0 0 l 254 503 l 18 992 l 249 992 l 381 685 l 508 992 l 743 992 l 508 501 l 769 0 z "},"Y":{"ha":751,"x_min":0,"x_max":751,"o":"m 376 607 l 522 992 l 751 992 l 485 383 l 485 0 l 267 0 l 267 376 l 0 992 l 231 992 l 376 607 z "},"Z":{"ha":683,"x_min":32,"x_max":653,"o":"m 653 0 l 32 0 l 32 150 l 397 807 l 40 807 l 40 992 l 643 992 l 643 842 l 279 186 l 653 186 l 653 0 z "},"[":{"ha":433,"x_min":72,"x_max":404,"o":"m 404 -229 l 72 -229 l 72 1013 l 404 1013 l 404 856 l 263 856 l 263 -74 l 404 -74 l 404 -229 z "},"\\":{"ha":579,"x_min":7,"x_max":572,"o":"m 194 1001 l 572 -10 l 386 -10 l 7 1001 l 194 1001 z "},"]":{"ha":433,"x_min":31,"x_max":360,"o":"m 31 -74 l 171 -74 l 171 856 l 31 856 l 31 1013 l 360 1013 l 360 -229 l 31 -229 l 31 -74 z "},"^":{"ha":735,"x_min":11,"x_max":725,"o":"m 11 358 l 308 993 l 414 993 l 725 358 l 543 358 l 364 733 l 192 358 l 11 358 z "},"_":{"ha":661,"x_min":-3,"x_max":664,"o":"m 664 -243 l -3 -243 l -3 -100 l 664 -100 l 664 -243 z "},"`":{"ha":476,"x_min":56,"x_max":421,"o":"m 293 1064 q 332 995 308 1035 q 381 919 356 956 q 421 860 406 883 l 421 842 l 272 842 q 222 885 253 858 q 160 944 192 913 q 100 1003 128 975 q 56 1050 72 1032 l 56 1064 l 293 1064 z "},"a":{"ha":719,"x_min":43,"x_max":640,"o":"m 381 778 q 572 709 504 778 q 640 504 640 640 l 640 0 l 489 0 l 453 101 l 447 101 q 393 37 422 63 q 327 -1 364 11 q 239 -14 290 -14 q 130 19 174 -14 q 65 106 86 51 q 43 229 43 161 q 115 411 43 351 q 322 476 186 471 l 429 481 l 429 506 q 408 588 429 561 q 342 614 386 614 q 260 600 304 614 q 165 558 217 586 l 107 710 q 233 760 164 743 q 381 778 301 778 m 375 346 q 284 315 313 343 q 256 238 256 288 q 274 171 256 193 q 325 149 293 149 q 399 185 369 149 q 429 282 429 221 l 429 349 l 375 346 z "},"b":{"ha":763,"x_min":82,"x_max":711,"o":"m 293 806 q 291 742 293 778 q 286 665 289 707 l 293 665 q 368 749 324 721 q 472 776 413 776 q 647 674 582 776 q 711 383 711 571 q 681 169 711 258 q 597 33 651 81 q 468 -14 543 -14 q 368 8 407 -14 q 293 79 329 31 l 282 79 l 250 0 l 82 0 l 82 1056 l 293 1056 l 293 806 m 399 600 q 338 578 361 600 q 303 514 314 557 q 293 407 293 471 l 293 369 q 318 212 293 263 q 400 161 343 161 q 472 217 447 161 q 497 386 497 272 q 472 547 497 493 q 399 600 447 600 z "},"c":{"ha":622,"x_min":51,"x_max":589,"o":"m 368 -14 q 194 28 265 -14 q 88 157 124 69 q 51 378 51 244 q 88 590 51 500 q 198 728 125 679 q 376 778 271 778 q 493 763 442 778 q 589 724 544 749 l 529 558 q 458 590 493 579 q 388 600 424 600 q 322 575 349 600 q 280 501 294 550 q 265 379 265 451 q 280 258 265 307 q 322 186 294 210 q 390 163 350 163 q 482 179 438 163 q 569 226 526 196 l 569 49 q 478 1 528 17 q 368 -14 429 -14 z "},"d":{"ha":763,"x_min":51,"x_max":681,"o":"m 294 -14 q 116 90 181 -14 q 51 382 51 194 q 116 674 51 571 q 292 778 181 778 q 366 765 333 778 q 425 727 399 751 q 471 665 451 703 l 478 665 q 472 744 475 707 q 469 811 469 782 l 469 1056 l 681 1056 l 681 0 l 514 0 l 481 85 l 469 85 q 423 31 447 53 q 367 -3 399 8 q 294 -14 336 -14 m 365 160 q 449 208 424 160 q 475 361 475 257 l 475 397 q 450 549 475 500 q 365 599 425 599 q 291 544 317 599 q 265 383 265 490 q 292 215 265 269 q 365 160 318 160 z "},"e":{"ha":707,"x_min":51,"x_max":660,"o":"m 361 776 q 523 735 456 776 q 625 617 590 694 q 660 429 660 540 l 660 321 l 261 321 q 300 193 263 236 q 411 150 338 150 q 517 164 468 150 q 621 208 567 178 l 621 40 q 514 -1 571 13 q 385 -14 457 -14 q 201 31 275 -14 q 89 164 126 76 q 51 378 51 251 q 88 597 51 508 q 193 731 124 685 q 361 776 263 776 m 367 618 q 294 583 322 618 q 263 467 265 547 l 465 467 q 453 549 465 515 q 420 600 442 582 q 367 618 399 618 z "},"f":{"ha":469,"x_min":17,"x_max":503,"o":"m 458 594 l 319 594 l 319 0 l 108 0 l 108 594 l 17 594 l 17 704 l 110 763 l 110 786 q 133 945 110 885 q 207 1034 157 1006 q 333 1063 257 1063 q 419 1054 381 1063 q 503 1029 458 1046 l 458 876 q 419 887 439 883 q 376 890 399 890 q 333 868 347 890 q 319 796 319 846 l 319 764 l 458 764 l 458 594 z "},"g":{"ha":763,"x_min":51,"x_max":681,"o":"m 296 778 q 399 751 357 778 q 472 667 440 725 l 482 667 l 499 764 l 681 764 l 681 36 q 643 -165 681 -83 q 527 -290 606 -247 q 326 -333 449 -333 q 197 -321 254 -333 q 88 -282 140 -308 l 88 -101 q 205 -146 149 -132 q 321 -160 261 -160 q 431 -126 392 -160 q 469 -17 469 -93 l 469 -4 q 472 47 469 18 q 476 100 474 76 l 469 100 q 396 14 439 42 q 290 -14 353 -14 q 115 90 179 -14 q 51 378 51 193 q 117 672 51 567 q 296 778 182 778 m 364 600 q 310 575 332 600 q 276 500 288 550 q 265 375 265 450 q 290 215 265 267 q 367 163 315 163 q 415 174 394 163 q 449 208 436 185 q 469 267 463 232 q 475 353 475 303 l 475 389 q 464 509 475 463 q 428 578 453 556 q 364 600 404 600 z "},"h":{"ha":776,"x_min":82,"x_max":696,"o":"m 293 849 q 289 751 293 799 q 279 668 285 704 l 290 668 q 335 729 308 704 q 395 766 361 754 q 471 778 429 778 q 591 746 540 778 q 669 653 642 714 q 696 500 696 592 l 696 0 l 485 0 l 485 438 q 466 557 485 518 q 406 596 447 596 q 337 569 361 596 q 303 490 313 543 q 293 356 293 436 l 293 0 l 82 0 l 82 1056 l 293 1056 l 293 849 z "},"i":{"ha":378,"x_min":75,"x_max":303,"o":"m 294 764 l 294 0 l 83 0 l 83 764 l 294 764 m 189 1067 q 273 1040 243 1067 q 303 957 303 1014 q 272 874 303 900 q 189 849 242 849 q 106 874 136 849 q 75 957 75 900 q 104 1041 75 1015 q 189 1067 133 1067 z "},"j":{"ha":378,"x_min":-56,"x_max":303,"o":"m 60 -333 q 1 -329 32 -333 q -56 -317 -31 -325 l -56 -142 q -21 -151 -37 -147 q 13 -154 -4 -154 q 65 -130 46 -154 q 83 -51 83 -106 l 83 764 l 294 764 l 294 -74 q 268 -215 294 -157 q 190 -302 242 -272 q 60 -333 138 -332 m 75 957 q 104 1041 75 1015 q 189 1067 133 1067 q 273 1040 243 1067 q 303 957 303 1014 q 272 874 303 900 q 189 849 242 849 q 106 874 136 849 q 75 957 75 900 z "},"k":{"ha":747,"x_min":82,"x_max":750,"o":"m 293 613 q 291 516 293 565 q 283 419 289 467 l 288 419 q 308 460 297 440 q 331 497 319 479 q 353 531 343 515 l 508 764 l 739 764 l 513 442 l 750 0 l 515 0 l 367 296 l 293 232 l 293 0 l 82 0 l 82 1056 l 293 1056 l 293 613 z "},"l":{"ha":375,"x_min":82,"x_max":293,"o":"m 293 0 l 82 0 l 82 1056 l 293 1056 l 293 0 z "},"m":{"ha":1158,"x_min":82,"x_max":1078,"o":"m 860 778 q 1023 710 968 778 q 1078 499 1078 642 l 1078 0 l 868 0 l 868 436 q 848 557 868 518 q 788 596 828 596 q 708 541 731 596 q 686 374 686 486 l 686 0 l 475 0 l 475 436 q 467 526 475 490 q 441 578 458 561 q 397 596 424 596 q 334 569 357 596 q 302 488 311 542 q 293 353 293 435 l 293 0 l 82 0 l 82 764 l 246 764 l 272 668 l 282 668 q 328 727 300 703 q 394 765 356 751 q 476 778 432 778 q 593 749 549 778 q 660 671 638 719 l 672 671 q 749 751 701 724 q 860 778 796 778 z "},"n":{"ha":776,"x_min":82,"x_max":696,"o":"m 472 778 q 636 708 576 778 q 696 500 696 638 l 696 0 l 485 0 l 485 438 q 467 556 485 517 q 401 596 449 596 q 316 540 339 596 q 293 356 293 485 l 293 0 l 82 0 l 82 764 l 246 764 l 271 667 l 282 667 q 329 728 301 703 q 393 765 357 753 q 472 778 429 778 z "},"o":{"ha":749,"x_min":51,"x_max":696,"o":"m 696 383 q 677 229 696 301 q 619 102 658 157 q 519 17 581 47 q 374 -14 457 -14 q 234 17 294 -14 q 133 101 174 47 q 72 228 93 156 q 51 383 51 300 q 87 590 51 501 q 194 728 122 678 q 376 778 265 778 q 544 732 472 778 q 656 598 615 686 q 696 383 696 510 m 265 382 q 276 258 265 308 q 312 183 288 208 q 375 158 336 158 q 437 183 414 158 q 471 259 460 208 q 482 383 482 310 q 471 507 482 458 q 437 580 460 556 q 374 604 414 604 q 291 549 317 604 q 265 382 265 494 z "},"p":{"ha":763,"x_min":82,"x_max":711,"o":"m 469 778 q 647 674 582 778 q 711 381 711 571 q 681 167 711 256 q 597 33 651 79 q 471 -14 543 -14 q 398 -1 431 -14 q 339 35 365 11 q 293 93 313 60 l 286 93 q 291 19 289 53 q 293 -39 293 -14 l 293 -333 l 82 -333 l 82 764 l 253 764 l 283 664 l 293 664 q 342 731 317 706 q 398 767 367 756 q 469 778 429 778 m 399 604 q 338 583 361 604 q 304 517 315 561 q 293 401 293 472 l 293 367 q 303 253 293 299 q 338 186 314 208 q 399 164 361 164 q 453 188 432 164 q 486 260 475 213 q 497 381 497 308 q 473 549 497 494 q 399 604 449 604 z "},"q":{"ha":763,"x_min":51,"x_max":681,"o":"m 469 -35 q 472 22 469 -11 q 476 100 474 56 l 469 100 q 396 15 440 44 q 290 -14 351 -14 q 116 89 181 -14 q 51 378 51 192 q 81 594 51 506 q 166 731 111 683 q 296 778 221 778 q 400 751 358 778 q 472 667 442 724 l 482 667 l 499 764 l 681 764 l 681 -333 l 469 -333 l 469 -35 m 367 163 q 428 183 406 163 q 463 245 451 203 q 475 353 475 288 l 475 389 q 450 549 475 497 q 364 600 425 600 q 290 544 315 600 q 265 375 265 488 q 290 215 265 267 q 367 163 315 163 z "},"r":{"ha":542,"x_min":83,"x_max":528,"o":"m 461 778 q 493 776 476 778 q 528 769 510 774 l 510 551 q 479 558 496 556 q 440 561 463 561 q 381 551 408 561 q 335 518 354 540 q 305 463 315 496 q 294 386 294 431 l 294 0 l 83 0 l 83 764 l 243 764 l 275 639 l 285 639 q 327 706 301 675 q 387 758 353 738 q 461 778 421 778 z "},"s":{"ha":585,"x_min":44,"x_max":543,"o":"m 543 229 q 512 97 543 151 q 419 14 481 42 q 269 -14 358 -14 q 152 -4 207 -14 q 46 29 97 6 l 46 221 q 149 176 93 194 q 256 158 206 158 q 315 173 296 158 q 335 215 335 188 q 326 247 335 232 q 290 278 318 261 q 206 322 263 296 q 117 381 153 349 q 63 457 81 414 q 44 557 44 500 q 114 720 44 663 q 306 778 183 778 q 422 762 367 778 q 535 715 478 746 l 478 560 q 395 599 438 583 q 313 614 353 614 q 265 602 281 614 q 249 568 249 590 q 257 539 249 551 q 292 510 265 526 q 372 467 319 494 q 463 408 425 440 q 522 333 501 376 q 543 229 543 290 z "},"t":{"ha":511,"x_min":19,"x_max":481,"o":"m 378 164 q 428 171 403 164 q 481 188 454 178 l 481 25 q 404 -3 446 7 q 313 -14 363 -14 q 196 13 243 -14 q 125 95 149 39 q 101 240 101 151 l 101 594 l 19 594 l 19 699 l 118 758 l 171 921 l 313 921 l 313 764 l 471 764 l 471 594 l 313 594 l 313 246 q 328 185 313 206 q 378 164 344 164 z "},"u":{"ha":776,"x_min":81,"x_max":694,"o":"m 694 764 l 694 0 l 531 0 l 506 96 l 494 96 q 447 35 475 60 q 383 -2 418 10 q 306 -14 347 -14 q 184 18 235 -14 q 107 113 133 50 q 81 265 81 175 l 81 764 l 292 764 l 292 329 q 310 208 292 250 q 369 167 328 167 q 442 194 418 167 q 475 271 467 221 q 483 392 483 321 l 483 764 l 694 764 z "},"v":{"ha":697,"x_min":3,"x_max":696,"o":"m 238 0 l 3 764 l 222 764 l 321 358 q 331 311 326 336 q 340 261 336 286 q 344 210 343 236 l 350 210 q 354 256 351 232 q 362 304 357 279 q 372 354 367 329 l 476 764 l 696 764 l 460 0 l 238 0 z "},"w":{"ha":1056,"x_min":10,"x_max":1046,"o":"m 565 343 q 556 398 561 367 q 546 462 551 429 q 536 524 540 494 q 529 575 532 553 l 524 575 q 516 519 521 550 q 506 456 511 489 q 496 394 501 424 q 486 342 490 365 l 419 0 l 186 0 l 10 764 l 219 764 l 276 481 q 290 399 283 444 q 301 308 296 354 q 308 224 306 263 l 314 224 q 319 278 315 249 q 327 341 322 308 q 337 405 332 374 q 347 465 342 436 l 410 764 l 649 764 l 707 461 q 720 381 714 424 q 733 297 726 338 q 740 224 739 256 l 746 224 q 753 301 749 258 q 765 388 758 344 q 778 469 771 432 l 839 764 l 1046 764 l 868 0 l 631 0 l 565 343 z "},"x":{"ha":692,"x_min":8,"x_max":683,"o":"m 208 390 l 17 764 l 249 764 l 346 543 l 443 764 l 675 764 l 483 389 l 683 0 l 451 0 l 343 236 l 238 0 l 8 0 l 208 390 z "},"y":{"ha":697,"x_min":3,"x_max":696,"o":"m 3 764 l 225 764 l 325 388 q 336 343 332 365 q 344 299 340 321 q 349 258 347 278 l 354 258 q 363 317 357 286 q 379 386 369 349 l 476 764 l 696 764 l 442 -65 q 373 -219 413 -160 q 281 -306 333 -279 q 156 -333 228 -333 q 104 -331 128 -333 q 60 -322 81 -328 l 60 -143 q 90 -149 74 -147 q 122 -151 106 -151 q 176 -139 156 -151 q 212 -97 196 -126 q 242 -19 228 -68 l 250 10 l 3 764 z "},"z":{"ha":574,"x_min":28,"x_max":544,"o":"m 544 0 l 28 0 l 28 126 l 297 592 l 44 592 l 44 764 l 533 764 l 533 625 l 275 171 l 544 171 l 544 0 z "},"{":{"ha":528,"x_min":28,"x_max":489,"o":"m 489 -229 q 303 -209 371 -229 q 206 -140 235 -189 q 176 -6 176 -92 l 176 183 q 160 249 176 222 q 110 290 143 276 q 28 303 76 303 l 28 468 q 110 481 76 468 q 160 521 143 494 q 176 588 176 547 l 176 779 q 202 908 176 860 q 296 979 228 957 q 489 1001 364 1001 l 489 839 q 426 831 453 838 q 384 808 399 825 q 369 754 369 790 l 369 558 q 337 442 369 482 q 233 390 304 401 l 233 382 q 338 330 306 369 q 369 218 369 290 l 369 19 q 383 -31 369 -12 q 422 -57 396 -49 q 489 -67 449 -65 l 489 -229 z "},"|":{"ha":626,"x_min":226,"x_max":399,"o":"m 226 1064 l 399 1064 l 399 -317 l 226 -317 l 226 1064 z "},"}":{"ha":528,"x_min":39,"x_max":500,"o":"m 39 -67 q 106 -57 79 -64 q 145 -32 132 -50 q 158 19 158 -14 l 158 218 q 190 330 158 290 q 293 382 222 369 l 293 390 q 191 442 224 401 q 158 558 158 483 l 158 754 q 142 808 158 790 q 99 831 125 825 q 39 839 72 838 l 39 1001 q 226 981 158 1001 q 322 912 293 960 q 350 779 350 864 l 350 588 q 367 522 350 549 q 417 482 383 496 q 500 468 450 468 l 500 303 q 418 290 451 303 q 367 250 385 276 q 350 183 350 224 l 350 -6 q 324 -135 350 -86 q 231 -207 297 -185 q 39 -229 164 -229 l 39 -67 z "},"~":{"ha":713,"x_min":46,"x_max":667,"o":"m 333 410 q 256 439 292 431 q 190 447 221 447 q 119 426 156 447 q 46 365 82 404 l 46 539 q 118 594 78 575 q 207 613 158 613 q 290 601 250 613 q 379 569 331 590 q 457 541 422 550 q 522 532 492 532 q 595 554 557 532 q 667 614 633 576 l 667 440 q 594 386 635 404 q 506 368 553 368 q 423 378 463 368 q 333 410 383 389 z "}," ":{"ha":281,"x_min":0,"x_max":0,"o":""},"¡":{"ha":376,"x_min":67,"x_max":310,"o":"m 99 421 l 276 421 l 308 -249 l 67 -249 l 99 421 m 310 653 q 277 560 310 590 q 189 531 244 531 q 102 561 135 531 q 69 653 69 592 q 102 743 69 713 q 189 774 135 774 q 276 743 242 774 q 310 653 310 713 z "},"¢":{"ha":708,"x_min":85,"x_max":621,"o":"m 449 899 q 540 882 494 896 q 621 847 585 868 l 563 682 q 490 714 526 703 q 422 725 454 725 q 355 702 382 725 q 313 631 328 679 q 299 503 299 582 q 312 378 299 425 q 352 309 325 331 q 421 288 379 288 q 513 303 465 288 q 601 347 560 319 l 601 171 q 530 134 569 149 q 449 114 490 119 l 449 -14 l 333 -14 l 333 115 q 194 173 250 125 q 112 304 139 221 q 85 503 85 388 q 113 700 85 617 q 197 833 142 783 q 333 894 253 883 l 333 1006 l 449 1006 l 449 899 z "},"£":{"ha":708,"x_min":61,"x_max":667,"o":"m 425 1006 q 542 991 486 1006 q 649 950 597 976 l 590 782 q 513 811 549 801 q 446 821 476 821 q 390 796 410 821 q 371 714 371 771 l 371 592 l 568 592 l 568 435 l 371 435 l 371 349 q 359 279 371 310 q 326 226 347 249 q 276 188 306 203 l 667 188 l 667 0 l 63 0 l 63 179 q 117 219 96 199 q 148 270 138 240 q 158 347 158 300 l 158 435 l 61 435 l 61 592 l 158 592 l 158 715 q 191 877 158 813 q 284 974 224 942 q 425 1006 344 1006 z "},"¤":{"ha":767,"x_min":61,"x_max":704,"o":"m 111 490 q 122 560 111 526 q 150 626 132 593 l 61 713 l 160 811 l 246 724 q 311 752 276 743 q 382 761 346 761 q 452 751 418 761 q 518 722 486 742 l 604 811 l 704 715 l 615 628 q 643 563 633 597 q 653 490 653 528 q 643 417 653 451 q 615 353 633 383 l 701 268 l 604 171 l 518 257 q 453 231 488 240 q 382 221 418 221 q 308 230 343 221 q 244 257 274 239 l 160 172 l 63 269 l 150 354 q 121 419 131 385 q 111 490 111 453 m 250 490 q 267 424 250 454 q 315 375 285 393 q 382 357 346 357 q 450 375 419 357 q 499 424 481 393 q 517 490 517 454 q 499 558 517 528 q 450 606 481 588 q 382 625 419 625 q 316 607 346 625 q 268 558 286 589 q 250 490 250 528 z "},"¥":{"ha":708,"x_min":8,"x_max":699,"o":"m 354 622 l 474 992 l 699 992 l 492 499 l 626 499 l 626 368 l 458 368 l 458 281 l 626 281 l 626 150 l 458 150 l 458 0 l 250 0 l 250 150 l 82 150 l 82 281 l 250 281 l 250 368 l 82 368 l 82 499 l 214 499 l 8 992 l 232 992 l 354 622 z "},"¦":{"ha":626,"x_min":226,"x_max":399,"o":"m 226 1053 l 399 1053 l 399 501 l 226 501 l 226 1053 m 226 235 l 399 235 l 399 -318 l 226 -318 l 226 235 z "},"§":{"ha":615,"x_min":61,"x_max":556,"o":"m 61 540 q 89 633 61 592 q 161 703 117 675 q 94 776 117 735 q 72 865 72 817 q 141 1007 72 954 q 321 1060 210 1060 q 435 1045 381 1060 q 543 1004 490 1031 l 489 865 q 404 906 446 890 q 326 921 363 921 q 268 906 288 921 q 249 864 249 892 q 260 828 249 843 q 297 797 272 813 q 360 764 322 782 q 470 702 428 735 q 534 631 513 669 q 556 540 556 592 q 533 438 556 479 q 467 364 510 396 q 526 294 506 333 q 546 204 546 254 q 475 47 546 106 q 278 -12 404 -12 q 162 2 215 -12 q 64 44 108 17 l 64 197 q 133 163 96 179 q 208 136 171 146 q 274 126 246 126 q 347 145 324 126 q 371 196 371 164 q 363 233 371 218 q 330 263 354 247 q 257 303 306 279 q 146 369 189 338 q 82 442 103 401 q 61 540 61 483 m 224 563 q 234 520 224 539 q 267 483 244 501 q 326 446 290 465 l 358 428 q 383 463 374 443 q 392 508 392 482 q 381 557 392 535 q 342 599 369 579 q 268 640 315 619 q 235 610 247 631 q 224 563 224 589 z "},"¨":{"ha":713,"x_min":126,"x_max":589,"o":"m 126 953 q 153 1027 126 1003 q 221 1051 179 1051 q 290 1026 264 1051 q 317 953 317 1001 q 290 881 317 907 q 221 856 264 856 q 153 881 179 856 q 126 953 126 906 m 397 953 q 424 1027 397 1003 q 493 1051 450 1051 q 563 1026 536 1051 q 589 953 589 1001 q 563 881 589 907 q 493 856 536 856 q 424 881 450 856 q 397 953 397 907 z "},"©":{"ha":1147,"x_min":63,"x_max":1086,"o":"m 588 179 q 369 263 446 179 q 293 496 293 347 q 326 664 293 593 q 426 773 360 735 q 585 811 492 811 q 689 799 638 811 q 789 763 740 786 l 733 647 q 663 676 697 667 q 596 685 629 685 q 488 637 526 685 q 449 492 449 589 q 485 351 449 397 q 599 306 521 306 q 681 317 638 306 q 763 347 724 328 l 763 219 q 679 190 722 200 q 588 179 636 179 m 572 -14 q 363 25 457 -14 q 202 133 269 64 q 99 295 135 203 q 63 496 63 388 q 101 701 63 607 q 208 863 139 794 q 371 968 278 931 q 574 1006 464 1006 q 778 968 685 1006 q 940 861 871 931 q 1047 698 1008 792 q 1086 493 1086 604 q 1048 290 1086 383 q 941 129 1010 197 q 778 24 872 61 q 572 -14 685 -14 m 576 83 q 737 114 664 83 q 863 200 810 144 q 946 331 917 256 q 975 496 975 406 q 944 662 975 586 q 860 793 914 738 q 732 878 806 849 q 572 908 658 908 q 409 877 483 908 q 282 790 335 846 q 200 658 229 733 q 171 493 171 582 q 201 326 171 401 q 287 197 232 251 q 415 113 342 142 q 576 83 489 83 z "},"ª":{"ha":492,"x_min":31,"x_max":436,"o":"m 260 1003 q 390 954 344 1003 q 436 814 436 906 l 436 511 l 336 511 l 313 589 q 255 526 290 549 q 168 503 219 503 q 94 523 125 503 q 47 578 63 543 q 31 658 31 614 q 56 749 31 717 q 129 797 82 782 q 239 814 176 811 l 292 818 l 292 828 q 277 874 292 858 q 229 889 263 889 q 165 878 196 889 q 100 849 135 867 l 58 951 q 151 989 103 975 q 260 1003 199 1003 m 246 728 q 192 708 208 724 q 175 664 175 692 q 188 627 175 640 q 222 614 200 614 q 273 642 254 614 q 292 711 292 669 l 292 732 l 246 728 z "},"«":{"ha":793,"x_min":40,"x_max":749,"o":"m 40 394 l 265 707 l 417 626 l 263 385 l 417 143 l 265 63 l 40 375 l 40 394 m 372 394 l 597 707 l 749 626 l 594 385 l 749 143 l 597 63 l 372 375 l 372 394 z "},"¬":{"ha":713,"x_min":51,"x_max":657,"o":"m 657 572 l 657 164 l 490 164 l 490 408 l 51 408 l 51 572 l 657 572 z "},"­":{"ha":439,"x_min":39,"x_max":400,"o":"m 39 278 l 39 468 l 400 468 l 400 278 l 39 278 z "},"®":{"ha":1147,"x_min":63,"x_max":1086,"o":"m 358 207 l 358 804 l 553 804 q 735 758 675 804 q 794 622 794 713 q 769 521 794 561 q 696 458 744 481 l 829 207 l 664 207 l 563 431 l 511 431 l 511 207 l 358 207 m 546 539 q 615 557 590 539 q 639 617 639 575 q 618 670 639 654 q 546 686 597 686 l 511 686 l 511 539 l 546 539 m 572 -14 q 363 25 457 -14 q 202 133 269 64 q 99 295 135 203 q 63 496 63 388 q 101 701 63 607 q 208 863 139 794 q 371 968 278 931 q 574 1006 464 1006 q 778 968 685 1006 q 940 861 871 931 q 1047 698 1008 792 q 1086 493 1086 604 q 1048 290 1086 383 q 941 129 1010 197 q 778 24 872 61 q 572 -14 685 -14 m 576 83 q 737 114 664 83 q 863 200 810 144 q 946 331 917 256 q 975 496 975 406 q 944 662 975 586 q 860 793 914 738 q 732 878 806 849 q 572 908 658 908 q 409 877 483 908 q 282 790 335 846 q 200 658 229 733 q 171 493 171 582 q 201 326 171 401 q 287 197 232 251 q 415 113 342 142 q 576 83 489 83 z "},"¯":{"ha":678,"x_min":-3,"x_max":682,"o":"m 682 1056 l -3 1056 l -3 1206 l 682 1206 l 682 1056 z "},"°":{"ha":528,"x_min":39,"x_max":488,"o":"m 263 569 q 149 597 200 569 q 69 674 99 625 q 39 788 39 724 q 69 901 39 853 q 149 978 99 950 q 263 1006 200 1006 q 379 978 329 1006 q 458 901 429 950 q 488 788 488 851 q 458 674 488 724 q 378 597 429 625 q 263 569 328 569 m 264 696 q 331 721 306 696 q 356 788 356 746 q 331 855 356 831 q 263 879 306 879 q 197 854 221 879 q 172 788 172 829 q 197 721 172 746 q 264 696 222 696 z "},"±":{"ha":713,"x_min":51,"x_max":661,"o":"m 51 0 l 51 164 l 661 164 l 661 0 l 51 0 m 439 636 l 661 636 l 661 474 l 439 474 l 439 221 l 274 221 l 274 474 l 51 474 l 51 636 l 274 636 l 274 892 l 439 892 l 439 636 z "},"²":{"ha":493,"x_min":35,"x_max":442,"o":"m 442 578 l 42 578 l 42 704 l 175 850 q 230 917 210 890 q 259 966 250 944 q 268 1008 268 988 q 254 1044 268 1031 q 214 1058 240 1058 q 163 1044 189 1058 q 110 999 138 1029 l 35 1097 q 119 1160 67 1135 q 239 1186 171 1186 q 377 1141 328 1186 q 426 1025 426 1096 q 408 934 426 975 q 351 848 390 893 q 247 739 311 803 l 219 710 l 442 710 l 442 578 z "},"³":{"ha":493,"x_min":39,"x_max":442,"o":"m 235 1185 q 372 1145 319 1185 q 425 1036 425 1106 q 401 949 425 985 q 328 890 376 913 l 328 885 q 413 833 383 869 q 442 739 442 796 q 381 613 442 658 q 217 567 319 567 q 124 578 167 567 q 44 611 81 589 l 44 751 q 122 711 79 725 q 214 697 165 697 q 272 712 253 697 q 292 754 292 726 q 271 803 292 786 q 200 821 250 821 l 138 821 l 138 936 l 188 936 q 258 954 238 936 q 279 1001 279 972 q 265 1043 279 1028 q 218 1058 251 1058 q 162 1047 188 1058 q 104 1008 136 1036 l 39 1107 q 129 1164 81 1143 q 235 1185 178 1185 z "},"´":{"ha":476,"x_min":56,"x_max":421,"o":"m 421 1050 q 379 1005 406 1032 q 322 949 353 978 q 260 892 292 919 q 204 842 229 864 l 56 842 l 56 860 q 102 929 79 894 q 147 999 125 964 q 185 1064 168 1033 l 421 1064 l 421 1050 z "},"µ":{"ha":776,"x_min":81,"x_max":694,"o":"m 694 764 l 694 0 l 532 0 l 507 99 l 497 99 q 466 38 485 63 q 425 -1 447 13 q 376 -14 403 -14 q 324 1 344 -14 q 289 46 304 15 l 286 46 q 289 0 288 26 q 291 -55 290 -26 q 292 -111 292 -83 l 292 -333 l 81 -333 l 81 764 l 292 764 l 292 328 q 310 208 292 249 q 372 167 329 167 q 442 197 418 167 q 475 282 467 228 q 483 407 483 336 l 483 764 l 694 764 z "},"¶":{"ha":761,"x_min":58,"x_max":675,"o":"m 675 -176 l 563 -176 l 563 940 l 472 940 l 472 -176 l 360 -176 l 360 379 q 327 370 344 374 q 289 367 310 367 q 163 403 214 367 q 85 514 111 439 q 58 707 58 589 q 87 905 58 828 q 171 1019 115 982 q 308 1056 226 1056 l 675 1056 l 675 -176 z "},"·":{"ha":375,"x_min":68,"x_max":308,"o":"m 68 489 q 101 581 68 551 q 190 611 133 611 q 276 581 244 611 q 308 490 308 551 q 276 399 308 429 q 190 368 243 368 q 101 399 135 368 q 68 489 68 429 z "},"¸":{"ha":253,"x_min":-25,"x_max":271,"o":"m 271 -175 q 225 -291 271 -249 q 89 -333 179 -333 q 26 -330 56 -333 q -25 -319 -3 -326 l -25 -203 q 16 -211 -4 -208 q 54 -214 36 -214 q 96 -203 81 -214 q 111 -171 111 -193 q 86 -130 111 -146 q 13 -110 61 -114 l 60 0 l 168 0 l 147 -49 q 211 -72 183 -56 q 255 -114 239 -87 q 271 -175 271 -140 z "},"¹":{"ha":493,"x_min":47,"x_max":374,"o":"m 374 1172 l 374 578 l 217 578 l 217 847 q 217 895 217 869 q 219 947 218 921 q 222 994 221 972 q 203 974 214 983 q 185 957 193 964 l 122 907 l 47 1004 l 249 1172 l 374 1172 z "},"º":{"ha":489,"x_min":33,"x_max":456,"o":"m 456 753 q 399 569 456 635 q 243 503 343 503 q 90 570 147 503 q 33 753 33 638 q 90 937 33 871 q 246 1003 147 1003 q 356 973 308 1003 q 429 888 403 943 q 456 753 456 833 m 179 753 q 195 654 179 686 q 244 622 211 622 q 294 655 279 622 q 310 753 310 688 q 294 851 310 818 q 244 883 279 883 q 195 851 211 883 q 179 753 179 818 z "},"»":{"ha":793,"x_min":44,"x_max":753,"o":"m 753 375 l 528 63 l 375 143 l 531 385 l 375 626 l 528 707 l 753 394 l 753 375 m 422 375 l 196 63 l 44 143 l 199 385 l 44 626 l 196 707 l 422 394 l 422 375 z "},"¼":{"ha":1156,"x_min":33,"x_max":1140,"o":"m 253 0 l 751 992 l 918 992 l 418 0 l 253 0 m 203 667 q 203 714 203 689 q 206 765 204 739 q 208 814 207 790 q 190 794 200 804 q 172 776 181 785 l 110 726 l 33 824 l 235 992 l 360 992 l 360 397 l 203 397 l 203 667 m 910 0 l 910 100 l 679 100 l 679 211 l 897 596 l 1064 596 l 1064 221 l 1140 221 l 1140 100 l 1064 100 l 1064 0 l 910 0 m 801 221 l 910 221 l 910 343 q 911 394 910 369 q 914 442 913 419 q 894 390 904 414 q 875 353 883 367 l 801 221 z "},"½":{"ha":1179,"x_min":33,"x_max":1128,"o":"m 239 0 l 739 992 l 906 992 l 406 0 l 239 0 m 203 667 q 203 701 203 683 q 205 740 204 719 q 206 780 206 761 q 208 814 207 799 q 190 794 200 804 q 171 776 181 783 l 110 726 l 33 824 l 235 992 l 360 992 l 360 397 l 203 397 l 203 667 m 728 0 l 728 128 l 861 269 q 918 336 897 310 q 947 384 939 363 q 956 428 956 406 q 941 466 956 451 q 900 481 926 481 q 848 466 874 481 q 796 421 822 451 l 721 521 q 806 585 753 560 q 924 610 858 610 q 1063 565 1014 610 q 1113 447 1113 519 q 1098 364 1113 401 q 1059 294 1083 326 q 1001 231 1035 263 l 906 132 l 1128 132 l 1128 0 l 728 0 z "},"¾":{"ha":1168,"x_min":43,"x_max":1153,"o":"m 269 0 l 768 992 l 935 992 l 435 0 l 269 0 m 222 386 q 128 397 171 386 q 50 431 86 408 l 50 571 q 127 531 85 546 q 219 517 169 517 q 278 531 258 517 q 297 574 297 546 q 275 624 297 607 q 206 640 253 640 l 142 640 l 142 756 l 193 756 q 263 774 242 756 q 285 821 285 792 q 271 863 285 847 q 224 879 257 879 q 167 867 193 879 q 110 828 140 856 l 43 926 q 135 984 86 964 q 239 1004 185 1004 q 377 965 324 1004 q 431 856 431 926 q 406 768 431 804 q 332 711 382 732 l 332 704 q 418 652 389 689 q 447 558 447 615 q 386 432 447 478 q 222 386 325 386 m 924 0 l 924 100 l 692 100 l 692 211 l 910 596 l 1076 596 l 1076 221 l 1153 221 l 1153 100 l 1076 100 l 1076 0 l 924 0 m 815 221 l 924 221 l 924 343 q 925 394 924 369 q 928 442 926 419 q 907 390 917 414 q 889 353 897 367 l 815 221 z "},"¿":{"ha":578,"x_min":24,"x_max":575,"o":"m 418 367 q 408 286 418 321 q 376 221 399 251 q 317 158 354 190 q 265 107 283 129 q 237 63 246 85 q 228 13 228 40 q 252 -47 228 -26 q 321 -67 276 -67 q 408 -49 363 -67 q 504 0 453 -32 l 575 -160 q 443 -226 511 -203 q 303 -249 375 -249 q 96 -183 168 -249 q 24 -6 24 -117 q 39 97 24 53 q 85 178 54 142 q 161 254 117 215 q 215 306 197 286 q 238 344 232 325 q 243 386 243 363 l 243 421 l 418 421 l 418 367 m 449 651 q 416 560 449 590 q 326 531 383 531 q 241 560 274 531 q 208 651 208 590 q 241 743 208 713 q 326 774 274 774 q 415 743 381 774 q 449 651 449 713 z "},"À":{"ha":828,"x_min":0,"x_max":828,"o":"m 592 0 l 542 217 l 288 217 l 238 0 l 0 0 l 269 993 l 554 993 l 828 0 l 592 0 m 453 633 q 439 701 446 665 q 426 772 432 738 q 414 833 419 806 q 404 772 411 807 q 390 702 397 738 q 376 636 383 667 l 325 403 l 504 403 l 453 633 m 440 1292 q 479 1223 456 1263 q 528 1147 503 1183 q 568 1088 553 1111 l 568 1069 l 419 1069 q 369 1113 400 1086 q 307 1172 339 1140 q 247 1231 275 1203 q 203 1278 219 1260 l 203 1292 l 440 1292 z "},"Á":{"ha":828,"x_min":0,"x_max":828,"o":"m 592 0 l 542 217 l 288 217 l 238 0 l 0 0 l 269 993 l 554 993 l 828 0 l 592 0 m 453 633 q 439 701 446 665 q 426 772 432 738 q 414 833 419 806 q 404 772 411 807 q 390 702 397 738 q 376 636 383 667 l 325 403 l 504 403 l 453 633 m 665 1278 q 624 1233 650 1260 q 567 1176 597 1206 q 505 1119 536 1147 q 449 1069 474 1092 l 300 1069 l 300 1088 q 347 1157 324 1122 q 391 1226 369 1192 q 429 1292 413 1261 l 665 1292 l 665 1278 z "},"Â":{"ha":828,"x_min":0,"x_max":828,"o":"m 592 0 l 542 217 l 288 217 l 238 0 l 0 0 l 269 993 l 554 993 l 828 0 l 592 0 m 453 633 q 439 701 446 665 q 426 772 432 738 q 414 833 419 806 q 404 772 411 807 q 390 702 397 738 q 376 636 383 667 l 325 403 l 504 403 l 453 633 m 517 1292 q 558 1226 535 1261 q 609 1156 582 1192 q 661 1088 636 1121 l 661 1069 l 531 1069 q 475 1116 504 1089 q 414 1178 446 1143 q 353 1116 382 1143 q 301 1069 325 1089 l 168 1069 l 168 1088 q 218 1151 190 1114 q 272 1227 246 1189 q 313 1292 299 1265 l 517 1292 z "},"Ã":{"ha":828,"x_min":0,"x_max":828,"o":"m 592 0 l 542 217 l 288 217 l 238 0 l 0 0 l 269 993 l 554 993 l 828 0 l 592 0 m 453 633 q 439 701 446 665 q 426 772 432 738 q 414 833 419 806 q 404 772 411 807 q 390 702 397 738 q 376 636 383 667 l 325 403 l 504 403 l 453 633 m 167 1068 q 176 1146 168 1107 q 199 1217 183 1185 q 241 1267 215 1249 q 306 1286 267 1286 q 360 1276 333 1286 q 411 1253 386 1267 q 460 1228 436 1239 q 508 1218 485 1218 q 538 1235 526 1218 q 556 1288 549 1253 l 664 1288 q 621 1124 661 1178 q 524 1069 581 1069 q 469 1079 497 1069 q 415 1103 442 1089 q 365 1127 389 1117 q 322 1138 342 1138 q 294 1122 308 1138 q 275 1068 279 1106 l 167 1068 z "},"Ä":{"ha":828,"x_min":0,"x_max":828,"o":"m 592 0 l 542 217 l 288 217 l 238 0 l 0 0 l 269 993 l 554 993 l 828 0 l 592 0 m 453 633 q 439 701 446 665 q 426 772 432 738 q 414 833 419 806 q 404 772 411 807 q 390 702 397 738 q 376 636 383 667 l 325 403 l 504 403 l 453 633 m 182 1181 q 208 1255 182 1231 q 276 1279 235 1279 q 346 1254 319 1279 q 372 1181 372 1229 q 346 1109 372 1135 q 276 1083 319 1083 q 208 1108 235 1083 q 182 1181 182 1133 m 453 1181 q 479 1255 453 1231 q 549 1279 506 1279 q 618 1254 592 1279 q 644 1181 644 1229 q 618 1109 644 1135 q 549 1083 592 1083 q 479 1109 506 1083 q 453 1181 453 1135 z "},"Å":{"ha":828,"x_min":0,"x_max":828,"o":"m 592 0 l 542 217 l 288 217 l 238 0 l 0 0 l 269 993 l 554 993 l 828 0 l 592 0 m 453 633 q 439 701 446 665 q 426 772 432 738 q 414 833 419 806 q 404 772 411 807 q 390 702 397 738 q 376 636 383 667 l 325 403 l 504 403 l 453 633 m 413 890 q 291 936 338 890 q 244 1054 244 982 q 290 1175 244 1129 q 413 1221 336 1221 q 535 1174 488 1221 q 583 1056 583 1128 q 536 937 583 983 q 413 890 489 890 m 414 996 q 456 1013 439 996 q 474 1056 474 1029 q 456 1100 474 1083 q 414 1117 439 1117 q 370 1099 388 1117 q 353 1056 353 1082 q 369 1013 353 1029 q 414 996 385 996 z "},"Æ":{"ha":1090,"x_min":-4,"x_max":1028,"o":"m 1028 0 l 531 0 l 531 217 l 301 217 l 233 0 l -4 0 l 339 992 l 1028 992 l 1028 808 l 747 808 l 747 606 l 1007 606 l 1007 422 l 747 422 l 747 186 l 1028 186 l 1028 0 m 360 403 l 531 403 l 531 806 l 483 806 l 360 403 z "},"Ç":{"ha":749,"x_min":63,"x_max":711,"o":"m 469 819 q 392 797 426 819 q 335 730 358 774 q 301 626 313 686 q 290 493 290 567 q 311 317 290 389 q 374 210 332 246 q 479 174 417 174 q 579 190 531 174 q 678 231 628 206 l 678 39 q 570 -1 626 13 q 449 -14 514 -14 q 236 47 322 -14 q 106 221 150 107 q 63 494 63 335 q 89 700 63 607 q 166 862 115 793 q 290 968 217 931 q 458 1006 364 1006 q 587 990 524 1006 q 711 939 650 974 l 649 761 q 562 803 606 786 q 469 819 518 819 m 575 -175 q 529 -291 575 -249 q 393 -333 483 -333 q 331 -330 360 -333 q 279 -319 301 -326 l 279 -203 q 320 -211 300 -208 q 358 -214 340 -214 q 400 -203 385 -214 q 415 -171 415 -193 q 390 -130 415 -146 q 317 -110 365 -114 l 364 0 l 472 0 l 451 -49 q 515 -72 488 -56 q 559 -114 543 -87 q 575 -175 575 -140 z "},"È":{"ha":654,"x_min":94,"x_max":592,"o":"m 592 0 l 94 0 l 94 992 l 592 992 l 592 808 l 314 808 l 314 606 l 571 606 l 571 422 l 314 422 l 314 186 l 592 186 l 592 0 m 369 1292 q 408 1223 385 1263 q 457 1147 432 1183 q 497 1088 482 1111 l 497 1069 l 349 1069 q 299 1113 329 1086 q 236 1172 268 1140 q 176 1231 204 1203 q 132 1278 149 1260 l 132 1292 l 369 1292 z "},"É":{"ha":654,"x_min":94,"x_max":594,"o":"m 592 0 l 94 0 l 94 992 l 592 992 l 592 808 l 314 808 l 314 606 l 571 606 l 571 422 l 314 422 l 314 186 l 592 186 l 592 0 m 594 1278 q 553 1233 579 1260 q 496 1176 526 1206 q 434 1119 465 1147 q 378 1069 403 1092 l 229 1069 l 229 1088 q 276 1157 253 1122 q 320 1226 299 1192 q 358 1292 342 1261 l 594 1292 l 594 1278 z "},"Ê":{"ha":654,"x_min":94,"x_max":592,"o":"m 592 0 l 94 0 l 94 992 l 592 992 l 592 808 l 314 808 l 314 606 l 571 606 l 571 422 l 314 422 l 314 186 l 592 186 l 592 0 m 446 1292 q 488 1226 464 1261 q 538 1156 511 1192 q 590 1088 565 1121 l 590 1069 l 460 1069 q 404 1116 433 1089 q 343 1178 375 1143 q 283 1116 311 1143 q 231 1069 254 1089 l 97 1069 l 97 1088 q 147 1151 119 1114 q 201 1227 175 1189 q 242 1292 228 1265 l 446 1292 z "},"Ë":{"ha":654,"x_min":94,"x_max":592,"o":"m 592 0 l 94 0 l 94 992 l 592 992 l 592 808 l 314 808 l 314 606 l 571 606 l 571 422 l 314 422 l 314 186 l 592 186 l 592 0 m 111 1181 q 138 1255 111 1231 q 206 1279 164 1279 q 275 1254 249 1279 q 301 1181 301 1229 q 275 1109 301 1135 q 206 1083 249 1083 q 138 1108 164 1083 q 111 1181 111 1133 m 382 1181 q 408 1255 382 1231 q 478 1279 435 1279 q 547 1254 521 1279 q 574 1181 574 1229 q 547 1109 574 1135 q 478 1083 521 1083 q 408 1109 435 1083 q 382 1181 382 1135 z "},"Ì":{"ha":501,"x_min":39,"x_max":461,"o":"m 461 0 l 40 0 l 40 119 l 142 165 l 142 826 l 40 872 l 40 992 l 461 992 l 461 872 l 361 826 l 361 165 l 461 119 l 461 0 m 276 1292 q 315 1223 292 1263 q 364 1147 339 1183 q 404 1088 389 1111 l 404 1069 l 256 1069 q 206 1113 236 1086 q 143 1172 175 1140 q 83 1231 111 1203 q 39 1278 56 1260 l 39 1292 l 276 1292 z "},"Í":{"ha":501,"x_min":40,"x_max":503,"o":"m 461 0 l 40 0 l 40 119 l 142 165 l 142 826 l 40 872 l 40 992 l 461 992 l 461 872 l 361 826 l 361 165 l 461 119 l 461 0 m 503 1278 q 461 1233 488 1260 q 404 1176 435 1206 q 342 1119 374 1147 q 286 1069 311 1092 l 138 1069 l 138 1088 q 184 1157 161 1122 q 228 1226 207 1192 q 267 1292 250 1261 l 503 1292 l 503 1278 z "},"Î":{"ha":501,"x_min":4,"x_max":497,"o":"m 461 0 l 40 0 l 40 119 l 142 165 l 142 826 l 40 872 l 40 992 l 461 992 l 461 872 l 361 826 l 361 165 l 461 119 l 461 0 m 353 1292 q 394 1226 371 1261 q 445 1156 418 1192 q 497 1088 472 1121 l 497 1069 l 367 1069 q 311 1116 340 1089 q 250 1178 282 1143 q 190 1116 218 1143 q 138 1069 161 1089 l 4 1069 l 4 1088 q 54 1151 26 1114 q 108 1227 82 1189 q 149 1292 135 1265 l 353 1292 z "},"Ï":{"ha":501,"x_min":19,"x_max":482,"o":"m 461 0 l 40 0 l 40 119 l 142 165 l 142 826 l 40 872 l 40 992 l 461 992 l 461 872 l 361 826 l 361 165 l 461 119 l 461 0 m 19 1181 q 46 1255 19 1231 q 114 1279 72 1279 q 183 1254 157 1279 q 210 1181 210 1229 q 183 1109 210 1135 q 114 1083 157 1083 q 46 1108 72 1083 q 19 1181 19 1133 m 290 1181 q 317 1255 290 1231 q 386 1279 343 1279 q 456 1254 429 1279 q 482 1181 482 1229 q 456 1109 482 1135 q 386 1083 429 1083 q 317 1109 343 1083 q 290 1181 290 1135 z "},"Ð":{"ha":864,"x_min":13,"x_max":800,"o":"m 374 992 q 605 937 510 992 q 750 776 700 882 q 800 514 800 669 q 747 233 800 347 q 596 59 694 118 q 356 0 497 0 l 94 0 l 94 422 l 13 422 l 13 590 l 94 590 l 94 992 l 374 992 m 374 806 l 314 806 l 314 590 l 432 590 l 432 422 l 314 422 l 314 188 l 358 188 q 522 265 469 188 q 574 506 574 343 q 551 676 574 610 q 484 774 528 742 q 374 806 440 806 z "},"Ñ":{"ha":963,"x_min":94,"x_max":868,"o":"m 868 0 l 603 0 l 290 678 l 285 678 q 291 585 289 631 q 294 501 293 540 q 296 429 296 463 l 296 0 l 94 0 l 94 992 l 358 992 l 671 328 l 675 328 q 670 416 672 374 q 667 497 668 458 q 665 567 665 536 l 665 992 l 868 992 l 868 0 m 233 1068 q 242 1146 235 1107 q 266 1217 250 1185 q 308 1267 282 1249 q 372 1286 333 1286 q 426 1276 400 1286 q 478 1253 453 1267 q 527 1228 503 1239 q 575 1218 551 1218 q 604 1235 593 1218 q 622 1288 615 1253 l 731 1288 q 688 1124 728 1178 q 590 1069 647 1069 q 536 1079 564 1069 q 482 1103 508 1089 q 432 1127 456 1117 q 389 1138 408 1138 q 360 1122 375 1138 q 342 1068 346 1106 l 233 1068 z "},"Ò":{"ha":921,"x_min":63,"x_max":858,"o":"m 858 497 q 834 283 858 378 q 760 122 810 189 q 636 21 711 56 q 461 -14 561 -14 q 286 21 361 -14 q 162 122 211 56 q 88 284 113 189 q 63 499 63 379 q 107 774 63 661 q 240 947 151 888 q 461 1007 329 1007 q 684 946 596 1007 q 815 771 772 885 q 858 497 858 657 m 292 497 q 310 321 292 393 q 366 213 328 249 q 461 176 404 176 q 556 212 519 176 q 611 319 593 247 q 629 497 629 390 q 589 739 629 657 q 461 821 549 821 q 366 783 404 821 q 310 674 328 746 q 292 497 292 603 m 488 1292 q 526 1223 503 1263 q 575 1147 550 1183 q 615 1088 600 1111 l 615 1069 l 467 1069 q 417 1113 447 1086 q 354 1172 386 1140 q 294 1231 322 1203 q 250 1278 267 1260 l 250 1292 l 488 1292 z "},"Ó":{"ha":921,"x_min":63,"x_max":858,"o":"m 858 497 q 834 283 858 378 q 760 122 810 189 q 636 21 711 56 q 461 -14 561 -14 q 286 21 361 -14 q 162 122 211 56 q 88 284 113 189 q 63 499 63 379 q 107 774 63 661 q 240 947 151 888 q 461 1007 329 1007 q 684 946 596 1007 q 815 771 772 885 q 858 497 858 657 m 292 497 q 310 321 292 393 q 366 213 328 249 q 461 176 404 176 q 556 212 519 176 q 611 319 593 247 q 629 497 629 390 q 589 739 629 657 q 461 821 549 821 q 366 783 404 821 q 310 674 328 746 q 292 497 292 603 m 713 1278 q 671 1233 697 1260 q 614 1176 644 1206 q 552 1119 583 1147 q 496 1069 521 1092 l 347 1069 l 347 1088 q 394 1157 371 1122 q 438 1226 417 1192 q 476 1292 460 1261 l 713 1292 l 713 1278 z "},"Ô":{"ha":921,"x_min":63,"x_max":858,"o":"m 858 497 q 834 283 858 378 q 760 122 810 189 q 636 21 711 56 q 461 -14 561 -14 q 286 21 361 -14 q 162 122 211 56 q 88 284 113 189 q 63 499 63 379 q 107 774 63 661 q 240 947 151 888 q 461 1007 329 1007 q 684 946 596 1007 q 815 771 772 885 q 858 497 858 657 m 292 497 q 310 321 292 393 q 366 213 328 249 q 461 176 404 176 q 556 212 519 176 q 611 319 593 247 q 629 497 629 390 q 589 739 629 657 q 461 821 549 821 q 366 783 404 821 q 310 674 328 746 q 292 497 292 603 m 563 1292 q 604 1226 581 1261 q 655 1156 628 1192 q 707 1088 682 1121 l 707 1069 l 576 1069 q 521 1116 550 1089 q 460 1178 492 1143 q 399 1116 428 1143 q 347 1069 371 1089 l 214 1069 l 214 1088 q 264 1151 236 1114 q 318 1227 292 1189 q 358 1292 344 1265 l 563 1292 z "},"Õ":{"ha":921,"x_min":63,"x_max":858,"o":"m 858 497 q 834 283 858 378 q 760 122 810 189 q 636 21 711 56 q 461 -14 561 -14 q 286 21 361 -14 q 162 122 211 56 q 88 284 113 189 q 63 499 63 379 q 107 774 63 661 q 240 947 151 888 q 461 1007 329 1007 q 684 946 596 1007 q 815 771 772 885 q 858 497 858 657 m 292 497 q 310 321 292 393 q 366 213 328 249 q 461 176 404 176 q 556 212 519 176 q 611 319 593 247 q 629 497 629 390 q 589 739 629 657 q 461 821 549 821 q 366 783 404 821 q 310 674 328 746 q 292 497 292 603 m 214 1068 q 223 1146 215 1107 q 247 1217 231 1185 q 288 1267 263 1249 q 353 1286 314 1286 q 407 1276 381 1286 q 458 1253 433 1267 q 508 1228 483 1239 q 556 1218 532 1218 q 585 1235 574 1218 q 603 1288 596 1253 l 711 1288 q 668 1124 708 1178 q 571 1069 628 1069 q 517 1079 544 1069 q 463 1103 489 1089 q 413 1127 436 1117 q 369 1138 389 1138 q 341 1122 356 1138 q 322 1068 326 1106 l 214 1068 z "},"Ö":{"ha":921,"x_min":63,"x_max":858,"o":"m 858 497 q 834 283 858 378 q 760 122 810 189 q 636 21 711 56 q 461 -14 561 -14 q 286 21 361 -14 q 162 122 211 56 q 88 284 113 189 q 63 499 63 379 q 107 774 63 661 q 240 947 151 888 q 461 1007 329 1007 q 684 946 596 1007 q 815 771 772 885 q 858 497 858 657 m 292 497 q 310 321 292 393 q 366 213 328 249 q 461 176 404 176 q 556 212 519 176 q 611 319 593 247 q 629 497 629 390 q 589 739 629 657 q 461 821 549 821 q 366 783 404 821 q 310 674 328 746 q 292 497 292 603 m 229 1181 q 256 1255 229 1231 q 324 1279 282 1279 q 393 1254 367 1279 q 419 1181 419 1229 q 393 1109 419 1135 q 324 1083 367 1083 q 256 1108 282 1083 q 229 1181 229 1133 m 500 1181 q 526 1255 500 1231 q 596 1279 553 1279 q 665 1254 639 1279 q 692 1181 692 1229 q 665 1109 692 1135 q 596 1083 639 1083 q 526 1109 553 1083 q 500 1181 500 1135 z "},"×":{"ha":713,"x_min":63,"x_max":651,"o":"m 536 785 l 651 672 l 468 490 l 649 310 l 536 197 l 354 376 l 172 197 l 63 311 l 240 490 l 63 669 l 174 783 l 354 606 l 536 785 z "},"Ø":{"ha":921,"x_min":63,"x_max":858,"o":"m 858 497 q 833 281 858 375 q 759 120 808 186 q 635 20 710 54 q 461 -14 560 -14 q 363 -4 408 -14 q 279 25 318 6 l 229 -71 l 121 -14 l 182 99 q 90 274 118 175 q 63 499 63 374 q 107 774 63 661 q 240 947 151 888 q 461 1007 329 1007 q 564 996 517 1007 q 650 963 611 985 l 696 1049 l 803 993 l 746 888 q 831 724 803 824 q 858 497 858 625 m 633 497 q 618 657 633 590 l 371 201 q 412 178 389 186 q 461 169 435 169 q 559 207 521 169 q 615 317 597 244 q 633 497 633 390 m 288 497 q 292 402 288 446 q 306 322 296 358 l 558 785 q 515 814 539 804 q 461 824 490 824 q 364 786 403 824 q 306 676 325 749 q 288 497 288 604 z "},"Ù":{"ha":874,"x_min":90,"x_max":785,"o":"m 785 343 q 744 149 785 229 q 627 28 704 69 q 435 -14 550 -14 q 178 76 267 -14 q 90 339 90 167 l 90 992 l 308 992 l 308 353 q 341 217 308 257 q 438 176 374 176 q 510 194 482 176 q 552 251 539 211 q 565 354 565 290 l 565 992 l 785 992 l 785 343 m 463 1292 q 501 1223 478 1263 q 550 1147 525 1183 q 590 1088 575 1111 l 590 1069 l 442 1069 q 392 1113 422 1086 q 329 1172 361 1140 q 269 1231 297 1203 q 225 1278 242 1260 l 225 1292 l 463 1292 z "},"Ú":{"ha":874,"x_min":90,"x_max":785,"o":"m 785 343 q 744 149 785 229 q 627 28 704 69 q 435 -14 550 -14 q 178 76 267 -14 q 90 339 90 167 l 90 992 l 308 992 l 308 353 q 341 217 308 257 q 438 176 374 176 q 510 194 482 176 q 552 251 539 211 q 565 354 565 290 l 565 992 l 785 992 l 785 343 m 688 1278 q 646 1233 672 1260 q 589 1176 619 1206 q 527 1119 558 1147 q 471 1069 496 1092 l 322 1069 l 322 1088 q 369 1157 346 1122 q 413 1226 392 1192 q 451 1292 435 1261 l 688 1292 l 688 1278 z "},"Û":{"ha":874,"x_min":90,"x_max":785,"o":"m 785 343 q 744 149 785 229 q 627 28 704 69 q 435 -14 550 -14 q 178 76 267 -14 q 90 339 90 167 l 90 992 l 308 992 l 308 353 q 341 217 308 257 q 438 176 374 176 q 510 194 482 176 q 552 251 539 211 q 565 354 565 290 l 565 992 l 785 992 l 785 343 m 539 1292 q 581 1226 557 1261 q 631 1156 604 1192 q 683 1088 658 1121 l 683 1069 l 553 1069 q 497 1116 526 1089 q 436 1178 468 1143 q 376 1116 404 1143 q 324 1069 347 1089 l 190 1069 l 190 1088 q 240 1151 213 1114 q 294 1227 268 1189 q 335 1292 321 1265 l 539 1292 z "},"Ü":{"ha":874,"x_min":90,"x_max":785,"o":"m 785 343 q 744 149 785 229 q 627 28 704 69 q 435 -14 550 -14 q 178 76 267 -14 q 90 339 90 167 l 90 992 l 308 992 l 308 353 q 341 217 308 257 q 438 176 374 176 q 510 194 482 176 q 552 251 539 211 q 565 354 565 290 l 565 992 l 785 992 l 785 343 m 206 1181 q 232 1255 206 1231 q 300 1279 258 1279 q 369 1254 343 1279 q 396 1181 396 1229 q 369 1109 396 1135 q 300 1083 343 1083 q 232 1108 258 1083 q 206 1181 206 1133 m 476 1181 q 503 1255 476 1231 q 572 1279 529 1279 q 642 1254 615 1279 q 668 1181 668 1229 q 642 1109 668 1135 q 572 1083 615 1083 q 503 1109 529 1083 q 476 1181 476 1135 z "},"Ý":{"ha":751,"x_min":0,"x_max":751,"o":"m 376 607 l 522 992 l 751 992 l 485 383 l 485 0 l 267 0 l 267 376 l 0 992 l 231 992 l 376 607 m 628 1278 q 586 1233 613 1260 q 529 1176 560 1206 q 467 1119 499 1147 q 411 1069 436 1092 l 263 1069 l 263 1088 q 309 1157 286 1122 q 353 1226 332 1192 q 392 1292 375 1261 l 628 1292 l 628 1278 z "},"Þ":{"ha":735,"x_min":94,"x_max":699,"o":"m 699 531 q 681 399 699 461 q 625 291 663 338 q 526 218 588 244 q 378 192 464 192 l 314 192 l 314 0 l 94 0 l 94 992 l 314 992 l 314 842 l 383 842 q 621 760 543 842 q 699 531 699 679 m 353 374 q 423 390 394 374 q 466 440 451 406 q 481 529 481 474 q 453 626 481 593 q 368 658 426 658 l 314 658 l 314 374 l 353 374 z "},"ß":{"ha":847,"x_min":82,"x_max":808,"o":"m 735 822 q 720 736 735 772 q 683 674 706 700 q 637 629 660 649 q 599 592 614 610 q 585 554 585 574 q 594 526 585 540 q 625 494 604 511 q 678 453 646 476 q 750 390 721 422 q 794 319 779 358 q 808 229 808 281 q 778 96 808 150 q 690 14 749 42 q 547 -14 632 -14 q 448 -5 494 -14 q 361 26 401 4 l 361 211 q 410 183 383 196 q 464 164 436 171 q 515 157 492 157 q 574 173 554 157 q 593 217 593 189 q 585 253 593 238 q 556 289 578 269 q 493 336 535 308 q 417 403 443 371 q 381 469 390 436 q 371 533 371 501 q 385 603 371 575 q 423 655 400 632 q 469 699 446 678 q 507 744 492 719 q 522 804 522 769 q 494 865 522 840 q 414 890 467 890 q 348 873 375 890 q 307 822 321 856 q 293 736 293 788 l 293 0 l 82 0 l 82 757 q 124 922 82 854 q 240 1026 165 990 q 414 1063 315 1063 q 581 1034 508 1063 q 694 952 653 1006 q 735 822 735 899 z "},"à":{"ha":719,"x_min":43,"x_max":640,"o":"m 381 778 q 572 709 504 778 q 640 504 640 640 l 640 0 l 489 0 l 453 101 l 447 101 q 393 37 422 63 q 327 -1 364 11 q 239 -14 290 -14 q 130 19 174 -14 q 65 106 86 51 q 43 229 43 161 q 115 411 43 351 q 322 476 186 471 l 429 481 l 429 506 q 408 588 429 561 q 342 614 386 614 q 260 600 304 614 q 165 558 217 586 l 107 710 q 233 760 164 743 q 381 778 301 778 m 375 346 q 284 315 313 343 q 256 238 256 288 q 274 171 256 193 q 325 149 293 149 q 399 185 369 149 q 429 282 429 221 l 429 349 l 375 346 m 394 1064 q 433 995 410 1035 q 482 919 457 956 q 522 860 507 883 l 522 842 l 374 842 q 324 885 354 858 q 261 944 293 913 q 201 1003 229 975 q 157 1050 174 1032 l 157 1064 l 394 1064 z "},"á":{"ha":719,"x_min":43,"x_max":640,"o":"m 381 778 q 572 709 504 778 q 640 504 640 640 l 640 0 l 489 0 l 453 101 l 447 101 q 393 37 422 63 q 327 -1 364 11 q 239 -14 290 -14 q 130 19 174 -14 q 65 106 86 51 q 43 229 43 161 q 115 411 43 351 q 322 476 186 471 l 429 481 l 429 506 q 408 588 429 561 q 342 614 386 614 q 260 600 304 614 q 165 558 217 586 l 107 710 q 233 760 164 743 q 381 778 301 778 m 375 346 q 284 315 313 343 q 256 238 256 288 q 274 171 256 193 q 325 149 293 149 q 399 185 369 149 q 429 282 429 221 l 429 349 l 375 346 m 619 1050 q 578 1005 604 1032 q 521 949 551 978 q 459 892 490 919 q 403 842 428 864 l 254 842 l 254 860 q 301 929 278 894 q 345 999 324 964 q 383 1064 367 1033 l 619 1064 l 619 1050 z "},"â":{"ha":719,"x_min":43,"x_max":640,"o":"m 381 778 q 572 709 504 778 q 640 504 640 640 l 640 0 l 489 0 l 453 101 l 447 101 q 393 37 422 63 q 327 -1 364 11 q 239 -14 290 -14 q 130 19 174 -14 q 65 106 86 51 q 43 229 43 161 q 115 411 43 351 q 322 476 186 471 l 429 481 l 429 506 q 408 588 429 561 q 342 614 386 614 q 260 600 304 614 q 165 558 217 586 l 107 710 q 233 760 164 743 q 381 778 301 778 m 375 346 q 284 315 313 343 q 256 238 256 288 q 274 171 256 193 q 325 149 293 149 q 399 185 369 149 q 429 282 429 221 l 429 349 l 375 346 m 471 1064 q 513 999 489 1033 q 563 928 536 964 q 615 860 590 893 l 615 842 l 485 842 q 429 888 458 861 q 368 950 400 915 q 308 888 336 915 q 256 842 279 861 l 122 842 l 122 860 q 172 924 144 886 q 226 999 200 961 q 267 1064 253 1038 l 471 1064 z "},"ã":{"ha":719,"x_min":43,"x_max":640,"o":"m 381 778 q 572 709 504 778 q 640 504 640 640 l 640 0 l 489 0 l 453 101 l 447 101 q 393 37 422 63 q 327 -1 364 11 q 239 -14 290 -14 q 130 19 174 -14 q 65 106 86 51 q 43 229 43 161 q 115 411 43 351 q 322 476 186 471 l 429 481 l 429 506 q 408 588 429 561 q 342 614 386 614 q 260 600 304 614 q 165 558 217 586 l 107 710 q 233 760 164 743 q 381 778 301 778 m 375 346 q 284 315 313 343 q 256 238 256 288 q 274 171 256 193 q 325 149 293 149 q 399 185 369 149 q 429 282 429 221 l 429 349 l 375 346 m 121 840 q 130 918 122 879 q 153 989 138 957 q 195 1040 169 1021 q 260 1058 221 1058 q 314 1049 288 1058 q 365 1025 340 1039 q 415 1001 390 1011 q 463 990 439 990 q 492 1008 481 990 q 510 1060 503 1025 l 618 1060 q 575 896 615 950 q 478 842 535 842 q 424 851 451 842 q 369 875 396 861 q 319 899 343 889 q 276 910 296 910 q 248 894 263 910 q 229 840 233 878 l 121 840 z "},"ä":{"ha":719,"x_min":43,"x_max":640,"o":"m 381 778 q 572 709 504 778 q 640 504 640 640 l 640 0 l 489 0 l 453 101 l 447 101 q 393 37 422 63 q 327 -1 364 11 q 239 -14 290 -14 q 130 19 174 -14 q 65 106 86 51 q 43 229 43 161 q 115 411 43 351 q 322 476 186 471 l 429 481 l 429 506 q 408 588 429 561 q 342 614 386 614 q 260 600 304 614 q 165 558 217 586 l 107 710 q 233 760 164 743 q 381 778 301 778 m 375 346 q 284 315 313 343 q 256 238 256 288 q 274 171 256 193 q 325 149 293 149 q 399 185 369 149 q 429 282 429 221 l 429 349 l 375 346 m 138 953 q 164 1027 138 1003 q 232 1051 190 1051 q 301 1026 275 1051 q 328 953 328 1001 q 301 881 328 907 q 232 856 275 856 q 164 881 190 856 q 138 953 138 906 m 408 953 q 435 1027 408 1003 q 504 1051 461 1051 q 574 1026 547 1051 q 600 953 600 1001 q 574 881 600 907 q 504 856 547 856 q 435 881 461 856 q 408 953 408 907 z "},"å":{"ha":719,"x_min":43,"x_max":640,"o":"m 381 778 q 572 709 504 778 q 640 504 640 640 l 640 0 l 489 0 l 453 101 l 447 101 q 393 37 422 63 q 327 -1 364 11 q 239 -14 290 -14 q 130 19 174 -14 q 65 106 86 51 q 43 229 43 161 q 115 411 43 351 q 322 476 186 471 l 429 481 l 429 506 q 408 588 429 561 q 342 614 386 614 q 260 600 304 614 q 165 558 217 586 l 107 710 q 233 760 164 743 q 381 778 301 778 m 375 346 q 284 315 313 343 q 256 238 256 288 q 274 171 256 193 q 325 149 293 149 q 399 185 369 149 q 429 282 429 221 l 429 349 l 375 346 m 368 840 q 247 886 293 840 q 200 1004 200 932 q 246 1125 200 1079 q 368 1171 292 1171 q 491 1124 443 1171 q 539 1006 539 1078 q 492 887 539 933 q 368 840 444 840 m 369 946 q 412 963 394 946 q 429 1006 429 979 q 412 1050 429 1033 q 369 1067 394 1067 q 326 1049 343 1067 q 308 1006 308 1032 q 324 963 308 979 q 369 946 340 946 z "},"æ":{"ha":1075,"x_min":43,"x_max":1028,"o":"m 739 776 q 894 735 829 776 q 993 617 958 694 q 1028 429 1028 540 l 1028 321 l 628 321 q 667 193 629 236 q 779 150 704 150 q 884 164 833 150 q 988 208 935 178 l 988 40 q 884 -1 939 13 q 756 -14 829 -14 q 654 0 703 -14 q 566 42 606 14 q 499 115 526 71 q 430 42 465 71 q 352 -1 394 13 q 254 -14 310 -14 q 139 19 186 -14 q 67 106 92 51 q 43 229 43 161 q 76 365 43 311 q 170 446 108 418 q 321 476 232 474 l 426 481 l 426 510 q 405 588 426 563 q 342 614 383 614 q 259 601 303 614 q 167 560 215 588 l 107 711 q 226 760 161 743 q 360 778 292 778 q 468 759 422 778 q 544 703 514 740 q 628 758 581 740 q 739 776 675 776 m 374 346 q 284 315 313 343 q 256 236 256 288 q 274 170 256 192 q 325 149 292 149 q 377 165 354 149 q 414 212 400 182 q 428 282 428 242 l 428 349 l 374 346 m 735 618 q 661 583 690 618 q 629 467 632 547 l 832 467 q 821 548 832 514 q 788 600 810 582 q 735 618 767 618 z "},"ç":{"ha":622,"x_min":51,"x_max":589,"o":"m 368 -14 q 194 28 265 -14 q 88 157 124 69 q 51 378 51 244 q 88 590 51 500 q 198 728 125 679 q 376 778 271 778 q 493 763 442 778 q 589 724 544 749 l 529 558 q 458 590 493 579 q 388 600 424 600 q 322 575 349 600 q 280 501 294 550 q 265 379 265 451 q 280 258 265 307 q 322 186 294 210 q 390 163 350 163 q 482 179 438 163 q 569 226 526 196 l 569 49 q 478 1 528 17 q 368 -14 429 -14 m 513 -175 q 467 -291 513 -249 q 331 -333 421 -333 q 268 -330 297 -333 q 217 -319 239 -326 l 217 -203 q 258 -211 238 -208 q 296 -214 278 -214 q 338 -203 322 -214 q 353 -171 353 -193 q 328 -130 353 -146 q 254 -110 303 -114 l 301 0 l 410 0 l 389 -49 q 453 -72 425 -56 q 497 -114 481 -87 q 513 -175 513 -140 z "},"è":{"ha":707,"x_min":51,"x_max":660,"o":"m 361 776 q 523 735 456 776 q 625 617 590 694 q 660 429 660 540 l 660 321 l 261 321 q 300 193 263 236 q 411 150 338 150 q 517 164 468 150 q 621 208 567 178 l 621 40 q 514 -1 571 13 q 385 -14 457 -14 q 201 31 275 -14 q 89 164 126 76 q 51 378 51 251 q 88 597 51 508 q 193 731 124 685 q 361 776 263 776 m 367 618 q 294 583 322 618 q 263 467 265 547 l 465 467 q 453 549 465 515 q 420 600 442 582 q 367 618 399 618 m 385 1064 q 424 995 400 1035 q 472 919 447 956 q 513 860 497 883 l 513 842 l 364 842 q 314 885 344 858 q 251 944 283 913 q 192 1003 219 975 q 147 1050 164 1032 l 147 1064 l 385 1064 z "},"é":{"ha":707,"x_min":51,"x_max":660,"o":"m 361 776 q 523 735 456 776 q 625 617 590 694 q 660 429 660 540 l 660 321 l 261 321 q 300 193 263 236 q 411 150 338 150 q 517 164 468 150 q 621 208 567 178 l 621 40 q 514 -1 571 13 q 385 -14 457 -14 q 201 31 275 -14 q 89 164 126 76 q 51 378 51 251 q 88 597 51 508 q 193 731 124 685 q 361 776 263 776 m 367 618 q 294 583 322 618 q 263 467 265 547 l 465 467 q 453 549 465 515 q 420 600 442 582 q 367 618 399 618 m 610 1050 q 568 1005 594 1032 q 511 949 542 978 q 449 892 481 919 q 393 842 418 864 l 244 842 l 244 860 q 291 929 268 894 q 335 999 314 964 q 374 1064 357 1033 l 610 1064 l 610 1050 z "},"ê":{"ha":707,"x_min":51,"x_max":660,"o":"m 361 776 q 523 735 456 776 q 625 617 590 694 q 660 429 660 540 l 660 321 l 261 321 q 300 193 263 236 q 411 150 338 150 q 517 164 468 150 q 621 208 567 178 l 621 40 q 514 -1 571 13 q 385 -14 457 -14 q 201 31 275 -14 q 89 164 126 76 q 51 378 51 251 q 88 597 51 508 q 193 731 124 685 q 361 776 263 776 m 367 618 q 294 583 322 618 q 263 467 265 547 l 465 467 q 453 549 465 515 q 420 600 442 582 q 367 618 399 618 m 460 1064 q 501 999 478 1033 q 552 928 525 964 q 604 860 579 893 l 604 842 l 474 842 q 418 888 447 861 q 357 950 389 915 q 297 888 325 915 q 244 842 268 861 l 111 842 l 111 860 q 161 924 133 886 q 215 999 189 961 q 256 1064 242 1038 l 460 1064 z "},"ë":{"ha":707,"x_min":51,"x_max":660,"o":"m 361 776 q 523 735 456 776 q 625 617 590 694 q 660 429 660 540 l 660 321 l 261 321 q 300 193 263 236 q 411 150 338 150 q 517 164 468 150 q 621 208 567 178 l 621 40 q 514 -1 571 13 q 385 -14 457 -14 q 201 31 275 -14 q 89 164 126 76 q 51 378 51 251 q 88 597 51 508 q 193 731 124 685 q 361 776 263 776 m 367 618 q 294 583 322 618 q 263 467 265 547 l 465 467 q 453 549 465 515 q 420 600 442 582 q 367 618 399 618 m 126 953 q 153 1027 126 1003 q 221 1051 179 1051 q 290 1026 264 1051 q 317 953 317 1001 q 290 881 317 907 q 221 856 264 856 q 153 881 179 856 q 126 953 126 906 m 397 953 q 424 1027 397 1003 q 493 1051 450 1051 q 563 1026 536 1051 q 589 953 589 1001 q 563 881 589 907 q 493 856 536 856 q 424 881 450 856 q 397 953 397 907 z "},"ì":{"ha":378,"x_min":-24,"x_max":343,"o":"m 294 0 l 83 0 l 83 764 l 294 764 l 294 0 m 214 1064 q 253 995 229 1035 q 301 919 276 956 q 342 860 326 883 l 342 842 l 193 842 q 143 885 174 858 q 81 944 113 913 q 21 1003 49 975 q -24 1050 -7 1032 l -24 1064 l 214 1064 z "},"í":{"ha":378,"x_min":75,"x_max":440,"o":"m 294 0 l 83 0 l 83 764 l 294 764 l 294 0 m 440 1050 q 399 1005 425 1032 q 342 949 372 978 q 280 892 311 919 q 224 842 249 864 l 75 842 l 75 860 q 122 929 99 894 q 166 999 144 964 q 204 1064 188 1033 l 440 1064 l 440 1050 z "},"î":{"ha":378,"x_min":-58,"x_max":435,"o":"m 294 0 l 83 0 l 83 764 l 294 764 l 294 0 m 290 1064 q 332 999 308 1033 q 383 928 356 964 q 435 860 410 893 l 435 842 l 304 842 q 249 888 278 861 q 188 950 219 915 q 127 888 156 915 q 75 842 99 861 l -58 842 l -58 860 q -8 924 -36 886 q 46 999 19 961 q 86 1064 72 1038 l 290 1064 z "},"ï":{"ha":378,"x_min":-43,"x_max":419,"o":"m 294 0 l 83 0 l 83 764 l 294 764 l 294 0 m -43 953 q -17 1027 -43 1003 q 51 1051 10 1051 q 121 1026 94 1051 q 147 953 147 1001 q 121 881 147 907 q 51 856 94 856 q -17 881 10 856 q -43 953 -43 906 m 228 953 q 254 1027 228 1003 q 324 1051 281 1051 q 393 1026 367 1051 q 419 953 419 1001 q 393 881 419 907 q 324 856 367 856 q 254 881 281 856 q 228 953 228 907 z "},"ð":{"ha":750,"x_min":51,"x_max":697,"o":"m 288 1065 q 353 1028 321 1049 q 419 985 386 1008 l 529 1065 l 604 965 l 514 899 q 613 763 572 838 q 675 597 653 689 q 697 383 697 504 q 658 170 697 260 q 547 33 619 81 q 372 -14 475 -14 q 204 29 276 -14 q 92 151 132 72 q 51 336 51 229 q 90 523 51 446 q 193 641 128 600 q 338 682 258 682 q 385 678 364 682 q 424 666 406 674 q 454 646 442 658 l 458 649 q 425 723 446 688 q 374 793 404 758 l 272 719 l 197 819 l 290 888 q 249 920 271 904 q 206 950 228 936 l 288 1065 m 375 511 q 313 492 338 511 q 278 433 289 472 q 267 333 267 393 q 278 239 267 279 q 313 177 289 199 q 375 156 338 156 q 458 203 433 156 q 482 344 482 251 q 476 413 482 382 q 458 466 471 444 q 424 499 444 488 q 375 511 404 511 z "},"ñ":{"ha":776,"x_min":82,"x_max":696,"o":"m 472 778 q 636 708 576 778 q 696 500 696 638 l 696 0 l 485 0 l 485 438 q 467 556 485 517 q 401 596 449 596 q 316 540 339 596 q 293 356 293 485 l 293 0 l 82 0 l 82 764 l 246 764 l 271 667 l 282 667 q 329 728 301 703 q 393 765 357 753 q 472 778 429 778 m 150 840 q 159 918 151 879 q 183 989 167 957 q 224 1040 199 1021 q 289 1058 250 1058 q 343 1049 317 1058 q 394 1025 369 1039 q 444 1001 419 1011 q 492 990 468 990 q 521 1008 510 990 q 539 1060 532 1025 l 647 1060 q 604 896 644 950 q 507 842 564 842 q 453 851 481 842 q 399 875 425 861 q 349 899 372 889 q 306 910 325 910 q 277 894 292 910 q 258 840 263 878 l 150 840 z "},"ò":{"ha":749,"x_min":51,"x_max":696,"o":"m 696 383 q 677 229 696 301 q 619 102 658 157 q 519 17 581 47 q 374 -14 457 -14 q 234 17 294 -14 q 133 101 174 47 q 72 228 93 156 q 51 383 51 300 q 87 590 51 501 q 194 728 122 678 q 376 778 265 778 q 544 732 472 778 q 656 598 615 686 q 696 383 696 510 m 265 382 q 276 258 265 308 q 312 183 288 208 q 375 158 336 158 q 437 183 414 158 q 471 259 460 208 q 482 383 482 310 q 471 507 482 458 q 437 580 460 556 q 374 604 414 604 q 291 549 317 604 q 265 382 265 494 m 400 1064 q 439 995 415 1035 q 488 919 463 956 q 528 860 513 883 l 528 842 l 379 842 q 329 885 360 858 q 267 944 299 913 q 207 1003 235 975 q 163 1050 179 1032 l 163 1064 l 400 1064 z "},"ó":{"ha":749,"x_min":51,"x_max":696,"o":"m 696 383 q 677 229 696 301 q 619 102 658 157 q 519 17 581 47 q 374 -14 457 -14 q 234 17 294 -14 q 133 101 174 47 q 72 228 93 156 q 51 383 51 300 q 87 590 51 501 q 194 728 122 678 q 376 778 265 778 q 544 732 472 778 q 656 598 615 686 q 696 383 696 510 m 265 382 q 276 258 265 308 q 312 183 288 208 q 375 158 336 158 q 437 183 414 158 q 471 259 460 208 q 482 383 482 310 q 471 507 482 458 q 437 580 460 556 q 374 604 414 604 q 291 549 317 604 q 265 382 265 494 m 626 1050 q 585 1005 611 1032 q 528 949 558 978 q 466 892 497 919 q 410 842 435 864 l 261 842 l 261 860 q 308 929 285 894 q 352 999 331 964 q 390 1064 374 1033 l 626 1064 l 626 1050 z "},"ô":{"ha":749,"x_min":51,"x_max":696,"o":"m 696 383 q 677 229 696 301 q 619 102 658 157 q 519 17 581 47 q 374 -14 457 -14 q 234 17 294 -14 q 133 101 174 47 q 72 228 93 156 q 51 383 51 300 q 87 590 51 501 q 194 728 122 678 q 376 778 265 778 q 544 732 472 778 q 656 598 615 686 q 696 383 696 510 m 265 382 q 276 258 265 308 q 312 183 288 208 q 375 158 336 158 q 437 183 414 158 q 471 259 460 208 q 482 383 482 310 q 471 507 482 458 q 437 580 460 556 q 374 604 414 604 q 291 549 317 604 q 265 382 265 494 m 476 1064 q 518 999 494 1033 q 569 928 542 964 q 621 860 596 893 l 621 842 l 490 842 q 435 888 464 861 q 374 950 406 915 q 313 888 342 915 q 261 842 285 861 l 128 842 l 128 860 q 178 924 150 886 q 232 999 206 961 q 272 1064 258 1038 l 476 1064 z "},"õ":{"ha":749,"x_min":51,"x_max":696,"o":"m 696 383 q 677 229 696 301 q 619 102 658 157 q 519 17 581 47 q 374 -14 457 -14 q 234 17 294 -14 q 133 101 174 47 q 72 228 93 156 q 51 383 51 300 q 87 590 51 501 q 194 728 122 678 q 376 778 265 778 q 544 732 472 778 q 656 598 615 686 q 696 383 696 510 m 265 382 q 276 258 265 308 q 312 183 288 208 q 375 158 336 158 q 437 183 414 158 q 471 259 460 208 q 482 383 482 310 q 471 507 482 458 q 437 580 460 556 q 374 604 414 604 q 291 549 317 604 q 265 382 265 494 m 126 840 q 135 918 128 879 q 159 989 143 957 q 201 1040 175 1021 q 265 1058 226 1058 q 319 1049 293 1058 q 371 1025 346 1039 q 420 1001 396 1011 q 468 990 444 990 q 497 1008 486 990 q 515 1060 508 1025 l 624 1060 q 581 896 621 950 q 483 842 540 842 q 429 851 457 842 q 375 875 401 861 q 325 899 349 889 q 282 910 301 910 q 253 894 268 910 q 235 840 239 878 l 126 840 z "},"ö":{"ha":749,"x_min":51,"x_max":696,"o":"m 696 383 q 677 229 696 301 q 619 102 658 157 q 519 17 581 47 q 374 -14 457 -14 q 234 17 294 -14 q 133 101 174 47 q 72 228 93 156 q 51 383 51 300 q 87 590 51 501 q 194 728 122 678 q 376 778 265 778 q 544 732 472 778 q 656 598 615 686 q 696 383 696 510 m 265 382 q 276 258 265 308 q 312 183 288 208 q 375 158 336 158 q 437 183 414 158 q 471 259 460 208 q 482 383 482 310 q 471 507 482 458 q 437 580 460 556 q 374 604 414 604 q 291 549 317 604 q 265 382 265 494 m 143 953 q 169 1027 143 1003 q 238 1051 196 1051 q 307 1026 281 1051 q 333 953 333 1001 q 307 881 333 907 q 238 856 281 856 q 169 881 196 856 q 143 953 143 906 m 414 953 q 440 1027 414 1003 q 510 1051 467 1051 q 579 1026 553 1051 q 606 953 606 1001 q 579 881 606 907 q 510 856 553 856 q 440 881 467 856 q 414 953 414 907 z "},"÷":{"ha":713,"x_min":51,"x_max":661,"o":"m 51 408 l 51 572 l 661 572 l 661 408 l 51 408 m 356 115 q 283 144 311 115 q 256 226 256 172 q 283 310 256 283 q 357 338 310 338 q 430 310 403 338 q 457 226 457 283 q 429 144 457 172 q 356 115 401 115 m 356 642 q 283 669 311 642 q 256 753 256 697 q 283 836 256 808 q 357 864 310 864 q 430 836 403 864 q 457 753 457 808 q 429 669 457 697 q 356 642 401 642 z "},"ø":{"ha":754,"x_min":51,"x_max":701,"o":"m 701 383 q 663 169 701 258 q 551 33 624 81 q 375 -14 479 -14 q 306 -7 339 -14 q 243 14 274 0 l 196 -76 l 93 -24 l 150 81 q 76 215 100 140 q 51 383 51 289 q 138 675 51 572 q 379 778 224 778 q 450 770 417 778 q 513 747 483 763 l 554 822 l 654 768 l 607 678 q 677 553 653 628 q 701 383 701 478 m 256 382 q 258 326 256 351 q 264 279 260 301 l 436 594 q 410 610 425 606 q 376 614 394 614 q 284 556 313 614 q 256 382 256 499 m 497 383 q 496 433 497 410 q 492 478 494 457 l 322 165 q 347 153 333 157 q 376 149 361 149 q 448 175 421 149 q 486 254 475 201 q 497 383 497 307 z "},"ù":{"ha":776,"x_min":81,"x_max":694,"o":"m 694 764 l 694 0 l 531 0 l 506 96 l 494 96 q 447 35 475 60 q 383 -2 418 10 q 306 -14 347 -14 q 184 18 235 -14 q 107 113 133 50 q 81 265 81 175 l 81 764 l 292 764 l 292 329 q 310 208 292 250 q 369 167 328 167 q 442 194 418 167 q 475 271 467 221 q 483 392 483 321 l 483 764 l 694 764 m 414 1064 q 453 995 429 1035 q 501 919 476 956 q 542 860 526 883 l 542 842 l 393 842 q 343 885 374 858 q 281 944 313 913 q 221 1003 249 975 q 176 1050 193 1032 l 176 1064 l 414 1064 z "},"ú":{"ha":776,"x_min":81,"x_max":694,"o":"m 694 764 l 694 0 l 531 0 l 506 96 l 494 96 q 447 35 475 60 q 383 -2 418 10 q 306 -14 347 -14 q 184 18 235 -14 q 107 113 133 50 q 81 265 81 175 l 81 764 l 292 764 l 292 329 q 310 208 292 250 q 369 167 328 167 q 442 194 418 167 q 475 271 467 221 q 483 392 483 321 l 483 764 l 694 764 m 640 1050 q 599 1005 625 1032 q 542 949 572 978 q 480 892 511 919 q 424 842 449 864 l 275 842 l 275 860 q 322 929 299 894 q 366 999 344 964 q 404 1064 388 1033 l 640 1064 l 640 1050 z "},"û":{"ha":776,"x_min":81,"x_max":694,"o":"m 694 764 l 694 0 l 531 0 l 506 96 l 494 96 q 447 35 475 60 q 383 -2 418 10 q 306 -14 347 -14 q 184 18 235 -14 q 107 113 133 50 q 81 265 81 175 l 81 764 l 292 764 l 292 329 q 310 208 292 250 q 369 167 328 167 q 442 194 418 167 q 475 271 467 221 q 483 392 483 321 l 483 764 l 694 764 m 490 1064 q 532 999 508 1033 q 583 928 556 964 q 635 860 610 893 l 635 842 l 504 842 q 449 888 478 861 q 388 950 419 915 q 327 888 356 915 q 275 842 299 861 l 142 842 l 142 860 q 192 924 164 886 q 246 999 219 961 q 286 1064 272 1038 l 490 1064 z "},"ü":{"ha":776,"x_min":81,"x_max":694,"o":"m 694 764 l 694 0 l 531 0 l 506 96 l 494 96 q 447 35 475 60 q 383 -2 418 10 q 306 -14 347 -14 q 184 18 235 -14 q 107 113 133 50 q 81 265 81 175 l 81 764 l 292 764 l 292 329 q 310 208 292 250 q 369 167 328 167 q 442 194 418 167 q 475 271 467 221 q 483 392 483 321 l 483 764 l 694 764 m 157 953 q 183 1027 157 1003 q 251 1051 210 1051 q 321 1026 294 1051 q 347 953 347 1001 q 321 881 347 907 q 251 856 294 856 q 183 881 210 856 q 157 953 157 906 m 428 953 q 454 1027 428 1003 q 524 1051 481 1051 q 593 1026 567 1051 q 619 953 619 1001 q 593 881 619 907 q 524 856 567 856 q 454 881 481 856 q 428 953 428 907 z "},"ý":{"ha":697,"x_min":3,"x_max":696,"o":"m 3 764 l 225 764 l 325 388 q 336 343 332 365 q 344 299 340 321 q 349 258 347 278 l 354 258 q 363 317 357 286 q 379 386 369 349 l 476 764 l 696 764 l 442 -65 q 373 -219 413 -160 q 281 -306 333 -279 q 156 -333 228 -333 q 104 -331 128 -333 q 60 -322 81 -328 l 60 -143 q 90 -149 74 -147 q 122 -151 106 -151 q 176 -139 156 -151 q 212 -97 196 -126 q 242 -19 228 -68 l 250 10 l 3 764 m 600 1050 q 558 1005 585 1032 q 501 949 532 978 q 440 892 471 919 q 383 842 408 864 l 235 842 l 235 860 q 281 929 258 894 q 326 999 304 964 q 364 1064 347 1033 l 600 1064 l 600 1050 z "},"þ":{"ha":763,"x_min":82,"x_max":711,"o":"m 711 381 q 681 167 711 256 q 598 33 651 79 q 472 -14 544 -14 q 399 -1 432 -14 q 339 35 365 11 q 293 93 313 58 l 286 93 q 290 42 289 67 q 292 -1 292 18 q 293 -35 293 -21 l 293 -333 l 82 -333 l 82 1056 l 293 1056 l 293 810 q 291 733 293 771 q 285 664 289 696 l 293 664 q 341 731 315 706 q 399 767 367 756 q 469 778 431 778 q 646 674 581 778 q 711 381 711 571 m 497 381 q 473 549 497 493 q 400 604 449 604 q 318 556 343 604 q 293 401 293 507 l 293 367 q 318 214 293 264 q 400 164 343 164 q 456 190 435 164 q 488 263 478 215 q 497 381 497 311 z "},"ÿ":{"ha":697,"x_min":3,"x_max":696,"o":"m 3 764 l 225 764 l 325 388 q 336 343 332 365 q 344 299 340 321 q 349 258 347 278 l 354 258 q 363 317 357 286 q 379 386 369 349 l 476 764 l 696 764 l 442 -65 q 373 -219 413 -160 q 281 -306 333 -279 q 156 -333 228 -333 q 104 -331 128 -333 q 60 -322 81 -328 l 60 -143 q 90 -149 74 -147 q 122 -151 106 -151 q 176 -139 156 -151 q 212 -97 196 -126 q 242 -19 228 -68 l 250 10 l 3 764 m 117 953 q 143 1027 117 1003 q 211 1051 169 1051 q 281 1026 254 1051 q 307 953 307 1001 q 281 881 307 907 q 211 856 254 856 q 143 881 169 856 q 117 953 117 906 m 388 953 q 414 1027 388 1003 q 483 1051 440 1051 q 553 1026 526 1051 q 579 953 579 1001 q 553 881 579 907 q 483 856 526 856 q 414 881 440 856 q 388 953 388 907 z "},"Ā":{"ha":828,"x_min":0,"x_max":828,"o":"m 592 0 l 542 217 l 288 217 l 238 0 l 0 0 l 269 993 l 554 993 l 828 0 l 592 0 m 453 633 q 439 701 446 665 q 426 772 432 738 q 414 833 419 806 q 404 772 411 807 q 390 702 397 738 q 376 636 383 667 l 325 403 l 504 403 l 453 633 m 625 1229 l 625 1082 l 204 1082 l 204 1229 l 625 1229 z "},"ā":{"ha":719,"x_min":43,"x_max":640,"o":"m 381 778 q 572 709 504 778 q 640 504 640 640 l 640 0 l 489 0 l 453 101 l 447 101 q 393 37 422 63 q 327 -1 364 11 q 239 -14 290 -14 q 130 19 174 -14 q 65 106 86 51 q 43 229 43 161 q 115 411 43 351 q 322 476 186 471 l 429 481 l 429 506 q 408 588 429 561 q 342 614 386 614 q 260 600 304 614 q 165 558 217 586 l 107 710 q 233 760 164 743 q 381 778 301 778 m 375 346 q 284 315 313 343 q 256 238 256 288 q 274 171 256 193 q 325 149 293 149 q 399 185 369 149 q 429 282 429 221 l 429 349 l 375 346 m 579 1001 l 579 854 l 158 854 l 158 1001 l 579 1001 z "},"Ă":{"ha":828,"x_min":0,"x_max":828,"o":"m 592 0 l 542 217 l 288 217 l 238 0 l 0 0 l 269 993 l 554 993 l 828 0 l 592 0 m 453 633 q 439 701 446 665 q 426 772 432 738 q 414 833 419 806 q 404 772 411 807 q 390 702 397 738 q 376 636 383 667 l 325 403 l 504 403 l 453 633 m 642 1308 q 610 1182 640 1236 q 530 1099 581 1128 q 413 1069 479 1069 q 249 1131 310 1069 q 186 1308 189 1193 l 308 1308 q 325 1252 313 1272 q 360 1223 338 1232 q 413 1214 382 1214 q 465 1223 442 1214 q 502 1252 488 1232 q 519 1308 517 1272 l 642 1308 z "},"ă":{"ha":719,"x_min":43,"x_max":640,"o":"m 381 778 q 572 709 504 778 q 640 504 640 640 l 640 0 l 489 0 l 453 101 l 447 101 q 393 37 422 63 q 327 -1 364 11 q 239 -14 290 -14 q 130 19 174 -14 q 65 106 86 51 q 43 229 43 161 q 115 411 43 351 q 322 476 186 471 l 429 481 l 429 506 q 408 588 429 561 q 342 614 386 614 q 260 600 304 614 q 165 558 217 586 l 107 710 q 233 760 164 743 q 381 778 301 778 m 375 346 q 284 315 313 343 q 256 238 256 288 q 274 171 256 193 q 325 149 293 149 q 399 185 369 149 q 429 282 429 221 l 429 349 l 375 346 m 596 1081 q 565 954 594 1008 q 484 871 535 900 q 367 842 433 842 q 203 903 264 842 q 140 1081 143 965 l 263 1081 q 279 1024 267 1044 q 314 995 292 1004 q 367 986 336 986 q 419 995 396 986 q 456 1024 442 1004 q 474 1081 471 1044 l 596 1081 z "},"Ą":{"ha":828,"x_min":0,"x_max":828,"o":"m 592 0 l 542 217 l 288 217 l 238 0 l 0 0 l 269 993 l 554 993 l 828 0 l 592 0 m 453 633 q 439 701 446 665 q 426 772 432 738 q 414 833 419 806 q 404 772 411 807 q 390 702 397 738 q 376 636 383 667 l 325 403 l 504 403 l 453 633 m 665 -139 q 681 -179 665 -164 q 722 -194 696 -194 q 756 -190 742 -194 q 782 -181 771 -186 l 782 -311 q 740 -324 765 -318 q 682 -331 714 -331 q 555 -290 599 -331 q 511 -179 511 -249 q 525 -111 511 -146 q 567 -42 539 -76 q 643 24 596 -8 l 744 0 q 683 -76 700 -46 q 665 -139 665 -107 z "},"ą":{"ha":719,"x_min":43,"x_max":657,"o":"m 381 778 q 572 709 504 778 q 640 504 640 640 l 640 0 l 489 0 l 453 101 l 447 101 q 393 37 422 63 q 327 -1 364 11 q 239 -14 290 -14 q 130 19 174 -14 q 65 106 86 51 q 43 229 43 161 q 115 411 43 351 q 322 476 186 471 l 429 481 l 429 506 q 408 588 429 561 q 342 614 386 614 q 260 600 304 614 q 165 558 217 586 l 107 710 q 233 760 164 743 q 381 778 301 778 m 375 346 q 284 315 313 343 q 256 238 256 288 q 274 171 256 193 q 325 149 293 149 q 399 185 369 149 q 429 282 429 221 l 429 349 l 375 346 m 540 -139 q 556 -179 540 -164 q 597 -194 571 -194 q 631 -190 617 -194 q 657 -181 646 -186 l 657 -311 q 615 -324 640 -318 q 557 -331 589 -331 q 430 -290 474 -331 q 386 -179 386 -249 q 400 -111 386 -146 q 442 -42 414 -76 q 518 24 471 -8 l 619 0 q 558 -76 575 -46 q 540 -139 540 -107 z "},"Ć":{"ha":749,"x_min":63,"x_max":711,"o":"m 469 819 q 392 797 426 819 q 335 730 358 774 q 301 626 313 686 q 290 493 290 567 q 311 317 290 389 q 374 210 332 246 q 479 174 417 174 q 579 190 531 174 q 678 231 628 206 l 678 39 q 570 -1 626 13 q 449 -14 514 -14 q 236 47 322 -14 q 106 221 150 107 q 63 494 63 335 q 89 700 63 607 q 166 862 115 793 q 290 968 217 931 q 458 1006 364 1006 q 587 990 524 1006 q 711 939 650 974 l 649 761 q 562 803 606 786 q 469 819 518 819 m 688 1278 q 646 1233 672 1260 q 589 1176 619 1206 q 527 1119 558 1147 q 471 1069 496 1092 l 322 1069 l 322 1088 q 369 1157 346 1122 q 413 1226 392 1192 q 451 1292 435 1261 l 688 1292 l 688 1278 z "},"ć":{"ha":622,"x_min":51,"x_max":606,"o":"m 368 -14 q 194 28 265 -14 q 88 157 124 69 q 51 378 51 244 q 88 590 51 500 q 198 728 125 679 q 376 778 271 778 q 493 763 442 778 q 589 724 544 749 l 529 558 q 458 590 493 579 q 388 600 424 600 q 322 575 349 600 q 280 501 294 550 q 265 379 265 451 q 280 258 265 307 q 322 186 294 210 q 390 163 350 163 q 482 179 438 163 q 569 226 526 196 l 569 49 q 478 1 528 17 q 368 -14 429 -14 m 604 1050 q 563 1005 589 1032 q 506 949 536 978 q 444 892 475 919 q 388 842 413 864 l 239 842 l 239 860 q 285 929 263 894 q 330 999 308 964 q 368 1064 351 1033 l 604 1064 l 604 1050 z "},"Ĉ":{"ha":749,"x_min":63,"x_max":711,"o":"m 469 819 q 392 797 426 819 q 335 730 358 774 q 301 626 313 686 q 290 493 290 567 q 311 317 290 389 q 374 210 332 246 q 479 174 417 174 q 579 190 531 174 q 678 231 628 206 l 678 39 q 570 -1 626 13 q 449 -14 514 -14 q 236 47 322 -14 q 106 221 150 107 q 63 494 63 335 q 89 700 63 607 q 166 862 115 793 q 290 968 217 931 q 458 1006 364 1006 q 587 990 524 1006 q 711 939 650 974 l 649 761 q 562 803 606 786 q 469 819 518 819 m 539 1292 q 581 1226 557 1261 q 631 1156 604 1192 q 683 1088 658 1121 l 683 1069 l 553 1069 q 497 1116 526 1089 q 436 1178 468 1143 q 376 1116 404 1143 q 324 1069 347 1089 l 190 1069 l 190 1088 q 240 1151 213 1114 q 294 1227 268 1189 q 335 1292 321 1265 l 539 1292 z "},"ĉ":{"ha":622,"x_min":51,"x_max":600,"o":"m 368 -14 q 194 28 265 -14 q 88 157 124 69 q 51 378 51 244 q 88 590 51 500 q 198 728 125 679 q 376 778 271 778 q 493 763 442 778 q 589 724 544 749 l 529 558 q 458 590 493 579 q 388 600 424 600 q 322 575 349 600 q 280 501 294 550 q 265 379 265 451 q 280 258 265 307 q 322 186 294 210 q 390 163 350 163 q 482 179 438 163 q 569 226 526 196 l 569 49 q 478 1 528 17 q 368 -14 429 -14 m 456 1064 q 497 999 474 1033 q 548 928 521 964 q 600 860 575 893 l 600 842 l 469 842 q 414 888 443 861 q 353 950 385 915 q 292 888 321 915 q 240 842 264 861 l 107 842 l 107 860 q 157 924 129 886 q 211 999 185 961 q 251 1064 238 1038 l 456 1064 z "},"Ċ":{"ha":749,"x_min":63,"x_max":711,"o":"m 469 819 q 392 797 426 819 q 335 730 358 774 q 301 626 313 686 q 290 493 290 567 q 311 317 290 389 q 374 210 332 246 q 479 174 417 174 q 579 190 531 174 q 678 231 628 206 l 678 39 q 570 -1 626 13 q 449 -14 514 -14 q 236 47 322 -14 q 106 221 150 107 q 63 494 63 335 q 89 700 63 607 q 166 862 115 793 q 290 968 217 931 q 458 1006 364 1006 q 587 990 524 1006 q 711 939 650 974 l 649 761 q 562 803 606 786 q 469 819 518 819 m 443 1294 q 526 1268 497 1294 q 556 1185 556 1242 q 526 1102 556 1128 q 443 1076 496 1076 q 360 1102 390 1076 q 329 1185 329 1128 q 358 1269 329 1243 q 443 1294 388 1294 z "},"ċ":{"ha":622,"x_min":51,"x_max":589,"o":"m 368 -14 q 194 28 265 -14 q 88 157 124 69 q 51 378 51 244 q 88 590 51 500 q 198 728 125 679 q 376 778 271 778 q 493 763 442 778 q 589 724 544 749 l 529 558 q 458 590 493 579 q 388 600 424 600 q 322 575 349 600 q 280 501 294 550 q 265 379 265 451 q 280 258 265 307 q 322 186 294 210 q 390 163 350 163 q 482 179 438 163 q 569 226 526 196 l 569 49 q 478 1 528 17 q 368 -14 429 -14 m 360 1067 q 443 1040 414 1067 q 472 957 472 1014 q 442 874 472 900 q 360 849 413 849 q 276 874 307 849 q 246 957 246 900 q 275 1041 246 1015 q 360 1067 304 1067 z "},"Č":{"ha":749,"x_min":63,"x_max":711,"o":"m 469 819 q 392 797 426 819 q 335 730 358 774 q 301 626 313 686 q 290 493 290 567 q 311 317 290 389 q 374 210 332 246 q 479 174 417 174 q 579 190 531 174 q 678 231 628 206 l 678 39 q 570 -1 626 13 q 449 -14 514 -14 q 236 47 322 -14 q 106 221 150 107 q 63 494 63 335 q 89 700 63 607 q 166 862 115 793 q 290 968 217 931 q 458 1006 364 1006 q 587 990 524 1006 q 711 939 650 974 l 649 761 q 562 803 606 786 q 469 819 518 819 m 335 1069 q 294 1135 321 1097 q 240 1211 268 1174 q 190 1274 213 1249 l 190 1292 l 324 1292 q 378 1244 350 1271 q 436 1183 407 1218 q 497 1245 468 1219 q 553 1292 525 1271 l 683 1292 l 683 1274 q 635 1210 663 1247 q 583 1136 608 1174 q 539 1069 557 1099 l 335 1069 z "},"č":{"ha":622,"x_min":51,"x_max":600,"o":"m 368 -14 q 194 28 265 -14 q 88 157 124 69 q 51 378 51 244 q 88 590 51 500 q 198 728 125 679 q 376 778 271 778 q 493 763 442 778 q 589 724 544 749 l 529 558 q 458 590 493 579 q 388 600 424 600 q 322 575 349 600 q 280 501 294 550 q 265 379 265 451 q 280 258 265 307 q 322 186 294 210 q 390 163 350 163 q 482 179 438 163 q 569 226 526 196 l 569 49 q 478 1 528 17 q 368 -14 429 -14 m 251 842 q 211 908 238 869 q 157 983 185 946 q 107 1046 129 1021 l 107 1064 l 240 1064 q 295 1017 267 1043 q 353 956 324 990 q 413 1017 385 992 q 469 1064 442 1043 l 600 1064 l 600 1046 q 552 983 579 1019 q 499 908 525 946 q 456 842 474 871 l 251 842 z "},"Ď":{"ha":864,"x_min":94,"x_max":800,"o":"m 800 514 q 747 233 800 347 q 595 59 694 118 q 356 0 496 0 l 94 0 l 94 992 l 374 992 q 605 937 510 992 q 750 776 700 882 q 800 514 800 669 m 574 506 q 551 676 574 610 q 485 774 529 743 q 374 806 440 806 l 314 806 l 314 188 l 358 188 q 522 265 469 188 q 574 506 574 343 m 326 1069 q 286 1135 313 1097 q 232 1211 260 1174 q 182 1274 204 1249 l 182 1292 l 315 1292 q 370 1244 342 1271 q 428 1183 399 1218 q 488 1245 460 1219 q 544 1292 517 1271 l 675 1292 l 675 1274 q 627 1210 654 1247 q 574 1136 600 1174 q 531 1069 549 1099 l 326 1069 z "},"ď":{"ha":763,"x_min":51,"x_max":957,"o":"m 957 1040 q 931 971 946 1007 q 899 901 917 935 q 861 833 882 867 l 726 833 l 726 851 q 735 896 731 869 q 744 951 740 922 q 752 1007 749 979 q 757 1056 756 1035 l 957 1056 l 957 1040 m 294 -14 q 116 90 181 -14 q 51 382 51 194 q 116 674 51 571 q 292 778 181 778 q 366 765 333 778 q 425 727 399 751 q 471 665 451 703 l 478 665 q 472 744 475 707 q 469 811 469 782 l 469 1056 l 681 1056 l 681 0 l 514 0 l 481 85 l 469 85 q 423 31 447 53 q 367 -3 399 8 q 294 -14 336 -14 m 365 160 q 449 208 424 160 q 475 361 475 257 l 475 397 q 450 549 475 500 q 365 599 425 599 q 291 544 317 599 q 265 383 265 490 q 292 215 265 269 q 365 160 318 160 z "},"Đ":{"ha":864,"x_min":13,"x_max":800,"o":"m 374 992 q 605 937 510 992 q 750 776 700 882 q 800 514 800 669 q 747 233 800 347 q 596 59 694 118 q 356 0 497 0 l 94 0 l 94 422 l 13 422 l 13 590 l 94 590 l 94 992 l 374 992 m 374 806 l 314 806 l 314 590 l 432 590 l 432 422 l 314 422 l 314 188 l 358 188 q 522 265 469 188 q 574 506 574 343 q 551 676 574 610 q 484 774 528 742 q 374 806 440 806 z "},"đ":{"ha":769,"x_min":51,"x_max":771,"o":"m 293 -14 q 115 87 179 -14 q 51 365 51 188 q 117 644 51 546 q 293 742 182 742 q 367 729 333 742 q 426 692 400 717 q 472 631 453 667 l 479 631 q 473 709 476 671 q 469 778 469 747 l 469 806 l 331 806 l 331 950 l 469 950 l 469 1056 l 681 1056 l 681 950 l 771 950 l 771 806 l 681 806 l 681 0 l 513 0 l 478 85 l 467 85 q 420 31 444 53 q 365 -3 396 8 q 293 -14 335 -14 m 367 160 q 449 205 424 160 q 475 346 475 250 l 475 379 q 449 518 475 472 q 367 564 424 564 q 294 515 319 564 q 268 365 268 465 q 294 212 268 264 q 367 160 319 160 z "},"Ē":{"ha":654,"x_min":94,"x_max":592,"o":"m 592 0 l 94 0 l 94 992 l 592 992 l 592 808 l 314 808 l 314 606 l 571 606 l 571 422 l 314 422 l 314 186 l 592 186 l 592 0 m 554 1229 l 554 1082 l 133 1082 l 133 1229 l 554 1229 z "},"ē":{"ha":707,"x_min":51,"x_max":660,"o":"m 361 776 q 523 735 456 776 q 625 617 590 694 q 660 429 660 540 l 660 321 l 261 321 q 300 193 263 236 q 411 150 338 150 q 517 164 468 150 q 621 208 567 178 l 621 40 q 514 -1 571 13 q 385 -14 457 -14 q 201 31 275 -14 q 89 164 126 76 q 51 378 51 251 q 88 597 51 508 q 193 731 124 685 q 361 776 263 776 m 367 618 q 294 583 322 618 q 263 467 265 547 l 465 467 q 453 549 465 515 q 420 600 442 582 q 367 618 399 618 m 569 1001 l 569 854 l 149 854 l 149 1001 l 569 1001 z "},"Ĕ":{"ha":654,"x_min":94,"x_max":592,"o":"m 592 0 l 94 0 l 94 992 l 592 992 l 592 808 l 314 808 l 314 606 l 571 606 l 571 422 l 314 422 l 314 186 l 592 186 l 592 0 m 571 1308 q 540 1182 569 1236 q 459 1099 510 1128 q 342 1069 408 1069 q 178 1131 239 1069 q 115 1308 118 1193 l 238 1308 q 254 1252 242 1272 q 289 1223 267 1232 q 342 1214 311 1214 q 394 1223 371 1214 q 431 1252 417 1232 q 449 1308 446 1272 l 571 1308 z "},"ĕ":{"ha":707,"x_min":51,"x_max":660,"o":"m 361 776 q 523 735 456 776 q 625 617 590 694 q 660 429 660 540 l 660 321 l 261 321 q 300 193 263 236 q 411 150 338 150 q 517 164 468 150 q 621 208 567 178 l 621 40 q 514 -1 571 13 q 385 -14 457 -14 q 201 31 275 -14 q 89 164 126 76 q 51 378 51 251 q 88 597 51 508 q 193 731 124 685 q 361 776 263 776 m 367 618 q 294 583 322 618 q 263 467 265 547 l 465 467 q 453 549 465 515 q 420 600 442 582 q 367 618 399 618 m 585 1081 q 553 954 583 1008 q 473 871 524 900 q 356 842 422 842 q 192 903 253 842 q 129 1081 132 965 l 251 1081 q 268 1024 256 1044 q 303 995 281 1004 q 356 986 325 986 q 408 995 385 986 q 445 1024 431 1004 q 463 1081 460 1044 l 585 1081 z "},"Ė":{"ha":654,"x_min":94,"x_max":592,"o":"m 592 0 l 94 0 l 94 992 l 592 992 l 592 808 l 314 808 l 314 606 l 571 606 l 571 422 l 314 422 l 314 186 l 592 186 l 592 0 m 350 1294 q 433 1268 404 1294 q 463 1185 463 1242 q 433 1102 463 1128 q 350 1076 403 1076 q 267 1102 297 1076 q 236 1185 236 1128 q 265 1269 236 1243 q 350 1294 294 1294 z "},"ė":{"ha":707,"x_min":51,"x_max":660,"o":"m 361 776 q 523 735 456 776 q 625 617 590 694 q 660 429 660 540 l 660 321 l 261 321 q 300 193 263 236 q 411 150 338 150 q 517 164 468 150 q 621 208 567 178 l 621 40 q 514 -1 571 13 q 385 -14 457 -14 q 201 31 275 -14 q 89 164 126 76 q 51 378 51 251 q 88 597 51 508 q 193 731 124 685 q 361 776 263 776 m 367 618 q 294 583 322 618 q 263 467 265 547 l 465 467 q 453 549 465 515 q 420 600 442 582 q 367 618 399 618 m 364 1067 q 447 1040 418 1067 q 476 957 476 1014 q 447 874 476 900 q 364 849 417 849 q 281 874 311 849 q 250 957 250 900 q 279 1041 250 1015 q 364 1067 308 1067 z "},"Ę":{"ha":654,"x_min":94,"x_max":596,"o":"m 592 0 l 94 0 l 94 992 l 592 992 l 592 808 l 314 808 l 314 606 l 571 606 l 571 422 l 314 422 l 314 186 l 592 186 l 592 0 m 478 -139 q 493 -179 478 -164 q 535 -194 508 -194 q 569 -190 554 -194 q 594 -181 583 -186 l 594 -311 q 552 -324 578 -318 q 494 -331 526 -331 q 367 -290 411 -331 q 324 -179 324 -249 q 338 -111 324 -146 q 380 -42 351 -76 q 456 24 408 -8 l 557 0 q 495 -76 513 -46 q 478 -139 478 -107 z "},"ę":{"ha":707,"x_min":51,"x_max":660,"o":"m 506 -140 q 520 -179 506 -167 q 557 -192 535 -192 q 594 -187 574 -192 q 625 -178 614 -183 l 625 -312 q 573 -325 601 -321 q 515 -329 544 -329 q 392 -288 433 -329 q 350 -178 350 -247 q 363 -112 350 -143 q 403 -50 376 -81 q 471 10 431 -19 l 621 40 q 550 -36 575 -3 q 515 -94 525 -69 q 506 -140 506 -119 m 361 776 q 523 735 456 776 q 625 617 590 694 q 660 429 660 540 l 660 321 l 261 321 q 300 193 263 236 q 411 150 338 150 q 517 164 468 150 q 621 208 567 178 l 621 40 q 514 -1 571 13 q 385 -14 457 -14 q 201 31 275 -14 q 89 164 126 76 q 51 378 51 251 q 88 597 51 508 q 193 731 124 685 q 361 776 263 776 m 367 618 q 294 583 322 618 q 263 467 265 547 l 465 467 q 453 549 465 515 q 420 600 442 582 q 367 618 399 618 z "},"Ě":{"ha":654,"x_min":94,"x_max":592,"o":"m 592 0 l 94 0 l 94 992 l 592 992 l 592 808 l 314 808 l 314 606 l 571 606 l 571 422 l 314 422 l 314 186 l 592 186 l 592 0 m 242 1069 q 201 1135 228 1097 q 147 1211 175 1174 q 97 1274 119 1249 l 97 1292 l 231 1292 q 285 1244 257 1271 q 343 1183 314 1218 q 403 1245 375 1219 q 460 1292 432 1271 l 590 1292 l 590 1274 q 542 1210 569 1247 q 490 1136 515 1174 q 446 1069 464 1099 l 242 1069 z "},"ě":{"ha":707,"x_min":51,"x_max":660,"o":"m 361 776 q 523 735 456 776 q 625 617 590 694 q 660 429 660 540 l 660 321 l 261 321 q 300 193 263 236 q 411 150 338 150 q 517 164 468 150 q 621 208 567 178 l 621 40 q 514 -1 571 13 q 385 -14 457 -14 q 201 31 275 -14 q 89 164 126 76 q 51 378 51 251 q 88 597 51 508 q 193 731 124 685 q 361 776 263 776 m 367 618 q 294 583 322 618 q 263 467 265 547 l 465 467 q 453 549 465 515 q 420 600 442 582 q 367 618 399 618 m 256 842 q 215 908 242 869 q 161 983 189 946 q 111 1046 133 1021 l 111 1064 l 244 1064 q 299 1017 271 1043 q 357 956 328 990 q 417 1017 389 992 q 474 1064 446 1043 l 604 1064 l 604 1046 q 556 983 583 1019 q 503 908 529 946 q 460 842 478 871 l 256 842 z "},"Ĝ":{"ha":871,"x_min":63,"x_max":792,"o":"m 440 568 l 792 568 l 792 44 q 636 1 717 15 q 467 -14 556 -14 q 247 46 338 -14 q 110 220 157 106 q 63 499 63 335 q 115 769 63 656 q 267 944 167 882 q 510 1006 367 1006 q 658 988 589 1006 q 778 943 726 971 l 714 765 q 619 806 669 792 q 515 819 569 819 q 391 781 442 819 q 315 668 340 742 q 290 493 290 594 q 311 322 290 393 q 374 212 332 250 q 482 174 417 174 q 533 177 508 174 q 579 186 557 181 l 579 388 l 440 388 l 440 568 m 585 1292 q 626 1226 603 1261 q 677 1156 650 1192 q 729 1088 704 1121 l 729 1069 l 599 1069 q 543 1116 572 1089 q 482 1178 514 1143 q 422 1116 450 1143 q 369 1069 393 1089 l 236 1069 l 236 1088 q 286 1151 258 1114 q 340 1227 314 1189 q 381 1292 367 1265 l 585 1292 z "},"ĝ":{"ha":763,"x_min":51,"x_max":681,"o":"m 296 778 q 399 751 357 778 q 472 667 440 725 l 482 667 l 499 764 l 681 764 l 681 36 q 643 -165 681 -83 q 527 -290 606 -247 q 326 -333 449 -333 q 197 -321 254 -333 q 88 -282 140 -308 l 88 -101 q 205 -146 149 -132 q 321 -160 261 -160 q 431 -126 392 -160 q 469 -17 469 -93 l 469 -4 q 472 47 469 18 q 476 100 474 76 l 469 100 q 396 14 439 42 q 290 -14 353 -14 q 115 90 179 -14 q 51 378 51 193 q 117 672 51 567 q 296 778 182 778 m 364 600 q 310 575 332 600 q 276 500 288 550 q 265 375 265 450 q 290 215 265 267 q 367 163 315 163 q 415 174 394 163 q 449 208 436 185 q 469 267 463 232 q 475 353 475 303 l 475 389 q 464 509 475 463 q 428 578 453 556 q 364 600 404 600 m 490 1064 q 532 999 508 1033 q 583 928 556 964 q 635 860 610 893 l 635 842 l 504 842 q 449 888 478 861 q 388 950 419 915 q 327 888 356 915 q 275 842 299 861 l 142 842 l 142 860 q 192 924 164 886 q 246 999 219 961 q 286 1064 272 1038 l 490 1064 z "},"Ğ":{"ha":871,"x_min":63,"x_max":792,"o":"m 440 568 l 792 568 l 792 44 q 636 1 717 15 q 467 -14 556 -14 q 247 46 338 -14 q 110 220 157 106 q 63 499 63 335 q 115 769 63 656 q 267 944 167 882 q 510 1006 367 1006 q 658 988 589 1006 q 778 943 726 971 l 714 765 q 619 806 669 792 q 515 819 569 819 q 391 781 442 819 q 315 668 340 742 q 290 493 290 594 q 311 322 290 393 q 374 212 332 250 q 482 174 417 174 q 533 177 508 174 q 579 186 557 181 l 579 388 l 440 388 l 440 568 m 710 1308 q 678 1182 708 1236 q 598 1099 649 1128 q 481 1069 547 1069 q 317 1131 378 1069 q 254 1308 257 1193 l 376 1308 q 393 1252 381 1272 q 428 1223 406 1232 q 481 1214 450 1214 q 533 1223 510 1214 q 570 1252 556 1232 q 588 1308 585 1272 l 710 1308 z "},"ğ":{"ha":763,"x_min":51,"x_max":681,"o":"m 296 778 q 399 751 357 778 q 472 667 440 725 l 482 667 l 499 764 l 681 764 l 681 36 q 643 -165 681 -83 q 527 -290 606 -247 q 326 -333 449 -333 q 197 -321 254 -333 q 88 -282 140 -308 l 88 -101 q 205 -146 149 -132 q 321 -160 261 -160 q 431 -126 392 -160 q 469 -17 469 -93 l 469 -4 q 472 47 469 18 q 476 100 474 76 l 469 100 q 396 14 439 42 q 290 -14 353 -14 q 115 90 179 -14 q 51 378 51 193 q 117 672 51 567 q 296 778 182 778 m 364 600 q 310 575 332 600 q 276 500 288 550 q 265 375 265 450 q 290 215 265 267 q 367 163 315 163 q 415 174 394 163 q 449 208 436 185 q 469 267 463 232 q 475 353 475 303 l 475 389 q 464 509 475 463 q 428 578 453 556 q 364 600 404 600 m 615 1081 q 584 954 614 1008 q 503 871 554 900 q 386 842 453 842 q 223 903 283 842 q 160 1081 163 965 l 282 1081 q 299 1024 286 1044 q 333 995 311 1004 q 386 986 356 986 q 438 995 415 986 q 476 1024 461 1004 q 493 1081 490 1044 l 615 1081 z "},"Ġ":{"ha":871,"x_min":63,"x_max":792,"o":"m 440 568 l 792 568 l 792 44 q 636 1 717 15 q 467 -14 556 -14 q 247 46 338 -14 q 110 220 157 106 q 63 499 63 335 q 115 769 63 656 q 267 944 167 882 q 510 1006 367 1006 q 658 988 589 1006 q 778 943 726 971 l 714 765 q 619 806 669 792 q 515 819 569 819 q 391 781 442 819 q 315 668 340 742 q 290 493 290 594 q 311 322 290 393 q 374 212 332 250 q 482 174 417 174 q 533 177 508 174 q 579 186 557 181 l 579 388 l 440 388 l 440 568 m 489 1294 q 572 1268 543 1294 q 601 1185 601 1242 q 572 1102 601 1128 q 489 1076 542 1076 q 406 1102 436 1076 q 375 1185 375 1128 q 404 1269 375 1243 q 489 1294 433 1294 z "},"ġ":{"ha":763,"x_min":51,"x_max":681,"o":"m 296 778 q 399 751 357 778 q 472 667 440 725 l 482 667 l 499 764 l 681 764 l 681 36 q 643 -165 681 -83 q 527 -290 606 -247 q 326 -333 449 -333 q 197 -321 254 -333 q 88 -282 140 -308 l 88 -101 q 205 -146 149 -132 q 321 -160 261 -160 q 431 -126 392 -160 q 469 -17 469 -93 l 469 -4 q 472 47 469 18 q 476 100 474 76 l 469 100 q 396 14 439 42 q 290 -14 353 -14 q 115 90 179 -14 q 51 378 51 193 q 117 672 51 567 q 296 778 182 778 m 364 600 q 310 575 332 600 q 276 500 288 550 q 265 375 265 450 q 290 215 265 267 q 367 163 315 163 q 415 174 394 163 q 449 208 436 185 q 469 267 463 232 q 475 353 475 303 l 475 389 q 464 509 475 463 q 428 578 453 556 q 364 600 404 600 m 394 1067 q 478 1040 449 1067 q 507 957 507 1014 q 477 874 507 900 q 394 849 447 849 q 311 874 342 849 q 281 957 281 900 q 310 1041 281 1015 q 394 1067 339 1067 z "},"Ģ":{"ha":871,"x_min":63,"x_max":792,"o":"m 440 568 l 792 568 l 792 44 q 636 1 717 15 q 467 -14 556 -14 q 247 46 338 -14 q 110 220 157 106 q 63 499 63 335 q 115 769 63 656 q 267 944 167 882 q 510 1006 367 1006 q 658 988 589 1006 q 778 943 726 971 l 714 765 q 619 806 669 792 q 515 819 569 819 q 391 781 442 819 q 315 668 340 742 q 290 493 290 594 q 311 322 290 393 q 374 212 332 250 q 482 174 417 174 q 533 177 508 174 q 579 186 557 181 l 579 388 l 440 388 l 440 568 m 589 -100 q 563 -170 578 -135 q 530 -240 547 -206 q 492 -307 513 -274 l 358 -307 l 358 -289 q 372 -226 365 -264 q 383 -151 378 -189 q 389 -85 388 -112 l 589 -85 l 589 -100 z "},"ģ":{"ha":763,"x_min":51,"x_max":681,"o":"m 490 1046 q 476 974 483 1010 q 465 903 469 938 q 458 842 460 869 l 258 842 l 258 857 q 285 925 271 890 q 317 995 299 960 q 356 1064 335 1031 l 490 1064 l 490 1046 m 296 778 q 399 751 357 778 q 472 667 440 725 l 482 667 l 499 764 l 681 764 l 681 36 q 643 -165 681 -83 q 527 -290 606 -247 q 326 -333 449 -333 q 197 -321 254 -333 q 88 -282 140 -308 l 88 -101 q 205 -146 149 -132 q 321 -160 261 -160 q 431 -126 392 -160 q 469 -17 469 -93 l 469 -4 q 472 47 469 18 q 476 100 474 76 l 469 100 q 396 14 439 42 q 290 -14 353 -14 q 115 90 179 -14 q 51 378 51 193 q 117 672 51 567 q 296 778 182 778 m 364 600 q 310 575 332 600 q 276 500 288 550 q 265 375 265 450 q 290 215 265 267 q 367 163 315 163 q 415 174 394 163 q 449 208 436 185 q 469 267 463 232 q 475 353 475 303 l 475 389 q 464 509 475 463 q 428 578 453 556 q 364 600 404 600 z "},"Ĥ":{"ha":896,"x_min":94,"x_max":800,"o":"m 800 0 l 581 0 l 581 422 l 314 422 l 314 0 l 94 0 l 94 992 l 314 992 l 314 608 l 581 608 l 581 992 l 800 992 l 800 0 m 550 1292 q 592 1226 568 1261 q 642 1156 615 1192 q 694 1088 669 1121 l 694 1069 l 564 1069 q 508 1116 538 1089 q 447 1178 479 1143 q 387 1116 415 1143 q 335 1069 358 1089 l 201 1069 l 201 1088 q 251 1151 224 1114 q 306 1227 279 1189 q 346 1292 332 1265 l 550 1292 z "},"ĥ":{"ha":776,"x_min":-58,"x_max":696,"o":"m 293 849 q 289 751 293 799 q 279 668 285 704 l 290 668 q 335 729 308 704 q 395 766 361 754 q 471 778 429 778 q 591 746 540 778 q 669 653 642 714 q 696 500 696 592 l 696 0 l 485 0 l 485 438 q 466 557 485 518 q 406 596 447 596 q 337 569 361 596 q 303 490 313 543 q 293 356 293 436 l 293 0 l 82 0 l 82 1056 l 293 1056 l 293 849 m 290 1356 q 332 1290 308 1325 q 383 1220 356 1256 q 435 1151 410 1185 l 435 1133 l 304 1133 q 249 1180 278 1153 q 188 1242 219 1207 q 127 1180 156 1207 q 75 1133 99 1153 l -58 1133 l -58 1151 q -8 1215 -36 1178 q 46 1291 19 1253 q 86 1356 72 1329 l 290 1356 z "},"Ħ":{"ha":899,"x_min":-4,"x_max":903,"o":"m 97 0 l 97 726 l -4 726 l -4 869 l 97 869 l 97 992 l 315 992 l 315 869 l 583 869 l 583 992 l 803 992 l 803 869 l 903 869 l 903 726 l 803 726 l 803 0 l 583 0 l 583 422 l 315 422 l 315 0 l 97 0 m 315 608 l 583 608 l 583 726 l 315 726 l 315 608 z "},"ħ":{"ha":778,"x_min":-4,"x_max":697,"o":"m 296 1056 l 296 950 l 443 950 l 443 806 l 294 806 l 294 778 q 291 708 294 747 q 281 632 288 669 l 293 632 q 337 694 311 669 q 397 730 363 718 q 472 742 432 742 q 593 710 543 742 q 670 618 643 679 q 697 465 697 557 l 697 0 l 486 0 l 486 403 q 467 522 486 483 q 407 561 449 561 q 340 537 365 561 q 305 460 315 513 q 294 319 294 407 l 294 0 l 83 0 l 83 806 l -4 806 l -4 950 l 83 950 l 83 1056 l 296 1056 z "},"Ĩ":{"ha":501,"x_min":3,"x_max":500,"o":"m 461 0 l 40 0 l 40 119 l 142 165 l 142 826 l 40 872 l 40 992 l 461 992 l 461 872 l 361 826 l 361 165 l 461 119 l 461 0 m 3 1068 q 12 1146 4 1107 q 35 1217 19 1185 q 77 1267 51 1249 q 142 1286 103 1286 q 196 1276 169 1286 q 247 1253 222 1267 q 297 1228 272 1239 q 344 1218 321 1218 q 374 1235 363 1218 q 392 1288 385 1253 l 500 1288 q 457 1124 497 1178 q 360 1069 417 1069 q 306 1079 333 1069 q 251 1103 278 1089 q 201 1127 225 1117 q 158 1138 178 1138 q 130 1122 144 1138 q 111 1068 115 1106 l 3 1068 z "},"ĩ":{"ha":378,"x_min":-60,"x_max":438,"o":"m 294 0 l 83 0 l 83 764 l 294 764 l 294 0 m -60 840 q -51 918 -58 879 q -27 989 -43 957 q 15 1040 -11 1021 q 79 1058 40 1058 q 133 1049 107 1058 q 185 1025 160 1039 q 234 1001 210 1011 q 282 990 258 990 q 311 1008 300 990 q 329 1060 322 1025 l 438 1060 q 394 896 435 950 q 297 842 354 842 q 243 851 271 842 q 189 875 215 861 q 139 899 163 889 q 96 910 115 910 q 67 894 82 910 q 49 840 53 878 l -60 840 z "},"Ī":{"ha":501,"x_min":40,"x_max":461,"o":"m 461 0 l 40 0 l 40 119 l 142 165 l 142 826 l 40 872 l 40 992 l 461 992 l 461 872 l 361 826 l 361 165 l 461 119 l 461 0 m 461 1229 l 461 1082 l 40 1082 l 40 1229 l 461 1229 z "},"ī":{"ha":378,"x_min":-22,"x_max":399,"o":"m 294 0 l 83 0 l 83 764 l 294 764 l 294 0 m 399 1001 l 399 854 l -22 854 l -22 1001 l 399 1001 z "},"Ĭ":{"ha":501,"x_min":22,"x_max":479,"o":"m 461 0 l 40 0 l 40 119 l 142 165 l 142 826 l 40 872 l 40 992 l 461 992 l 461 872 l 361 826 l 361 165 l 461 119 l 461 0 m 478 1308 q 447 1182 476 1236 q 366 1099 417 1128 q 249 1069 315 1069 q 85 1131 146 1069 q 22 1308 25 1193 l 144 1308 q 161 1252 149 1272 q 196 1223 174 1232 q 249 1214 218 1214 q 301 1223 278 1214 q 338 1252 324 1232 q 356 1308 353 1272 l 478 1308 z "},"ĭ":{"ha":378,"x_min":-40,"x_max":415,"o":"m 294 0 l 83 0 l 83 764 l 294 764 l 294 0 m 415 1081 q 384 954 414 1008 q 303 871 354 900 q 186 842 253 842 q 23 903 83 842 q -40 1081 -37 965 l 82 1081 q 99 1024 86 1044 q 133 995 111 1004 q 186 986 156 986 q 238 995 215 986 q 276 1024 261 1004 q 293 1081 290 1044 l 415 1081 z "},"Į":{"ha":501,"x_min":40,"x_max":461,"o":"m 461 0 l 40 0 l 40 119 l 142 165 l 142 826 l 40 872 l 40 992 l 461 992 l 461 872 l 361 826 l 361 165 l 461 119 l 461 0 m 342 -139 q 357 -179 342 -164 q 399 -194 372 -194 q 433 -190 418 -194 q 458 -181 447 -186 l 458 -311 q 416 -324 442 -318 q 358 -331 390 -331 q 231 -290 275 -331 q 188 -179 188 -249 q 201 -111 188 -146 q 244 -42 215 -76 q 319 24 272 -8 l 421 0 q 359 -76 376 -46 q 342 -139 342 -107 z "},"į":{"ha":378,"x_min":32,"x_max":303,"o":"m 294 764 l 294 0 l 83 0 l 83 764 l 294 764 m 189 1067 q 273 1040 243 1067 q 303 957 303 1014 q 272 874 303 900 q 189 849 242 849 q 106 874 136 849 q 75 957 75 900 q 104 1041 75 1015 q 189 1067 133 1067 m 186 -139 q 201 -179 186 -164 q 243 -194 217 -194 q 277 -190 263 -194 q 303 -181 292 -186 l 303 -311 q 260 -324 286 -318 q 203 -331 235 -331 q 76 -290 119 -331 q 32 -179 32 -249 q 46 -111 32 -146 q 88 -42 60 -76 q 164 24 117 -8 l 265 0 q 203 -76 221 -46 q 186 -139 186 -107 z "},"İ":{"ha":501,"x_min":40,"x_max":461,"o":"m 461 0 l 40 0 l 40 119 l 142 165 l 142 826 l 40 872 l 40 992 l 461 992 l 461 872 l 361 826 l 361 165 l 461 119 l 461 0 m 257 1294 q 340 1268 311 1294 q 369 1185 369 1242 q 340 1102 369 1128 q 257 1076 310 1076 q 174 1102 204 1076 q 143 1185 143 1128 q 172 1269 143 1243 q 257 1294 201 1294 z "},"Ĳ":{"ha":908,"x_min":40,"x_max":814,"o":"m 461 0 l 40 0 l 40 119 l 142 165 l 142 826 l 40 872 l 40 992 l 461 992 l 461 872 l 361 826 l 361 165 l 461 119 l 461 0 m 525 -301 q 463 -298 492 -301 q 408 -287 433 -294 l 408 -104 q 447 -114 426 -110 q 492 -118 468 -118 q 551 -102 529 -118 q 584 -47 574 -86 q 594 57 594 -8 l 594 992 l 813 992 l 813 65 q 778 -153 813 -72 q 680 -267 744 -233 q 525 -301 615 -301 z "},"ĳ":{"ha":756,"x_min":75,"x_max":679,"o":"m 294 764 l 294 0 l 83 0 l 83 764 l 294 764 m 189 1067 q 273 1040 243 1067 q 303 957 303 1014 q 272 874 303 900 q 189 849 242 849 q 106 874 136 849 q 75 957 75 900 q 104 1041 75 1015 q 189 1067 133 1067 m 438 -333 q 378 -329 410 -333 q 322 -317 347 -325 l 322 -142 q 357 -151 340 -147 q 390 -154 374 -154 q 442 -130 424 -154 q 461 -51 461 -106 l 461 764 l 672 764 l 672 -74 q 646 -215 672 -157 q 567 -302 619 -272 q 438 -333 515 -332 m 453 957 q 482 1041 453 1015 q 567 1067 511 1067 q 651 1040 621 1067 q 681 957 681 1014 q 650 874 681 900 q 567 849 619 849 q 483 874 514 849 q 453 957 453 900 z "},"Ĵ":{"ha":410,"x_min":-89,"x_max":453,"o":"m 28 -301 q -35 -298 -6 -301 q -89 -287 -64 -294 l -89 -104 q -50 -114 -71 -110 q -6 -118 -29 -118 q 54 -102 32 -118 q 87 -47 76 -86 q 97 57 97 -8 l 97 992 l 315 992 l 315 65 q 281 -153 315 -72 q 183 -267 247 -233 q 28 -301 118 -301 m 308 1292 q 350 1226 326 1261 q 401 1156 374 1192 q 453 1088 428 1121 l 453 1069 l 322 1069 q 267 1116 296 1089 q 206 1178 238 1143 q 145 1116 174 1143 q 93 1069 117 1089 l -40 1069 l -40 1088 q 10 1151 -18 1114 q 64 1227 38 1189 q 104 1292 90 1265 l 308 1292 z "},"ĵ":{"ha":378,"x_min":-58,"x_max":435,"o":"m 60 -333 q -1 -328 33 -333 q -56 -317 -36 -324 l -56 -142 q -21 -151 -37 -147 q 13 -154 -4 -154 q 65 -131 46 -154 q 83 -56 83 -108 l 83 764 l 294 764 l 294 -74 q 269 -209 294 -150 q 191 -301 243 -268 q 60 -333 139 -333 m 290 1064 q 332 999 308 1033 q 383 928 356 964 q 435 860 410 893 l 435 842 l 304 842 q 249 888 278 861 q 188 950 219 915 q 127 888 156 915 q 75 842 99 861 l -58 842 l -58 860 q -8 924 -36 886 q 46 999 19 961 q 86 1064 72 1038 l 290 1064 z "},"Ķ":{"ha":796,"x_min":94,"x_max":804,"o":"m 804 0 l 560 0 l 381 392 l 314 342 l 314 0 l 94 0 l 94 992 l 314 992 l 314 547 q 341 608 325 576 q 378 675 357 639 l 567 992 l 804 992 l 538 549 l 804 0 m 543 -100 q 517 -170 532 -135 q 484 -240 501 -206 q 446 -307 467 -274 l 313 -307 l 313 -289 q 326 -226 319 -264 q 337 -151 332 -189 q 343 -85 342 -112 l 543 -85 l 543 -100 z "},"ķ":{"ha":747,"x_min":82,"x_max":750,"o":"m 293 613 q 291 516 293 565 q 283 419 289 467 l 288 419 q 308 460 297 440 q 331 497 319 479 q 353 531 343 515 l 508 764 l 739 764 l 513 442 l 750 0 l 515 0 l 367 296 l 293 232 l 293 0 l 82 0 l 82 1056 l 293 1056 l 293 613 m 503 -100 q 476 -170 492 -135 q 444 -240 461 -206 q 406 -307 426 -274 l 272 -307 l 272 -289 q 285 -226 279 -264 q 297 -151 292 -189 q 303 -85 301 -112 l 503 -85 l 503 -100 z "},"ĸ":{"ha":747,"x_min":82,"x_max":750,"o":"m 739 764 l 513 438 l 750 0 l 517 0 l 368 293 l 293 229 l 293 0 l 82 0 l 82 764 l 293 764 l 293 604 q 292 508 293 554 q 285 418 290 461 l 290 418 q 322 474 306 446 q 354 525 338 501 l 511 764 l 739 764 z "},"Ĺ":{"ha":643,"x_min":92,"x_max":615,"o":"m 94 0 l 94 992 l 314 992 l 314 186 l 615 186 l 615 0 l 94 0 m 457 1278 q 415 1233 442 1260 q 358 1176 389 1206 q 297 1119 328 1147 q 240 1069 265 1092 l 92 1069 l 92 1088 q 138 1157 115 1122 q 183 1226 161 1192 q 221 1292 204 1261 l 457 1292 l 457 1278 z "},"ĺ":{"ha":375,"x_min":75,"x_max":440,"o":"m 293 0 l 82 0 l 82 1056 l 293 1056 l 293 0 m 440 1342 q 399 1297 425 1324 q 342 1240 372 1269 q 280 1183 311 1211 q 224 1133 249 1156 l 75 1133 l 75 1151 q 122 1221 99 1186 q 166 1290 144 1256 q 204 1356 188 1325 l 440 1356 l 440 1342 z "},"Ļ":{"ha":643,"x_min":94,"x_max":615,"o":"m 94 0 l 94 992 l 314 992 l 314 186 l 615 186 l 615 0 l 94 0 m 471 -100 q 444 -170 460 -135 q 412 -240 429 -206 q 374 -307 394 -274 l 240 -307 l 240 -289 q 253 -226 247 -264 q 265 -151 260 -189 q 271 -85 269 -112 l 471 -85 l 471 -100 z "},"ļ":{"ha":375,"x_min":74,"x_max":304,"o":"m 293 0 l 82 0 l 82 1056 l 293 1056 l 293 0 m 304 -100 q 278 -170 293 -135 q 245 -240 263 -206 q 207 -307 228 -274 l 74 -307 l 74 -289 q 87 -226 81 -264 q 98 -151 93 -189 q 104 -85 103 -112 l 304 -85 l 304 -100 z "},"Ľ":{"ha":643,"x_min":94,"x_max":674,"o":"m 674 976 q 648 906 663 942 q 616 836 633 871 q 578 769 599 801 l 443 769 l 443 788 q 452 831 447 806 q 461 886 457 857 q 469 943 465 915 q 474 992 472 971 l 674 992 l 674 976 m 94 0 l 94 992 l 314 992 l 314 186 l 615 186 l 615 0 l 94 0 z "},"ľ":{"ha":375,"x_min":82,"x_max":568,"o":"m 568 1040 q 542 971 557 1007 q 509 901 526 935 q 471 833 492 867 l 338 833 l 338 851 q 346 896 342 869 q 355 951 350 922 q 363 1007 360 979 q 368 1056 367 1035 l 568 1056 l 568 1040 m 293 0 l 82 0 l 82 1056 l 293 1056 l 293 0 z "},"Ŀ":{"ha":643,"x_min":94,"x_max":640,"o":"m 94 0 l 94 992 l 314 992 l 314 186 l 615 186 l 615 0 l 94 0 m 528 654 q 611 628 582 654 q 640 544 640 601 q 610 462 640 488 q 528 436 581 436 q 444 462 475 436 q 414 544 414 488 q 443 628 414 603 q 528 654 472 654 z "},"ŀ":{"ha":514,"x_min":82,"x_max":560,"o":"m 293 0 l 82 0 l 82 1056 l 293 1056 l 293 0 m 446 642 q 529 615 500 642 q 558 532 558 589 q 528 449 558 475 q 446 424 499 424 q 363 449 393 424 q 332 532 332 475 q 361 616 332 590 q 446 642 390 642 z "},"Ł":{"ha":669,"x_min":-25,"x_max":640,"o":"m 121 0 l 121 332 l 69 299 l -25 429 l 121 535 l 121 992 l 339 992 l 339 686 l 446 763 l 542 631 l 339 485 l 339 186 l 640 186 l 640 0 l 121 0 z "},"ł":{"ha":442,"x_min":-31,"x_max":474,"o":"m 117 0 l 117 333 l 63 294 l -31 426 l 117 535 l 117 1056 l 326 1056 l 326 683 l 379 719 l 474 589 l 326 479 l 326 0 l 117 0 z "},"Ń":{"ha":963,"x_min":94,"x_max":868,"o":"m 868 0 l 603 0 l 290 678 l 285 678 q 291 585 289 631 q 294 501 293 540 q 296 429 296 463 l 296 0 l 94 0 l 94 992 l 358 992 l 671 328 l 675 328 q 670 416 672 374 q 667 497 668 458 q 665 567 665 536 l 665 992 l 868 992 l 868 0 m 733 1278 q 692 1233 718 1260 q 635 1176 665 1206 q 573 1119 604 1147 q 517 1069 542 1092 l 368 1069 l 368 1088 q 415 1157 392 1122 q 459 1226 438 1192 q 497 1292 481 1261 l 733 1292 l 733 1278 z "},"ń":{"ha":776,"x_min":82,"x_max":696,"o":"m 472 778 q 636 708 576 778 q 696 500 696 638 l 696 0 l 485 0 l 485 438 q 467 556 485 517 q 401 596 449 596 q 316 540 339 596 q 293 356 293 485 l 293 0 l 82 0 l 82 764 l 246 764 l 271 667 l 282 667 q 329 728 301 703 q 393 765 357 753 q 472 778 429 778 m 649 1050 q 607 1005 633 1032 q 550 949 581 978 q 488 892 519 919 q 432 842 457 864 l 283 842 l 283 860 q 330 929 307 894 q 374 999 353 964 q 413 1064 396 1033 l 649 1064 l 649 1050 z "},"Ņ":{"ha":963,"x_min":94,"x_max":868,"o":"m 868 0 l 603 0 l 290 678 l 285 678 q 291 585 289 631 q 294 501 293 540 q 296 429 296 463 l 296 0 l 94 0 l 94 992 l 358 992 l 671 328 l 675 328 q 670 416 672 374 q 667 497 668 458 q 665 567 665 536 l 665 992 l 868 992 l 868 0 m 597 -100 q 571 -170 586 -135 q 538 -240 556 -206 q 500 -307 521 -274 l 367 -307 l 367 -289 q 380 -226 374 -264 q 391 -151 386 -189 q 397 -85 396 -112 l 597 -85 l 597 -100 z "},"ņ":{"ha":776,"x_min":82,"x_max":696,"o":"m 472 778 q 636 708 576 778 q 696 500 696 638 l 696 0 l 485 0 l 485 438 q 467 556 485 517 q 401 596 449 596 q 316 540 339 596 q 293 356 293 485 l 293 0 l 82 0 l 82 764 l 246 764 l 271 667 l 282 667 q 329 728 301 703 q 393 765 357 753 q 472 778 429 778 m 504 -100 q 478 -170 493 -135 q 445 -240 463 -206 q 407 -307 428 -274 l 274 -307 l 274 -289 q 287 -226 281 -264 q 298 -151 293 -189 q 304 -85 303 -112 l 504 -85 l 504 -100 z "},"Ň":{"ha":963,"x_min":94,"x_max":868,"o":"m 868 0 l 603 0 l 290 678 l 285 678 q 291 585 289 631 q 294 501 293 540 q 296 429 296 463 l 296 0 l 94 0 l 94 992 l 358 992 l 671 328 l 675 328 q 670 416 672 374 q 667 497 668 458 q 665 567 665 536 l 665 992 l 868 992 l 868 0 m 379 1069 q 339 1135 365 1097 q 285 1211 313 1174 q 235 1274 257 1249 l 235 1292 l 368 1292 q 423 1244 394 1271 q 481 1183 451 1218 q 541 1245 513 1219 q 597 1292 569 1271 l 728 1292 l 728 1274 q 680 1210 707 1247 q 627 1136 653 1174 q 583 1069 601 1099 l 379 1069 z "},"ň":{"ha":776,"x_min":82,"x_max":696,"o":"m 472 778 q 636 708 576 778 q 696 500 696 638 l 696 0 l 485 0 l 485 438 q 467 556 485 517 q 401 596 449 596 q 316 540 339 596 q 293 356 293 485 l 293 0 l 82 0 l 82 764 l 246 764 l 271 667 l 282 667 q 329 728 301 703 q 393 765 357 753 q 472 778 429 778 m 296 842 q 256 908 282 869 q 201 983 229 946 q 151 1046 174 1021 l 151 1064 l 285 1064 q 340 1017 311 1043 q 397 956 368 990 q 458 1017 429 992 q 514 1064 486 1043 l 644 1064 l 644 1046 q 597 983 624 1019 q 544 908 569 946 q 500 842 518 871 l 296 842 z "},"ŉ":{"ha":960,"x_min":3,"x_max":881,"o":"m 657 778 q 821 708 761 778 q 881 500 881 638 l 881 0 l 669 0 l 669 438 q 651 556 669 517 q 586 596 633 596 q 501 540 524 596 q 478 356 478 485 l 478 0 l 267 0 l 267 764 l 431 764 l 456 667 l 467 667 q 514 728 486 703 q 578 765 542 753 q 657 778 614 778 m 269 976 q 243 847 258 911 q 209 723 228 782 q 168 613 190 664 l 3 613 q 20 702 11 651 q 37 806 29 753 q 51 907 44 858 q 60 992 57 956 l 261 992 l 269 976 z "},"Ŋ":{"ha":963,"x_min":94,"x_max":868,"o":"m 588 -304 q 524 -301 554 -304 q 468 -289 494 -297 l 468 -108 q 509 -118 488 -114 q 557 -122 531 -122 q 620 -108 596 -122 q 656 -66 644 -94 q 668 4 667 -37 l 289 697 l 285 697 q 291 606 289 653 q 294 519 293 560 q 294 444 294 478 l 294 0 l 94 0 l 94 992 l 354 992 l 669 417 l 674 417 q 669 504 672 460 q 666 590 667 549 q 665 663 665 631 l 665 992 l 868 992 l 868 29 q 836 -158 868 -83 q 742 -268 804 -232 q 588 -304 681 -304 z "},"ŋ":{"ha":776,"x_min":82,"x_max":696,"o":"m 467 -333 q 408 -329 439 -333 q 353 -317 378 -325 l 353 -142 q 387 -151 371 -147 q 418 -154 403 -154 q 467 -130 450 -154 q 485 -51 485 -106 l 485 443 q 466 557 485 518 q 406 596 447 596 q 340 574 365 596 q 304 501 315 553 q 293 356 293 449 l 293 0 l 82 0 l 82 764 l 246 764 l 271 668 l 283 668 q 331 728 303 704 q 394 765 358 753 q 472 778 431 778 q 592 745 543 778 q 669 651 642 713 q 696 497 696 589 l 696 -74 q 673 -202 696 -143 q 599 -297 650 -261 q 467 -333 549 -333 z "},"Ō":{"ha":921,"x_min":63,"x_max":858,"o":"m 858 497 q 834 283 858 378 q 760 122 810 189 q 636 21 711 56 q 461 -14 561 -14 q 286 21 361 -14 q 162 122 211 56 q 88 284 113 189 q 63 499 63 379 q 107 774 63 661 q 240 947 151 888 q 461 1007 329 1007 q 684 946 596 1007 q 815 771 772 885 q 858 497 858 657 m 292 497 q 310 321 292 393 q 366 213 328 249 q 461 176 404 176 q 556 212 519 176 q 611 319 593 247 q 629 497 629 390 q 589 739 629 657 q 461 821 549 821 q 366 783 404 821 q 310 674 328 746 q 292 497 292 603 m 672 1229 l 672 1082 l 251 1082 l 251 1229 l 672 1229 z "},"ō":{"ha":749,"x_min":51,"x_max":696,"o":"m 696 383 q 677 229 696 301 q 619 102 658 157 q 519 17 581 47 q 374 -14 457 -14 q 234 17 294 -14 q 133 101 174 47 q 72 228 93 156 q 51 383 51 300 q 87 590 51 501 q 194 728 122 678 q 376 778 265 778 q 544 732 472 778 q 656 598 615 686 q 696 383 696 510 m 265 382 q 276 258 265 308 q 312 183 288 208 q 375 158 336 158 q 437 183 414 158 q 471 259 460 208 q 482 383 482 310 q 471 507 482 458 q 437 580 460 556 q 374 604 414 604 q 291 549 317 604 q 265 382 265 494 m 585 1001 l 585 854 l 164 854 l 164 1001 l 585 1001 z "},"Ŏ":{"ha":921,"x_min":63,"x_max":858,"o":"m 858 497 q 834 283 858 378 q 760 122 810 189 q 636 21 711 56 q 461 -14 561 -14 q 286 21 361 -14 q 162 122 211 56 q 88 284 113 189 q 63 499 63 379 q 107 774 63 661 q 240 947 151 888 q 461 1007 329 1007 q 684 946 596 1007 q 815 771 772 885 q 858 497 858 657 m 292 497 q 310 321 292 393 q 366 213 328 249 q 461 176 404 176 q 556 212 519 176 q 611 319 593 247 q 629 497 629 390 q 589 739 629 657 q 461 821 549 821 q 366 783 404 821 q 310 674 328 746 q 292 497 292 603 m 689 1308 q 658 1182 688 1236 q 577 1099 628 1128 q 460 1069 526 1069 q 297 1131 357 1069 q 233 1308 236 1193 l 356 1308 q 372 1252 360 1272 q 407 1223 385 1232 q 460 1214 429 1214 q 512 1223 489 1214 q 549 1252 535 1232 q 567 1308 564 1272 l 689 1308 z "},"ŏ":{"ha":749,"x_min":51,"x_max":696,"o":"m 696 383 q 677 229 696 301 q 619 102 658 157 q 519 17 581 47 q 374 -14 457 -14 q 234 17 294 -14 q 133 101 174 47 q 72 228 93 156 q 51 383 51 300 q 87 590 51 501 q 194 728 122 678 q 376 778 265 778 q 544 732 472 778 q 656 598 615 686 q 696 383 696 510 m 265 382 q 276 258 265 308 q 312 183 288 208 q 375 158 336 158 q 437 183 414 158 q 471 259 460 208 q 482 383 482 310 q 471 507 482 458 q 437 580 460 556 q 374 604 414 604 q 291 549 317 604 q 265 382 265 494 m 601 1081 q 570 954 600 1008 q 490 871 540 900 q 372 842 439 842 q 209 903 269 842 q 146 1081 149 965 l 268 1081 q 285 1024 272 1044 q 319 995 297 1004 q 372 986 342 986 q 424 995 401 986 q 462 1024 447 1004 q 479 1081 476 1044 l 601 1081 z "},"Ő":{"ha":921,"x_min":63,"x_max":858,"o":"m 858 497 q 834 283 858 378 q 760 122 810 189 q 636 21 711 56 q 461 -14 561 -14 q 286 21 361 -14 q 162 122 211 56 q 88 284 113 189 q 63 499 63 379 q 107 774 63 661 q 240 947 151 888 q 461 1007 329 1007 q 684 946 596 1007 q 815 771 772 885 q 858 497 858 657 m 292 497 q 310 321 292 393 q 366 213 328 249 q 461 176 404 176 q 556 212 519 176 q 611 319 593 247 q 629 497 629 390 q 589 739 629 657 q 461 821 549 821 q 366 783 404 821 q 310 674 328 746 q 292 497 292 603 m 740 1278 q 708 1231 731 1258 q 656 1174 685 1204 q 596 1117 626 1144 q 542 1069 565 1089 l 433 1069 l 433 1088 q 477 1167 456 1128 q 517 1238 499 1206 q 543 1292 535 1271 l 740 1292 l 740 1278 m 488 1278 q 455 1231 478 1258 q 403 1175 432 1204 q 342 1119 374 1146 q 283 1069 311 1092 l 181 1069 l 181 1088 q 224 1167 203 1129 q 263 1238 246 1206 q 292 1292 281 1271 l 488 1292 l 488 1278 z "},"ő":{"ha":749,"x_min":51,"x_max":696,"o":"m 696 383 q 677 229 696 301 q 619 102 658 157 q 519 17 581 47 q 374 -14 457 -14 q 234 17 294 -14 q 133 101 174 47 q 72 228 93 156 q 51 383 51 300 q 87 590 51 501 q 194 728 122 678 q 376 778 265 778 q 544 732 472 778 q 656 598 615 686 q 696 383 696 510 m 265 382 q 276 258 265 308 q 312 183 288 208 q 375 158 336 158 q 437 183 414 158 q 471 259 460 208 q 482 383 482 310 q 471 507 482 458 q 437 580 460 556 q 374 604 414 604 q 291 549 317 604 q 265 382 265 494 m 654 1050 q 622 1003 644 1031 q 569 947 599 976 q 510 889 540 917 q 456 842 479 861 l 347 842 l 347 860 q 391 939 369 900 q 431 1010 413 978 q 457 1064 449 1043 l 654 1064 l 654 1050 m 401 1050 q 369 1003 392 1031 q 317 947 346 976 q 256 891 288 918 q 197 842 225 864 l 94 842 l 94 860 q 138 940 117 901 q 177 1010 160 978 q 206 1064 194 1043 l 401 1064 l 401 1050 z "},"Œ":{"ha":1110,"x_min":63,"x_max":1047,"o":"m 447 1006 q 509 1002 478 1006 q 564 992 540 999 l 1047 992 l 1047 808 l 767 808 l 767 606 l 1028 606 l 1028 422 l 767 422 l 767 186 l 1047 186 l 1047 0 l 563 0 q 510 -9 540 -6 q 449 -12 479 -12 q 231 53 315 -12 q 104 233 146 118 q 63 499 63 349 q 104 765 63 650 q 231 942 146 879 q 447 1006 315 1006 m 457 819 q 383 798 414 819 q 331 735 351 776 q 301 635 311 694 q 292 497 292 575 q 309 323 292 394 q 363 215 326 251 q 457 176 400 178 q 510 181 486 176 q 553 190 535 185 l 553 799 q 511 814 536 808 q 457 819 486 819 z "},"œ":{"ha":1138,"x_min":51,"x_max":1090,"o":"m 797 776 q 956 735 890 776 q 1056 617 1021 694 q 1090 429 1090 540 l 1090 321 l 689 321 q 728 193 690 236 q 840 150 765 150 q 946 164 896 150 q 1050 208 996 178 l 1050 40 q 945 -1 1000 13 q 818 -14 890 -14 q 688 10 744 -14 q 590 83 632 35 q 498 10 553 35 q 374 -14 443 -14 q 199 36 271 -14 q 90 176 128 86 q 51 383 51 265 q 88 592 51 504 q 196 729 124 681 q 375 778 268 778 q 494 754 442 778 q 586 683 547 731 q 642 735 611 715 q 712 766 674 756 q 797 776 750 776 m 374 604 q 291 549 317 604 q 265 382 265 494 q 276 258 265 308 q 312 183 288 208 q 375 158 336 158 q 437 183 414 158 q 471 258 460 208 q 482 383 482 308 q 471 507 482 458 q 436 580 460 556 q 374 604 413 604 m 794 618 q 722 583 750 618 q 690 467 693 547 l 896 467 q 883 548 896 514 q 849 600 871 582 q 794 618 828 618 z "},"Ŕ":{"ha":790,"x_min":94,"x_max":794,"o":"m 360 992 q 556 959 478 992 q 674 862 635 926 q 714 700 714 797 q 697 589 714 639 q 645 501 679 539 q 564 433 611 463 l 794 0 l 551 0 l 372 378 l 314 378 l 314 0 l 94 0 l 94 992 l 360 992 m 354 811 l 314 811 l 314 550 l 356 550 q 456 584 422 550 q 490 690 490 618 q 476 758 490 732 q 431 798 461 785 q 354 811 401 811 m 656 1278 q 614 1233 640 1260 q 557 1176 588 1206 q 495 1119 526 1147 q 439 1069 464 1092 l 290 1069 l 290 1088 q 337 1157 314 1122 q 381 1226 360 1192 q 419 1292 403 1261 l 656 1292 l 656 1278 z "},"ŕ":{"ha":542,"x_min":83,"x_max":551,"o":"m 461 778 q 493 776 476 778 q 528 769 510 774 l 510 551 q 479 558 496 556 q 440 561 463 561 q 381 551 408 561 q 335 518 354 540 q 305 463 315 496 q 294 386 294 431 l 294 0 l 83 0 l 83 764 l 243 764 l 275 639 l 285 639 q 327 706 301 675 q 387 758 353 738 q 461 778 421 778 m 550 1050 q 508 1005 535 1032 q 451 949 482 978 q 390 892 421 919 q 333 842 358 864 l 185 842 l 185 860 q 231 929 208 894 q 276 999 254 964 q 314 1064 297 1033 l 550 1064 l 550 1050 z "},"Ŗ":{"ha":790,"x_min":94,"x_max":794,"o":"m 360 992 q 556 959 478 992 q 674 862 635 926 q 714 700 714 797 q 697 589 714 639 q 645 501 679 539 q 564 433 611 463 l 794 0 l 551 0 l 372 378 l 314 378 l 314 0 l 94 0 l 94 992 l 360 992 m 354 811 l 314 811 l 314 550 l 356 550 q 456 584 422 550 q 490 690 490 618 q 476 758 490 732 q 431 798 461 785 q 354 811 401 811 m 531 -100 q 504 -170 519 -135 q 472 -240 489 -206 q 433 -307 454 -274 l 300 -307 l 300 -289 q 313 -226 307 -264 q 324 -151 319 -189 q 331 -85 329 -112 l 531 -85 l 531 -100 z "},"ŗ":{"ha":542,"x_min":81,"x_max":528,"o":"m 461 778 q 493 776 476 778 q 528 769 510 774 l 510 551 q 479 558 496 556 q 440 561 463 561 q 381 551 408 561 q 335 518 354 540 q 305 463 315 496 q 294 386 294 431 l 294 0 l 83 0 l 83 764 l 243 764 l 275 639 l 285 639 q 327 706 301 675 q 387 758 353 738 q 461 778 421 778 m 311 -100 q 285 -170 300 -135 q 252 -240 269 -206 q 214 -307 235 -274 l 81 -307 l 81 -289 q 94 -226 88 -264 q 105 -151 100 -189 q 111 -85 110 -112 l 311 -85 l 311 -100 z "},"Ř":{"ha":790,"x_min":94,"x_max":794,"o":"m 360 992 q 556 959 478 992 q 674 862 635 926 q 714 700 714 797 q 697 589 714 639 q 645 501 679 539 q 564 433 611 463 l 794 0 l 551 0 l 372 378 l 314 378 l 314 0 l 94 0 l 94 992 l 360 992 m 354 811 l 314 811 l 314 550 l 356 550 q 456 584 422 550 q 490 690 490 618 q 476 758 490 732 q 431 798 461 785 q 354 811 401 811 m 301 1069 q 261 1135 288 1097 q 207 1211 235 1174 q 157 1274 179 1249 l 157 1292 l 290 1292 q 345 1244 317 1271 q 403 1183 374 1218 q 463 1245 435 1219 q 519 1292 492 1271 l 650 1292 l 650 1274 q 602 1210 629 1247 q 549 1136 575 1174 q 506 1069 524 1099 l 301 1069 z "},"ř":{"ha":542,"x_min":53,"x_max":546,"o":"m 461 778 q 493 776 476 778 q 528 769 510 774 l 510 551 q 479 558 496 556 q 440 561 463 561 q 381 551 408 561 q 335 518 354 540 q 305 463 315 496 q 294 386 294 431 l 294 0 l 83 0 l 83 764 l 243 764 l 275 639 l 285 639 q 327 706 301 675 q 387 758 353 738 q 461 778 421 778 m 197 842 q 157 908 183 869 q 103 983 131 946 q 53 1046 75 1021 l 53 1064 l 186 1064 q 241 1017 213 1043 q 299 956 269 990 q 359 1017 331 992 q 415 1064 388 1043 l 546 1064 l 546 1046 q 498 983 525 1019 q 445 908 471 946 q 401 842 419 871 l 197 842 z "},"Ś":{"ha":668,"x_min":49,"x_max":625,"o":"m 625 293 q 587 135 625 204 q 476 26 549 65 q 301 -14 404 -14 q 212 -8 254 -14 q 129 10 169 -3 q 49 44 89 24 l 49 260 q 175 203 110 224 q 297 182 240 182 q 358 194 335 182 q 393 226 382 206 q 404 274 404 247 q 392 324 404 301 q 347 370 379 347 q 260 424 315 393 q 178 476 215 449 q 114 536 142 503 q 71 615 86 569 q 56 721 56 660 q 92 873 56 810 q 199 971 129 936 q 365 1006 268 1006 q 497 988 433 1006 q 624 938 561 971 l 561 753 q 459 797 507 782 q 368 813 411 813 q 316 802 338 813 q 284 774 294 792 q 274 732 274 756 q 287 679 274 701 q 333 635 300 657 q 425 579 365 613 q 535 504 490 544 q 602 413 579 464 q 625 293 625 363 m 601 1278 q 560 1233 586 1260 q 503 1176 533 1206 q 441 1119 472 1147 q 385 1069 410 1092 l 236 1069 l 236 1088 q 283 1157 260 1122 q 327 1226 306 1192 q 365 1292 349 1261 l 601 1292 l 601 1278 z "},"ś":{"ha":585,"x_min":44,"x_max":549,"o":"m 543 229 q 512 97 543 151 q 419 14 481 42 q 269 -14 358 -14 q 152 -4 207 -14 q 46 29 97 6 l 46 221 q 149 176 93 194 q 256 158 206 158 q 315 173 296 158 q 335 215 335 188 q 326 247 335 232 q 290 278 318 261 q 206 322 263 296 q 117 381 153 349 q 63 457 81 414 q 44 557 44 500 q 114 720 44 663 q 306 778 183 778 q 422 762 367 778 q 535 715 478 746 l 478 560 q 395 599 438 583 q 313 614 353 614 q 265 602 281 614 q 249 568 249 590 q 257 539 249 551 q 292 510 265 526 q 372 467 319 494 q 463 408 425 440 q 522 333 501 376 q 543 229 543 290 m 549 1050 q 507 1005 533 1032 q 450 949 481 978 q 388 892 419 919 q 332 842 357 864 l 183 842 l 183 860 q 230 929 207 894 q 274 999 253 964 q 313 1064 296 1033 l 549 1064 l 549 1050 z "},"Ŝ":{"ha":668,"x_min":49,"x_max":625,"o":"m 625 293 q 587 135 625 204 q 476 26 549 65 q 301 -14 404 -14 q 212 -8 254 -14 q 129 10 169 -3 q 49 44 89 24 l 49 260 q 175 203 110 224 q 297 182 240 182 q 358 194 335 182 q 393 226 382 206 q 404 274 404 247 q 392 324 404 301 q 347 370 379 347 q 260 424 315 393 q 178 476 215 449 q 114 536 142 503 q 71 615 86 569 q 56 721 56 660 q 92 873 56 810 q 199 971 129 936 q 365 1006 268 1006 q 497 988 433 1006 q 624 938 561 971 l 561 753 q 459 797 507 782 q 368 813 411 813 q 316 802 338 813 q 284 774 294 792 q 274 732 274 756 q 287 679 274 701 q 333 635 300 657 q 425 579 365 613 q 535 504 490 544 q 602 413 579 464 q 625 293 625 363 m 451 1292 q 493 1226 469 1261 q 544 1156 517 1192 q 596 1088 571 1121 l 596 1069 l 465 1069 q 410 1116 439 1089 q 349 1178 381 1143 q 288 1116 317 1143 q 236 1069 260 1089 l 103 1069 l 103 1088 q 153 1151 125 1114 q 207 1227 181 1189 q 247 1292 233 1265 l 451 1292 z "},"ŝ":{"ha":585,"x_min":44,"x_max":544,"o":"m 543 229 q 512 97 543 151 q 419 14 481 42 q 269 -14 358 -14 q 152 -4 207 -14 q 46 29 97 6 l 46 221 q 149 176 93 194 q 256 158 206 158 q 315 173 296 158 q 335 215 335 188 q 326 247 335 232 q 290 278 318 261 q 206 322 263 296 q 117 381 153 349 q 63 457 81 414 q 44 557 44 500 q 114 720 44 663 q 306 778 183 778 q 422 762 367 778 q 535 715 478 746 l 478 560 q 395 599 438 583 q 313 614 353 614 q 265 602 281 614 q 249 568 249 590 q 257 539 249 551 q 292 510 265 526 q 372 467 319 494 q 463 408 425 440 q 522 333 501 376 q 543 229 543 290 m 400 1064 q 442 999 418 1033 q 492 928 465 964 q 544 860 519 893 l 544 842 l 414 842 q 358 888 388 861 q 297 950 329 915 q 237 888 265 915 q 185 842 208 861 l 51 842 l 51 860 q 101 924 74 886 q 156 999 129 961 q 196 1064 182 1038 l 400 1064 z "},"Ş":{"ha":668,"x_min":49,"x_max":625,"o":"m 625 293 q 587 135 625 204 q 476 26 549 65 q 301 -14 404 -14 q 212 -8 254 -14 q 129 10 169 -3 q 49 44 89 24 l 49 260 q 175 203 110 224 q 297 182 240 182 q 358 194 335 182 q 393 226 382 206 q 404 274 404 247 q 392 324 404 301 q 347 370 379 347 q 260 424 315 393 q 178 476 215 449 q 114 536 142 503 q 71 615 86 569 q 56 721 56 660 q 92 873 56 810 q 199 971 129 936 q 365 1006 268 1006 q 497 988 433 1006 q 624 938 561 971 l 561 753 q 459 797 507 782 q 368 813 411 813 q 316 802 338 813 q 284 774 294 792 q 274 732 274 756 q 287 679 274 701 q 333 635 300 657 q 425 579 365 613 q 535 504 490 544 q 602 413 579 464 q 625 293 625 363 m 467 -175 q 421 -291 467 -249 q 285 -333 375 -333 q 222 -330 251 -333 q 171 -319 193 -326 l 171 -203 q 212 -211 192 -208 q 250 -214 232 -214 q 292 -203 276 -214 q 307 -171 307 -193 q 282 -130 307 -146 q 208 -110 257 -114 l 256 0 l 364 0 l 343 -49 q 407 -72 379 -56 q 451 -114 435 -87 q 467 -175 467 -140 z "},"ş":{"ha":585,"x_min":44,"x_max":543,"o":"m 543 229 q 512 97 543 151 q 419 14 481 42 q 269 -14 358 -14 q 152 -4 207 -14 q 46 29 97 6 l 46 221 q 149 176 93 194 q 256 158 206 158 q 315 173 296 158 q 335 215 335 188 q 326 247 335 232 q 290 278 318 261 q 206 322 263 296 q 117 381 153 349 q 63 457 81 414 q 44 557 44 500 q 114 720 44 663 q 306 778 183 778 q 422 762 367 778 q 535 715 478 746 l 478 560 q 395 599 438 583 q 313 614 353 614 q 265 602 281 614 q 249 568 249 590 q 257 539 249 551 q 292 510 265 526 q 372 467 319 494 q 463 408 425 440 q 522 333 501 376 q 543 229 543 290 m 425 -175 q 379 -291 425 -249 q 243 -333 333 -333 q 181 -330 210 -333 q 129 -319 151 -326 l 129 -203 q 170 -211 150 -208 q 208 -214 190 -214 q 250 -203 235 -214 q 265 -171 265 -193 q 240 -130 265 -146 q 167 -110 215 -114 l 214 0 l 322 0 l 301 -49 q 365 -72 338 -56 q 409 -114 393 -87 q 425 -175 425 -140 z "},"Š":{"ha":668,"x_min":49,"x_max":625,"o":"m 625 293 q 587 135 625 204 q 476 26 549 65 q 301 -14 404 -14 q 212 -8 254 -14 q 129 10 169 -3 q 49 44 89 24 l 49 260 q 175 203 110 224 q 297 182 240 182 q 358 194 335 182 q 393 226 382 206 q 404 274 404 247 q 392 324 404 301 q 347 370 379 347 q 260 424 315 393 q 178 476 215 449 q 114 536 142 503 q 71 615 86 569 q 56 721 56 660 q 92 873 56 810 q 199 971 129 936 q 365 1006 268 1006 q 497 988 433 1006 q 624 938 561 971 l 561 753 q 459 797 507 782 q 368 813 411 813 q 316 802 338 813 q 284 774 294 792 q 274 732 274 756 q 287 679 274 701 q 333 635 300 657 q 425 579 365 613 q 535 504 490 544 q 602 413 579 464 q 625 293 625 363 m 247 1069 q 207 1135 233 1097 q 153 1211 181 1174 q 103 1274 125 1249 l 103 1292 l 236 1292 q 291 1244 263 1271 q 349 1183 319 1218 q 409 1245 381 1219 q 465 1292 438 1271 l 596 1292 l 596 1274 q 548 1210 575 1247 q 495 1136 521 1174 q 451 1069 469 1099 l 247 1069 z "},"š":{"ha":585,"x_min":44,"x_max":544,"o":"m 543 229 q 512 97 543 151 q 419 14 481 42 q 269 -14 358 -14 q 152 -4 207 -14 q 46 29 97 6 l 46 221 q 149 176 93 194 q 256 158 206 158 q 315 173 296 158 q 335 215 335 188 q 326 247 335 232 q 290 278 318 261 q 206 322 263 296 q 117 381 153 349 q 63 457 81 414 q 44 557 44 500 q 114 720 44 663 q 306 778 183 778 q 422 762 367 778 q 535 715 478 746 l 478 560 q 395 599 438 583 q 313 614 353 614 q 265 602 281 614 q 249 568 249 590 q 257 539 249 551 q 292 510 265 526 q 372 467 319 494 q 463 408 425 440 q 522 333 501 376 q 543 229 543 290 m 196 842 q 156 908 182 869 q 101 983 129 946 q 51 1046 74 1021 l 51 1064 l 185 1064 q 240 1017 211 1043 q 297 956 268 990 q 358 1017 329 992 q 414 1064 386 1043 l 544 1064 l 544 1046 q 497 983 524 1019 q 444 908 469 946 q 400 842 418 871 l 196 842 z "},"Ț":{"ha":675,"x_min":24,"x_max":650,"o":"m 446 0 l 229 0 l 229 804 l 24 804 l 24 992 l 650 992 l 650 804 l 446 804 l 446 0 m 453 -100 q 426 -170 442 -135 q 394 -240 411 -206 q 356 -307 376 -274 l 222 -307 l 222 -289 q 235 -226 229 -264 q 247 -151 242 -189 q 253 -85 251 -112 l 453 -85 l 453 -100 z "},"ț":{"ha":511,"x_min":19,"x_max":481,"o":"m 378 164 q 428 171 403 164 q 481 188 454 178 l 481 25 q 404 -3 446 7 q 313 -14 363 -14 q 196 13 243 -14 q 125 95 149 39 q 101 240 101 151 l 101 594 l 19 594 l 19 699 l 118 758 l 171 921 l 313 921 l 313 764 l 471 764 l 471 594 l 313 594 l 313 246 q 328 185 313 206 q 378 164 344 164 m 413 -100 q 386 -170 401 -135 q 353 -240 371 -206 q 315 -307 336 -274 l 182 -307 l 182 -289 q 195 -226 189 -264 q 206 -151 201 -189 q 213 -85 211 -112 l 413 -85 l 413 -100 z "},"Ť":{"ha":675,"x_min":24,"x_max":650,"o":"m 446 0 l 229 0 l 229 804 l 24 804 l 24 992 l 650 992 l 650 804 l 446 804 l 446 0 m 236 1069 q 196 1135 222 1097 q 142 1211 169 1174 q 92 1274 114 1249 l 92 1292 l 225 1292 q 280 1244 251 1271 q 338 1183 308 1218 q 398 1245 369 1219 q 454 1292 426 1271 l 585 1292 l 585 1274 q 537 1210 564 1247 q 484 1136 510 1174 q 440 1069 458 1099 l 236 1069 z "},"ť":{"ha":511,"x_min":19,"x_max":714,"o":"m 714 1040 q 688 971 703 1007 q 656 901 674 935 q 618 833 639 867 l 483 833 l 483 851 q 492 896 488 869 q 502 951 497 922 q 510 1007 507 979 q 514 1056 513 1035 l 714 1056 l 714 1040 m 378 164 q 428 171 403 164 q 481 188 454 178 l 481 25 q 404 -3 446 7 q 313 -14 363 -14 q 196 13 243 -14 q 125 95 149 39 q 101 240 101 151 l 101 594 l 19 594 l 19 699 l 118 758 l 171 921 l 313 921 l 313 764 l 471 764 l 471 594 l 313 594 l 313 246 q 328 185 313 206 q 378 164 344 164 z "},"Ŧ":{"ha":675,"x_min":24,"x_max":650,"o":"m 229 0 l 229 401 l 99 401 l 99 569 l 229 569 l 229 804 l 24 804 l 24 992 l 650 992 l 650 804 l 446 804 l 446 569 l 576 569 l 576 401 l 446 401 l 446 0 l 229 0 z "},"ŧ":{"ha":514,"x_min":19,"x_max":481,"o":"m 28 321 l 28 465 l 456 465 l 456 321 l 28 321 m 378 164 q 428 171 403 164 q 481 188 454 178 l 481 25 q 404 -3 446 7 q 313 -14 363 -14 q 196 13 243 -14 q 125 95 149 39 q 101 240 101 151 l 101 594 l 19 594 l 19 699 l 118 758 l 171 921 l 313 921 l 313 764 l 471 764 l 471 594 l 313 594 l 313 246 q 328 185 313 206 q 378 164 344 164 z "},"Ũ":{"ha":874,"x_min":90,"x_max":785,"o":"m 785 343 q 744 149 785 229 q 627 28 704 69 q 435 -14 550 -14 q 178 76 267 -14 q 90 339 90 167 l 90 992 l 308 992 l 308 353 q 341 217 308 257 q 438 176 374 176 q 510 194 482 176 q 552 251 539 211 q 565 354 565 290 l 565 992 l 785 992 l 785 343 m 189 1068 q 198 1146 190 1107 q 222 1217 206 1185 q 263 1267 238 1249 q 328 1286 289 1286 q 382 1276 356 1286 q 433 1253 408 1267 q 483 1228 458 1239 q 531 1218 507 1218 q 560 1235 549 1218 q 578 1288 571 1253 l 686 1288 q 643 1124 683 1178 q 546 1069 603 1069 q 492 1079 519 1069 q 438 1103 464 1089 q 388 1127 411 1117 q 344 1138 364 1138 q 316 1122 331 1138 q 297 1068 301 1106 l 189 1068 z "},"ũ":{"ha":776,"x_min":81,"x_max":694,"o":"m 694 764 l 694 0 l 531 0 l 506 96 l 494 96 q 447 35 475 60 q 383 -2 418 10 q 306 -14 347 -14 q 184 18 235 -14 q 107 113 133 50 q 81 265 81 175 l 81 764 l 292 764 l 292 329 q 310 208 292 250 q 369 167 328 167 q 442 194 418 167 q 475 271 467 221 q 483 392 483 321 l 483 764 l 694 764 m 140 840 q 149 918 142 879 q 173 989 157 957 q 215 1040 189 1021 q 279 1058 240 1058 q 333 1049 307 1058 q 385 1025 360 1039 q 434 1001 410 1011 q 482 990 458 990 q 511 1008 500 990 q 529 1060 522 1025 l 638 1060 q 594 896 635 950 q 497 842 554 842 q 443 851 471 842 q 389 875 415 861 q 339 899 363 889 q 296 910 315 910 q 267 894 282 910 q 249 840 253 878 l 140 840 z "},"Ū":{"ha":874,"x_min":90,"x_max":785,"o":"m 785 343 q 744 149 785 229 q 627 28 704 69 q 435 -14 550 -14 q 178 76 267 -14 q 90 339 90 167 l 90 992 l 308 992 l 308 353 q 341 217 308 257 q 438 176 374 176 q 510 194 482 176 q 552 251 539 211 q 565 354 565 290 l 565 992 l 785 992 l 785 343 m 647 1229 l 647 1082 l 226 1082 l 226 1229 l 647 1229 z "},"ū":{"ha":776,"x_min":81,"x_max":694,"o":"m 694 764 l 694 0 l 531 0 l 506 96 l 494 96 q 447 35 475 60 q 383 -2 418 10 q 306 -14 347 -14 q 184 18 235 -14 q 107 113 133 50 q 81 265 81 175 l 81 764 l 292 764 l 292 329 q 310 208 292 250 q 369 167 328 167 q 442 194 418 167 q 475 271 467 221 q 483 392 483 321 l 483 764 l 694 764 m 600 1001 l 600 854 l 179 854 l 179 1001 l 600 1001 z "},"Ŭ":{"ha":874,"x_min":90,"x_max":785,"o":"m 785 343 q 744 149 785 229 q 627 28 704 69 q 435 -14 550 -14 q 178 76 267 -14 q 90 339 90 167 l 90 992 l 308 992 l 308 353 q 341 217 308 257 q 438 176 374 176 q 510 194 482 176 q 552 251 539 211 q 565 354 565 290 l 565 992 l 785 992 l 785 343 m 664 1308 q 633 1182 663 1236 q 552 1099 603 1128 q 435 1069 501 1069 q 272 1131 332 1069 q 208 1308 211 1193 l 331 1308 q 347 1252 335 1272 q 382 1223 360 1232 q 435 1214 404 1214 q 487 1223 464 1214 q 524 1252 510 1232 q 542 1308 539 1272 l 664 1308 z "},"ŭ":{"ha":776,"x_min":81,"x_max":694,"o":"m 694 764 l 694 0 l 531 0 l 506 96 l 494 96 q 447 35 475 60 q 383 -2 418 10 q 306 -14 347 -14 q 184 18 235 -14 q 107 113 133 50 q 81 265 81 175 l 81 764 l 292 764 l 292 329 q 310 208 292 250 q 369 167 328 167 q 442 194 418 167 q 475 271 467 221 q 483 392 483 321 l 483 764 l 694 764 m 615 1081 q 584 954 614 1008 q 503 871 554 900 q 386 842 453 842 q 223 903 283 842 q 160 1081 163 965 l 282 1081 q 299 1024 286 1044 q 333 995 311 1004 q 386 986 356 986 q 438 995 415 986 q 476 1024 461 1004 q 493 1081 490 1044 l 615 1081 z "},"Ů":{"ha":874,"x_min":90,"x_max":785,"o":"m 785 343 q 744 149 785 229 q 627 28 704 69 q 435 -14 550 -14 q 178 76 267 -14 q 90 339 90 167 l 90 992 l 308 992 l 308 353 q 341 217 308 257 q 438 176 374 176 q 510 194 482 176 q 552 251 539 211 q 565 354 565 290 l 565 992 l 785 992 l 785 343 m 436 1068 q 315 1114 361 1068 q 268 1232 268 1160 q 314 1353 268 1307 q 436 1399 360 1399 q 559 1352 511 1399 q 607 1233 607 1306 q 560 1115 607 1161 q 436 1068 513 1068 m 438 1174 q 480 1190 463 1174 q 497 1233 497 1207 q 480 1278 497 1261 q 438 1294 463 1294 q 394 1277 411 1294 q 376 1233 376 1260 q 392 1190 376 1207 q 438 1174 408 1174 z "},"ů":{"ha":776,"x_min":81,"x_max":694,"o":"m 694 764 l 694 0 l 531 0 l 506 96 l 494 96 q 447 35 475 60 q 383 -2 418 10 q 306 -14 347 -14 q 184 18 235 -14 q 107 113 133 50 q 81 265 81 175 l 81 764 l 292 764 l 292 329 q 310 208 292 250 q 369 167 328 167 q 442 194 418 167 q 475 271 467 221 q 483 392 483 321 l 483 764 l 694 764 m 388 840 q 266 886 313 840 q 219 1004 219 932 q 265 1125 219 1079 q 388 1171 311 1171 q 510 1124 463 1171 q 558 1006 558 1078 q 511 887 558 933 q 388 840 464 840 m 389 946 q 431 963 414 946 q 449 1006 449 979 q 431 1050 449 1033 q 389 1067 414 1067 q 345 1049 363 1067 q 328 1006 328 1032 q 344 963 328 979 q 389 946 360 946 z "},"Ű":{"ha":874,"x_min":90,"x_max":785,"o":"m 785 343 q 744 149 785 229 q 627 28 704 69 q 435 -14 550 -14 q 178 76 267 -14 q 90 339 90 167 l 90 992 l 308 992 l 308 353 q 341 217 308 257 q 438 176 374 176 q 510 194 482 176 q 552 251 539 211 q 565 354 565 290 l 565 992 l 785 992 l 785 343 m 715 1278 q 683 1231 706 1258 q 631 1174 660 1204 q 571 1117 601 1144 q 517 1069 540 1089 l 408 1069 l 408 1088 q 452 1167 431 1128 q 492 1238 474 1206 q 518 1292 510 1271 l 715 1292 l 715 1278 m 463 1278 q 430 1231 453 1258 q 378 1175 407 1204 q 317 1119 349 1146 q 258 1069 286 1092 l 156 1069 l 156 1088 q 199 1167 178 1129 q 238 1238 221 1206 q 267 1292 256 1271 l 463 1292 l 463 1278 z "},"ű":{"ha":776,"x_min":81,"x_max":694,"o":"m 694 764 l 694 0 l 531 0 l 506 96 l 494 96 q 447 35 475 60 q 383 -2 418 10 q 306 -14 347 -14 q 184 18 235 -14 q 107 113 133 50 q 81 265 81 175 l 81 764 l 292 764 l 292 329 q 310 208 292 250 q 369 167 328 167 q 442 194 418 167 q 475 271 467 221 q 483 392 483 321 l 483 764 l 694 764 m 668 1050 q 635 1003 658 1031 q 583 947 613 976 q 524 889 554 917 q 469 842 493 861 l 361 842 l 361 860 q 405 939 383 900 q 444 1010 426 978 q 471 1064 463 1043 l 668 1064 l 668 1050 m 415 1050 q 383 1003 406 1031 q 331 947 360 976 q 270 891 301 918 q 211 842 239 864 l 108 842 l 108 860 q 152 940 131 901 q 191 1010 174 978 q 219 1064 208 1043 l 415 1064 l 415 1050 z "},"Ų":{"ha":874,"x_min":90,"x_max":785,"o":"m 551 -137 q 566 -179 551 -165 q 603 -193 581 -193 q 639 -188 618 -193 q 671 -179 660 -183 l 671 -314 q 618 -326 647 -321 q 561 -331 589 -331 q 438 -288 479 -331 q 396 -174 396 -246 q 409 -106 396 -139 q 449 -42 422 -74 q 517 21 476 -10 l 686 72 q 608 -12 639 25 q 565 -80 578 -50 q 551 -137 551 -110 m 785 343 q 744 149 785 229 q 627 28 704 69 q 435 -14 550 -14 q 178 76 267 -14 q 90 339 90 167 l 90 992 l 308 992 l 308 353 q 341 217 308 257 q 438 176 374 176 q 510 194 482 176 q 552 251 539 211 q 565 354 565 290 l 565 992 l 785 992 l 785 343 z "},"ų":{"ha":776,"x_min":81,"x_max":694,"o":"m 694 764 l 694 0 l 531 0 l 506 96 l 494 96 q 447 35 475 60 q 383 -2 418 10 q 306 -14 347 -14 q 184 18 235 -14 q 107 113 133 50 q 81 265 81 175 l 81 764 l 292 764 l 292 329 q 310 208 292 250 q 369 167 328 167 q 442 194 418 167 q 475 271 467 221 q 483 392 483 321 l 483 764 l 694 764 m 578 -139 q 593 -179 578 -164 q 635 -194 608 -194 q 669 -190 654 -194 q 694 -181 683 -186 l 694 -311 q 652 -324 678 -318 q 594 -331 626 -331 q 467 -290 511 -331 q 424 -179 424 -249 q 438 -111 424 -146 q 480 -42 451 -76 q 556 24 508 -8 l 657 0 q 595 -76 613 -46 q 578 -139 578 -107 z "},"Ŵ":{"ha":1186,"x_min":3,"x_max":1182,"o":"m 1182 992 l 974 0 l 721 0 l 631 442 q 620 496 625 465 q 610 560 615 526 q 600 627 604 593 q 593 692 596 661 q 586 634 590 667 q 577 567 582 601 q 567 499 572 532 q 556 443 561 467 l 464 0 l 214 0 l 3 992 l 217 992 l 310 507 q 319 447 314 482 q 331 376 325 413 q 342 303 338 339 q 350 235 347 267 q 360 310 354 271 q 373 389 367 350 q 386 462 379 428 q 397 519 393 496 l 499 992 l 688 992 l 783 519 q 796 459 789 494 q 809 385 803 424 q 821 308 815 346 q 831 235 826 269 q 841 322 835 274 q 856 418 847 369 q 871 506 864 467 l 965 992 l 1182 992 m 694 1292 q 736 1226 713 1261 q 787 1156 760 1192 q 839 1088 814 1121 l 839 1069 l 708 1069 q 653 1116 682 1089 q 592 1178 624 1143 q 531 1116 560 1143 q 479 1069 503 1089 l 346 1069 l 346 1088 q 396 1151 368 1114 q 450 1227 424 1189 q 490 1292 476 1265 l 694 1292 z "},"ŵ":{"ha":1056,"x_min":10,"x_max":1046,"o":"m 565 343 q 556 398 561 367 q 546 462 551 429 q 536 524 540 494 q 529 575 532 553 l 524 575 q 516 519 521 550 q 506 456 511 489 q 496 394 501 424 q 486 342 490 365 l 419 0 l 186 0 l 10 764 l 219 764 l 276 481 q 290 399 283 444 q 301 308 296 354 q 308 224 306 263 l 314 224 q 319 278 315 249 q 327 341 322 308 q 337 405 332 374 q 347 465 342 436 l 410 764 l 649 764 l 707 461 q 720 381 714 424 q 733 297 726 338 q 740 224 739 256 l 746 224 q 753 301 749 258 q 765 388 758 344 q 778 469 771 432 l 839 764 l 1046 764 l 868 0 l 631 0 l 565 343 m 629 1064 q 671 999 647 1033 q 722 928 694 964 q 774 860 749 893 l 774 842 l 643 842 q 588 888 617 861 q 526 950 558 915 q 466 888 494 915 q 414 842 438 861 l 281 842 l 281 860 q 331 924 303 886 q 385 999 358 961 q 425 1064 411 1038 l 629 1064 z "},"Ŷ":{"ha":751,"x_min":0,"x_max":751,"o":"m 376 607 l 522 992 l 751 992 l 485 383 l 485 0 l 267 0 l 267 376 l 0 992 l 231 992 l 376 607 m 478 1292 q 519 1226 496 1261 q 570 1156 543 1192 q 622 1088 597 1121 l 622 1069 l 492 1069 q 436 1116 465 1089 q 375 1178 407 1143 q 315 1116 343 1143 q 263 1069 286 1089 l 129 1069 l 129 1088 q 179 1151 151 1114 q 233 1227 207 1189 q 274 1292 260 1265 l 478 1292 z "},"ŷ":{"ha":697,"x_min":3,"x_max":696,"o":"m 3 764 l 225 764 l 325 388 q 336 343 332 365 q 344 299 340 321 q 349 258 347 278 l 354 258 q 363 317 357 286 q 379 386 369 349 l 476 764 l 696 764 l 442 -65 q 373 -219 413 -160 q 281 -306 333 -279 q 156 -333 228 -333 q 104 -331 128 -333 q 60 -322 81 -328 l 60 -143 q 90 -149 74 -147 q 122 -151 106 -151 q 176 -139 156 -151 q 212 -97 196 -126 q 242 -19 228 -68 l 250 10 l 3 764 m 451 1064 q 493 999 469 1033 q 544 928 517 964 q 596 860 571 893 l 596 842 l 465 842 q 410 888 439 861 q 349 950 381 915 q 288 888 317 915 q 236 842 260 861 l 103 842 l 103 860 q 153 924 125 886 q 207 999 181 961 q 247 1064 233 1038 l 451 1064 z "},"Ÿ":{"ha":751,"x_min":0,"x_max":751,"o":"m 376 607 l 522 992 l 751 992 l 485 383 l 485 0 l 267 0 l 267 376 l 0 992 l 231 992 l 376 607 m 144 1181 q 171 1255 144 1231 q 239 1279 197 1279 q 308 1254 282 1279 q 335 1181 335 1229 q 308 1109 335 1135 q 239 1083 282 1083 q 171 1108 197 1083 q 144 1181 144 1133 m 415 1181 q 442 1255 415 1231 q 511 1279 468 1279 q 581 1254 554 1279 q 607 1181 607 1229 q 581 1109 607 1135 q 511 1083 554 1083 q 442 1109 468 1083 q 415 1181 415 1135 z "},"Ź":{"ha":683,"x_min":32,"x_max":653,"o":"m 653 0 l 32 0 l 32 150 l 397 807 l 40 807 l 40 992 l 643 992 l 643 842 l 279 186 l 653 186 l 653 0 m 597 1278 q 556 1233 582 1260 q 499 1176 529 1206 q 437 1119 468 1147 q 381 1069 406 1092 l 232 1069 l 232 1088 q 278 1157 256 1122 q 323 1226 301 1192 q 361 1292 344 1261 l 597 1292 l 597 1278 z "},"ź":{"ha":574,"x_min":28,"x_max":544,"o":"m 544 0 l 28 0 l 28 126 l 297 592 l 44 592 l 44 764 l 533 764 l 533 625 l 275 171 l 544 171 l 544 0 m 544 1050 q 503 1005 529 1032 q 446 949 476 978 q 384 892 415 919 q 328 842 353 864 l 179 842 l 179 860 q 226 929 203 894 q 270 999 249 964 q 308 1064 292 1033 l 544 1064 l 544 1050 z "},"Ż":{"ha":683,"x_min":32,"x_max":653,"o":"m 653 0 l 32 0 l 32 150 l 397 807 l 40 807 l 40 992 l 643 992 l 643 842 l 279 186 l 653 186 l 653 0 m 351 1294 q 435 1268 406 1294 q 464 1185 464 1242 q 434 1102 464 1128 q 351 1076 404 1076 q 268 1102 299 1076 q 238 1185 238 1128 q 267 1269 238 1243 q 351 1294 296 1294 z "},"ż":{"ha":574,"x_min":28,"x_max":544,"o":"m 544 0 l 28 0 l 28 126 l 297 592 l 44 592 l 44 764 l 533 764 l 533 625 l 275 171 l 544 171 l 544 0 m 299 1067 q 382 1040 353 1067 q 411 957 411 1014 q 381 874 411 900 q 299 849 351 849 q 215 874 246 849 q 185 957 185 900 q 214 1041 185 1015 q 299 1067 243 1067 z "},"Ž":{"ha":683,"x_min":32,"x_max":653,"o":"m 653 0 l 32 0 l 32 150 l 397 807 l 40 807 l 40 992 l 643 992 l 643 842 l 279 186 l 653 186 l 653 0 m 243 1069 q 203 1135 229 1097 q 149 1211 176 1174 q 99 1274 121 1249 l 99 1292 l 232 1292 q 287 1244 258 1271 q 344 1183 315 1218 q 405 1245 376 1219 q 461 1292 433 1271 l 592 1292 l 592 1274 q 544 1210 571 1247 q 491 1136 517 1174 q 447 1069 465 1099 l 243 1069 z "},"ž":{"ha":574,"x_min":28,"x_max":544,"o":"m 544 0 l 28 0 l 28 126 l 297 592 l 44 592 l 44 764 l 533 764 l 533 625 l 275 171 l 544 171 l 544 0 m 190 842 q 150 908 176 869 q 96 983 124 946 q 46 1046 68 1021 l 46 1064 l 179 1064 q 234 1017 206 1043 q 292 956 263 990 q 352 1017 324 992 q 408 1064 381 1043 l 539 1064 l 539 1046 q 491 983 518 1019 q 438 908 464 946 q 394 842 413 871 l 190 842 z "},"ſ":{"ha":451,"x_min":94,"x_max":492,"o":"m 365 892 q 320 868 333 892 q 307 794 307 844 l 307 0 l 94 0 l 94 786 q 120 948 94 888 q 196 1035 146 1008 q 322 1063 246 1063 q 411 1054 372 1063 q 492 1029 450 1046 l 449 875 q 408 887 429 882 q 365 892 388 892 z "},"ƒ":{"ha":640,"x_min":-10,"x_max":675,"o":"m 242 -337 q 53 -275 117 -337 q -10 -110 -10 -212 q -3 -50 -10 -79 q 11 -4 3 -21 l 174 -54 q 168 -76 169 -65 q 167 -100 167 -86 q 183 -151 167 -135 q 224 -168 199 -168 q 265 -146 250 -168 q 281 -83 281 -124 l 281 594 l 188 594 l 188 704 l 281 763 l 281 786 q 305 945 281 885 q 378 1034 329 1006 q 504 1063 428 1063 q 591 1054 553 1063 q 675 1029 629 1046 l 629 876 q 590 887 610 883 q 547 890 569 890 q 505 868 518 890 q 492 796 492 846 l 492 764 l 629 764 l 629 594 l 492 594 l 492 -69 q 460 -214 492 -154 q 374 -306 429 -274 q 242 -337 318 -337 z "},"Ǻ":{"ha":826,"x_min":0,"x_max":828,"o":"m 265 918 q 249 951 256 933 q 243 992 243 969 q 290 1112 243 1065 q 413 1158 336 1158 q 535 1112 486 1158 q 583 993 583 1065 q 577 952 583 971 q 560 917 571 933 l 828 0 l 592 0 l 543 207 l 286 207 l 238 0 l 0 0 l 265 918 m 324 394 l 504 394 l 454 607 q 439 674 447 636 q 424 749 431 713 q 413 806 417 785 q 406 765 411 789 q 396 713 401 740 q 385 660 390 686 q 376 613 381 635 l 324 394 m 413 932 q 456 949 439 932 q 474 993 474 967 q 456 1037 474 1021 q 413 1053 439 1053 q 369 1037 386 1053 q 351 993 351 1021 q 367 949 351 967 q 413 932 383 932 m 311 1214 q 362 1271 343 1250 q 392 1306 381 1292 q 414 1335 404 1319 l 661 1335 l 661 1326 q 624 1297 649 1314 q 572 1261 600 1279 q 517 1226 543 1243 q 474 1201 492 1210 l 311 1201 l 311 1214 z "},"ǻ":{"ha":719,"x_min":43,"x_max":640,"o":"m 381 778 q 572 709 504 778 q 640 504 640 640 l 640 0 l 489 0 l 453 101 l 447 101 q 393 37 422 63 q 326 -1 364 11 q 239 -14 289 -14 q 130 19 174 -14 q 65 106 86 51 q 43 229 43 161 q 114 411 43 351 q 322 476 185 471 l 429 481 l 429 506 q 408 588 429 561 q 342 614 386 614 q 260 600 304 614 q 165 558 217 586 l 107 710 q 233 760 164 743 q 381 778 303 778 m 375 346 q 284 315 313 343 q 256 236 256 288 q 274 170 256 192 q 325 149 293 149 q 399 185 369 149 q 429 282 429 221 l 429 349 l 375 346 m 367 1043 q 324 1026 342 1043 q 306 982 306 1010 q 322 938 306 956 q 367 921 338 921 q 410 938 393 921 q 428 982 428 956 q 410 1026 428 1010 q 367 1043 393 1043 m 367 1147 q 454 1126 415 1147 q 517 1069 493 1106 q 540 983 540 1032 q 491 865 540 911 q 367 818 442 818 q 244 864 290 818 q 197 982 197 910 q 244 1101 197 1056 q 367 1147 290 1147 m 613 1328 q 560 1281 596 1310 q 487 1226 524 1253 q 428 1186 450 1199 l 265 1186 l 265 1197 q 315 1260 297 1238 q 346 1301 333 1283 q 369 1336 358 1319 l 613 1336 l 613 1328 z "},"Ǽ":{"ha":1090,"x_min":-4,"x_max":1028,"o":"m 1028 0 l 531 0 l 531 217 l 301 217 l 233 0 l -4 0 l 339 992 l 1028 992 l 1028 808 l 747 808 l 747 606 l 1007 606 l 1007 422 l 747 422 l 747 186 l 1028 186 l 1028 0 m 360 403 l 531 403 l 531 806 l 483 806 l 360 403 m 815 1278 q 774 1233 800 1260 q 717 1176 747 1206 q 655 1119 686 1147 q 599 1069 624 1092 l 450 1069 l 450 1088 q 497 1157 474 1122 q 541 1226 519 1192 q 579 1292 563 1261 l 815 1292 l 815 1278 z "},"ǽ":{"ha":1075,"x_min":43,"x_max":1028,"o":"m 739 776 q 894 735 829 776 q 993 617 958 694 q 1028 429 1028 540 l 1028 321 l 628 321 q 667 193 629 236 q 779 150 704 150 q 884 164 833 150 q 988 208 935 178 l 988 40 q 884 -1 939 13 q 756 -14 829 -14 q 654 0 703 -14 q 566 42 606 14 q 499 115 526 71 q 430 42 465 71 q 352 -1 394 13 q 254 -14 310 -14 q 139 19 186 -14 q 67 106 92 51 q 43 229 43 161 q 76 365 43 311 q 170 446 108 418 q 321 476 232 474 l 426 481 l 426 510 q 405 588 426 563 q 342 614 383 614 q 259 601 303 614 q 167 560 215 588 l 107 711 q 226 760 161 743 q 360 778 292 778 q 468 759 422 778 q 544 703 514 740 q 628 758 581 740 q 739 776 675 776 m 374 346 q 284 315 313 343 q 256 236 256 288 q 274 170 256 192 q 325 149 292 149 q 377 165 354 149 q 414 212 400 182 q 428 282 428 242 l 428 349 l 374 346 m 735 618 q 661 583 690 618 q 629 467 632 547 l 832 467 q 821 548 832 514 q 788 600 810 582 q 735 618 767 618 m 800 1050 q 758 1005 785 1032 q 701 949 732 978 q 640 892 671 919 q 583 842 608 864 l 435 842 l 435 860 q 481 929 458 894 q 526 999 504 964 q 564 1064 547 1033 l 800 1064 l 800 1050 z "},"Ǿ":{"ha":921,"x_min":63,"x_max":858,"o":"m 858 497 q 833 281 858 375 q 759 120 808 186 q 635 20 710 54 q 461 -14 560 -14 q 363 -4 408 -14 q 279 25 318 6 l 229 -71 l 121 -14 l 182 99 q 90 274 118 175 q 63 499 63 374 q 107 774 63 661 q 240 947 151 888 q 461 1007 329 1007 q 564 996 517 1007 q 650 963 611 985 l 696 1049 l 803 993 l 746 888 q 831 724 803 824 q 858 497 858 625 m 633 497 q 618 657 633 590 l 371 201 q 412 178 389 186 q 461 169 435 169 q 559 207 521 169 q 615 317 597 244 q 633 497 633 390 m 288 497 q 292 402 288 446 q 306 322 296 358 l 558 785 q 515 814 539 804 q 461 824 490 824 q 364 786 403 824 q 306 676 325 749 q 288 497 288 604 m 714 1278 q 672 1233 699 1260 q 615 1176 646 1206 q 553 1119 585 1147 q 497 1069 522 1092 l 349 1069 l 349 1088 q 395 1157 372 1122 q 440 1226 418 1192 q 478 1292 461 1261 l 714 1292 l 714 1278 z "},"ǿ":{"ha":754,"x_min":51,"x_max":701,"o":"m 701 383 q 663 169 701 258 q 551 33 624 81 q 375 -14 479 -14 q 306 -7 339 -14 q 243 14 274 0 l 196 -76 l 93 -24 l 150 81 q 76 215 100 140 q 51 383 51 289 q 138 675 51 572 q 379 778 224 778 q 450 770 417 778 q 513 747 483 763 l 554 822 l 654 768 l 607 678 q 677 553 653 628 q 701 383 701 478 m 256 382 q 258 326 256 351 q 264 279 260 301 l 436 594 q 410 610 425 606 q 376 614 394 614 q 284 556 313 614 q 256 382 256 499 m 497 383 q 496 433 497 410 q 492 478 494 457 l 322 165 q 347 153 333 157 q 376 149 361 149 q 448 175 421 149 q 486 254 475 201 q 497 383 497 307 m 631 1050 q 589 1005 615 1032 q 532 949 563 978 q 470 892 501 919 q 414 842 439 864 l 265 842 l 265 860 q 312 929 289 894 q 356 999 335 964 q 394 1064 378 1033 l 631 1064 l 631 1050 z "},"Ș":{"ha":668,"x_min":49,"x_max":625,"o":"m 625 293 q 587 135 625 204 q 476 26 549 65 q 301 -14 404 -14 q 212 -8 254 -14 q 129 10 169 -3 q 49 44 89 24 l 49 260 q 175 203 110 224 q 297 182 240 182 q 358 194 335 182 q 393 226 382 206 q 404 274 404 247 q 392 324 404 301 q 347 370 379 347 q 260 424 315 393 q 178 476 215 449 q 114 536 142 503 q 71 615 86 569 q 56 721 56 660 q 92 873 56 810 q 199 971 129 936 q 365 1006 268 1006 q 497 988 433 1006 q 624 938 561 971 l 561 753 q 459 797 507 782 q 368 813 411 813 q 316 802 338 813 q 284 774 294 792 q 274 732 274 756 q 287 679 274 701 q 333 635 300 657 q 425 579 365 613 q 535 504 490 544 q 602 413 579 464 q 625 293 625 363 m 435 -100 q 408 -170 424 -135 q 376 -240 393 -206 q 338 -307 358 -274 l 204 -307 l 204 -289 q 217 -226 211 -264 q 228 -151 224 -189 q 235 -85 233 -112 l 435 -85 l 435 -100 z "},"ș":{"ha":585,"x_min":44,"x_max":543,"o":"m 543 229 q 512 97 543 151 q 419 14 481 42 q 269 -14 358 -14 q 152 -4 207 -14 q 46 29 97 6 l 46 221 q 149 176 93 194 q 256 158 206 158 q 315 173 296 158 q 335 215 335 188 q 326 247 335 232 q 290 278 318 261 q 206 322 263 296 q 117 381 153 349 q 63 457 81 414 q 44 557 44 500 q 114 720 44 663 q 306 778 183 778 q 422 762 367 778 q 535 715 478 746 l 478 560 q 395 599 438 583 q 313 614 353 614 q 265 602 281 614 q 249 568 249 590 q 257 539 249 551 q 292 510 265 526 q 372 467 319 494 q 463 408 425 440 q 522 333 501 376 q 543 229 543 290 m 393 -100 q 367 -170 382 -135 q 334 -240 351 -206 q 296 -307 317 -274 l 163 -307 l 163 -289 q 176 -226 169 -264 q 187 -151 182 -189 q 193 -85 192 -112 l 393 -85 l 393 -100 z "},"ˆ":{"ha":604,"x_min":56,"x_max":549,"o":"m 404 1064 q 446 999 422 1033 q 497 928 469 964 q 549 860 524 893 l 549 842 l 418 842 q 363 888 392 861 q 301 950 333 915 q 241 888 269 915 q 189 842 213 861 l 56 842 l 56 860 q 106 924 78 886 q 160 999 133 961 q 200 1064 186 1038 l 404 1064 z "},"ˇ":{"ha":604,"x_min":56,"x_max":549,"o":"m 200 842 q 160 908 186 869 q 106 983 133 946 q 56 1046 78 1021 l 56 1064 l 189 1064 q 244 1017 215 1043 q 301 956 272 990 q 362 1017 333 992 q 418 1064 390 1043 l 549 1064 l 549 1046 q 501 983 528 1019 q 448 908 474 946 q 404 842 422 871 l 200 842 z "},"ˉ":{"ha":532,"x_min":56,"x_max":476,"o":"m 476 1001 l 476 854 l 56 854 l 56 1001 l 476 1001 z "},"˘":{"ha":567,"x_min":56,"x_max":511,"o":"m 511 1081 q 480 954 510 1008 q 399 871 450 900 q 282 842 349 842 q 119 903 179 842 q 56 1081 58 965 l 178 1081 q 194 1024 182 1044 q 229 995 207 1004 q 282 986 251 986 q 334 995 311 986 q 372 1024 357 1004 q 389 1081 386 1044 l 511 1081 z "},"˙":{"ha":338,"x_min":56,"x_max":282,"o":"m 169 1067 q 253 1040 224 1067 q 282 957 282 1014 q 252 874 282 900 q 169 849 222 849 q 86 874 117 849 q 56 957 56 900 q 85 1041 56 1015 q 169 1067 114 1067 z "},"˚":{"ha":450,"x_min":56,"x_max":394,"o":"m 224 840 q 102 886 149 840 q 56 1004 56 932 q 101 1125 56 1079 q 224 1171 147 1171 q 347 1124 299 1171 q 394 1006 394 1078 q 347 887 394 933 q 224 840 300 840 m 225 946 q 267 963 250 946 q 285 1006 285 979 q 267 1050 285 1033 q 225 1067 250 1067 q 181 1049 199 1067 q 164 1006 164 1032 q 180 963 164 979 q 225 946 196 946 z "},"˛":{"ha":382,"x_min":56,"x_max":326,"o":"m 210 -139 q 225 -179 210 -164 q 267 -194 240 -194 q 301 -190 286 -194 q 326 -181 315 -186 l 326 -311 q 284 -324 310 -318 q 226 -331 258 -331 q 99 -290 143 -331 q 56 -179 56 -249 q 69 -111 56 -146 q 112 -42 83 -76 q 188 24 140 -8 l 289 0 q 227 -76 244 -46 q 210 -139 210 -107 z "},"˜":{"ha":608,"x_min":56,"x_max":553,"o":"m 56 840 q 65 918 57 879 q 88 989 72 957 q 130 1040 104 1021 q 194 1058 156 1058 q 249 1049 222 1058 q 300 1025 275 1039 q 349 1001 325 1011 q 397 990 374 990 q 426 1008 415 990 q 444 1060 438 1025 l 553 1060 q 510 896 550 950 q 413 842 469 842 q 358 851 386 842 q 304 875 331 861 q 254 899 278 889 q 211 910 231 910 q 183 894 197 910 q 164 840 168 878 l 56 840 z "},"˝":{"ha":671,"x_min":56,"x_max":615,"o":"m 615 1050 q 583 1003 606 1031 q 531 947 560 976 q 471 889 501 917 q 417 842 440 861 l 308 842 l 308 860 q 352 939 331 900 q 392 1010 374 978 q 418 1064 410 1043 l 615 1064 l 615 1050 m 363 1050 q 330 1003 353 1031 q 278 947 307 976 q 217 891 249 918 q 158 842 186 864 l 56 842 l 56 860 q 99 940 78 901 q 138 1010 121 978 q 167 1064 156 1043 l 363 1064 l 363 1050 z "},"΄":{"ha":407,"x_min":56,"x_max":351,"o":"m 56 842 l 56 860 l 121 1078 l 351 1078 l 351 1064 l 199 842 l 56 842 z "},"΅":{"ha":950,"x_min":126,"x_max":828,"o":"m 350 842 l 350 860 l 401 1078 l 632 1078 l 632 1064 l 492 842 l 350 842 m 221 856 q 153 881 179 856 q 126 953 126 906 q 153 1027 126 1003 q 221 1051 179 1051 q 290 1026 264 1051 q 317 953 317 1001 q 290 881 317 907 q 221 856 264 856 m 731 856 q 662 881 689 856 q 635 953 635 907 q 662 1027 635 1003 q 731 1051 689 1051 q 801 1026 775 1051 q 828 953 828 1001 q 801 881 828 907 q 731 856 775 856 z "},"Ά":{"ha":983,"x_min":14,"x_max":983,"o":"m 749 0 l 699 217 l 444 217 l 394 0 l 157 0 l 426 993 l 711 993 l 985 0 l 749 0 m 610 633 q 596 701 603 665 q 583 772 589 738 q 571 833 576 806 q 561 772 568 807 q 547 702 554 738 q 533 636 540 667 l 482 403 l 661 403 l 610 633 m 14 756 l 14 774 l 79 992 l 310 992 l 310 978 l 157 756 l 14 756 z "},"·":{"ha":375,"x_min":68,"x_max":308,"o":"m 68 651 q 101 744 68 714 q 190 774 133 774 q 276 744 244 774 q 308 653 308 714 q 276 561 308 592 q 190 531 243 531 q 101 561 135 531 q 68 651 68 592 z "},"Έ":{"ha":963,"x_min":14,"x_max":901,"o":"m 901 0 l 404 0 l 404 992 l 901 992 l 901 808 l 624 808 l 624 606 l 881 606 l 881 422 l 624 422 l 624 186 l 901 186 l 901 0 m 14 756 l 14 774 l 79 992 l 310 992 l 310 978 l 157 756 l 14 756 z "},"Ή":{"ha":1206,"x_min":14,"x_max":1110,"o":"m 1110 0 l 890 0 l 890 422 l 624 422 l 624 0 l 404 0 l 404 992 l 624 992 l 624 608 l 890 608 l 890 992 l 1110 992 l 1110 0 m 14 756 l 14 774 l 79 992 l 310 992 l 310 978 l 157 756 l 14 756 z "},"Ί":{"ha":839,"x_min":14,"x_max":799,"o":"m 799 0 l 378 0 l 378 119 l 479 165 l 479 826 l 378 872 l 378 992 l 799 992 l 799 872 l 699 826 l 699 165 l 799 119 l 799 0 m 14 756 l 14 774 l 79 992 l 310 992 l 310 978 l 157 756 l 14 756 z "},"Ό":{"ha":1161,"x_min":14,"x_max":1099,"o":"m 1099 497 q 1074 283 1099 378 q 1001 122 1050 189 q 876 21 951 56 q 701 -14 801 -14 q 526 21 601 -14 q 402 122 451 56 q 328 284 353 189 q 303 499 303 379 q 347 774 303 661 q 481 947 392 888 q 701 1007 569 1007 q 924 946 836 1007 q 1056 771 1013 885 q 1099 497 1099 657 m 532 497 q 550 321 532 393 q 606 213 568 249 q 701 176 644 176 q 797 212 760 176 q 851 319 833 247 q 869 497 869 390 q 829 739 869 657 q 701 821 789 821 q 606 783 644 821 q 550 674 568 746 q 532 497 532 603 m 14 756 l 14 774 l 79 992 l 310 992 l 310 978 l 157 756 l 14 756 z "},"Ύ":{"ha":1131,"x_min":14,"x_max":1131,"o":"m 756 607 l 901 992 l 1131 992 l 864 383 l 864 0 l 646 0 l 646 376 l 379 992 l 610 992 l 756 607 m 14 756 l 14 774 l 79 992 l 310 992 l 310 978 l 157 756 l 14 756 z "},"Ώ":{"ha":1115,"x_min":14,"x_max":1086,"o":"m 282 0 l 282 186 l 457 186 q 360 278 399 224 q 304 405 322 333 q 286 560 286 476 q 334 797 286 696 q 472 952 382 897 q 685 1007 561 1007 q 894 952 806 1007 q 1033 797 983 897 q 1082 561 1082 697 q 1064 406 1082 476 q 1008 281 1046 336 q 907 186 969 225 l 1086 186 l 1086 0 l 735 0 l 735 207 q 810 292 782 242 q 849 406 838 342 q 861 549 861 471 q 840 698 861 638 q 781 790 819 758 q 685 821 742 821 q 590 790 629 821 q 529 699 550 760 q 508 546 508 638 q 519 405 508 469 q 558 290 531 340 q 632 207 585 240 l 632 0 l 282 0 m 14 756 l 14 774 l 79 992 l 310 992 l 310 978 l 157 756 l 14 756 z "},"ΐ":{"ha":461,"x_min":-100,"x_max":601,"o":"m 315 -14 q 185 17 238 -12 q 108 105 133 47 q 82 246 82 163 l 82 764 l 293 764 l 293 268 q 312 190 293 214 q 363 165 331 165 q 397 169 381 165 q 432 178 414 172 l 432 3 q 376 -10 407 -6 q 315 -14 344 -14 m 124 842 l 124 860 l 175 1078 l 406 1078 l 406 1064 l 265 842 l 124 842 m -6 856 q -74 881 -47 856 q -100 953 -100 906 q -74 1027 -100 1003 q -6 1051 -47 1051 q 64 1026 38 1051 q 90 953 90 1001 q 64 881 90 907 q -6 856 38 856 m 504 856 q 435 881 463 856 q 408 953 408 907 q 435 1027 408 1003 q 504 1051 463 1051 q 575 1026 549 1051 q 601 953 601 1001 q 575 881 601 907 q 504 856 549 856 z "},"Α":{"ha":828,"x_min":0,"x_max":828,"o":"m 592 0 l 542 217 l 288 217 l 238 0 l 0 0 l 269 993 l 554 993 l 828 0 l 592 0 m 453 633 q 439 701 446 665 q 426 772 432 738 q 414 833 419 806 q 404 772 411 807 q 390 702 397 738 q 376 636 383 667 l 325 403 l 504 403 l 453 633 z "},"Β":{"ha":807,"x_min":94,"x_max":744,"o":"m 383 992 q 642 932 558 992 q 726 744 726 872 q 709 642 726 688 q 660 567 692 596 q 588 526 629 538 l 588 519 q 673 478 638 507 q 726 402 708 449 q 744 289 744 356 q 706 135 744 200 q 594 35 667 71 q 419 0 521 0 l 94 0 l 94 992 l 383 992 m 388 600 q 476 629 449 600 q 504 714 504 658 q 474 790 504 764 q 383 815 444 815 l 314 815 l 314 600 l 388 600 m 314 429 l 314 181 l 401 181 q 492 213 464 181 q 519 307 519 246 q 507 372 519 346 q 467 414 494 399 q 396 429 439 429 l 314 429 z "},"Γ":{"ha":621,"x_min":94,"x_max":571,"o":"m 94 0 l 94 992 l 571 992 l 571 808 l 313 808 l 313 0 l 94 0 z "},"Δ":{"ha":819,"x_min":14,"x_max":806,"o":"m 14 0 l 14 111 l 265 993 l 550 993 l 806 110 l 806 0 l 14 0 m 263 186 l 557 186 l 453 633 q 438 701 446 665 q 422 772 429 738 q 410 833 415 806 q 399 772 407 807 q 383 702 392 738 q 367 636 375 667 l 263 186 z "},"Ε":{"ha":654,"x_min":94,"x_max":592,"o":"m 592 0 l 94 0 l 94 992 l 592 992 l 592 808 l 314 808 l 314 606 l 571 606 l 571 422 l 314 422 l 314 186 l 592 186 l 592 0 z "},"Ζ":{"ha":683,"x_min":32,"x_max":653,"o":"m 653 0 l 32 0 l 32 150 l 397 807 l 40 807 l 40 992 l 643 992 l 643 842 l 279 186 l 653 186 l 653 0 z "},"Η":{"ha":896,"x_min":94,"x_max":800,"o":"m 800 0 l 581 0 l 581 422 l 314 422 l 314 0 l 94 0 l 94 992 l 314 992 l 314 608 l 581 608 l 581 992 l 800 992 l 800 0 z "},"Θ":{"ha":921,"x_min":63,"x_max":858,"o":"m 344 417 l 344 590 l 576 590 l 576 417 l 344 417 m 858 497 q 834 283 858 378 q 760 122 810 189 q 636 21 711 56 q 461 -14 561 -14 q 286 21 361 -14 q 161 122 211 56 q 87 284 111 189 q 63 499 63 379 q 107 774 63 661 q 240 947 151 888 q 461 1007 329 1007 q 684 946 596 1007 q 815 771 772 885 q 858 497 858 657 m 292 497 q 310 321 292 393 q 366 213 328 249 q 461 176 404 176 q 556 212 519 176 q 611 319 593 247 q 629 497 629 390 q 589 739 629 657 q 461 821 549 821 q 366 784 404 821 q 310 675 328 747 q 292 497 292 603 z "},"Ι":{"ha":501,"x_min":40,"x_max":461,"o":"m 461 0 l 40 0 l 40 119 l 142 165 l 142 826 l 40 872 l 40 992 l 461 992 l 461 872 l 361 826 l 361 165 l 461 119 l 461 0 z "},"Κ":{"ha":796,"x_min":94,"x_max":804,"o":"m 804 0 l 560 0 l 381 392 l 314 342 l 314 0 l 94 0 l 94 992 l 314 992 l 314 547 q 341 608 325 576 q 378 675 357 639 l 567 992 l 804 992 l 538 549 l 804 0 z "},"Λ":{"ha":819,"x_min":0,"x_max":819,"o":"m 0 0 l 265 993 l 550 993 l 819 0 l 583 0 l 447 633 q 433 701 440 665 q 421 772 426 738 q 410 833 415 806 q 401 772 407 807 q 388 702 394 738 q 374 636 381 667 l 238 0 l 0 0 z "},"Μ":{"ha":1164,"x_min":94,"x_max":1069,"o":"m 486 0 l 290 715 l 285 715 q 291 632 289 676 q 294 545 293 588 q 296 465 296 503 l 296 0 l 94 0 l 94 992 l 394 992 l 579 324 l 583 324 l 771 992 l 1069 992 l 1069 0 l 861 0 l 861 469 q 863 549 861 507 q 866 634 864 592 q 871 715 868 676 l 865 715 l 665 0 l 486 0 z "},"Ν":{"ha":963,"x_min":94,"x_max":868,"o":"m 868 0 l 603 0 l 290 678 l 285 678 q 291 585 289 631 q 294 501 293 540 q 296 429 296 463 l 296 0 l 94 0 l 94 992 l 358 992 l 671 328 l 675 328 q 670 416 672 374 q 667 497 668 458 q 665 567 665 536 l 665 992 l 868 992 l 868 0 z "},"Ξ":{"ha":736,"x_min":63,"x_max":674,"o":"m 63 0 l 63 186 l 674 186 l 674 0 l 63 0 m 129 425 l 129 611 l 607 611 l 607 425 l 129 425 m 85 806 l 85 992 l 653 992 l 653 806 l 85 806 z "},"Ο":{"ha":921,"x_min":63,"x_max":858,"o":"m 858 497 q 834 283 858 378 q 760 122 810 189 q 636 21 711 56 q 461 -14 561 -14 q 286 21 361 -14 q 162 122 211 56 q 88 284 113 189 q 63 499 63 379 q 107 774 63 661 q 240 947 151 888 q 461 1007 329 1007 q 684 946 596 1007 q 815 771 772 885 q 858 497 858 657 m 292 497 q 310 321 292 393 q 366 213 328 249 q 461 176 404 176 q 556 212 519 176 q 611 319 593 247 q 629 497 629 390 q 589 739 629 657 q 461 821 549 821 q 366 783 404 821 q 310 674 328 746 q 292 497 292 603 z "},"Π":{"ha":892,"x_min":94,"x_max":796,"o":"m 94 0 l 94 992 l 796 992 l 796 0 l 576 0 l 576 804 l 314 804 l 314 0 l 94 0 z "},"Ρ":{"ha":753,"x_min":94,"x_max":707,"o":"m 383 992 q 627 911 547 992 q 707 681 707 831 q 688 547 707 608 q 628 439 668 485 q 524 367 588 393 q 374 342 461 342 l 314 342 l 314 0 l 94 0 l 94 992 l 383 992 m 368 808 l 314 808 l 314 525 l 351 525 q 425 540 394 525 q 472 589 456 556 q 488 678 488 622 q 458 776 488 743 q 368 808 429 808 z "},"Σ":{"ha":682,"x_min":32,"x_max":651,"o":"m 32 0 l 32 174 l 268 519 l 42 822 l 42 992 l 643 992 l 643 808 l 418 808 q 351 810 385 808 q 290 815 317 811 l 486 553 l 486 507 l 261 178 q 337 184 299 182 q 410 186 375 186 l 651 186 l 651 0 l 32 0 z "},"Τ":{"ha":675,"x_min":24,"x_max":650,"o":"m 446 0 l 229 0 l 229 804 l 24 804 l 24 992 l 650 992 l 650 804 l 446 804 l 446 0 z "},"Υ":{"ha":751,"x_min":0,"x_max":751,"o":"m 376 607 l 522 992 l 751 992 l 485 383 l 485 0 l 267 0 l 267 376 l 0 992 l 231 992 l 376 607 z "},"Φ":{"ha":1118,"x_min":49,"x_max":1069,"o":"m 454 -14 l 454 125 q 267 155 344 125 q 141 238 189 185 q 71 363 93 292 q 49 514 49 433 q 69 660 49 590 q 138 782 90 729 q 263 866 185 835 q 454 897 340 897 l 454 1006 l 664 1006 l 664 897 q 848 867 771 897 q 974 783 925 836 q 1046 660 1022 729 q 1069 514 1069 590 q 1047 363 1069 433 q 975 240 1024 293 q 849 156 926 186 q 664 125 772 125 l 664 -14 l 454 -14 m 454 301 l 454 719 q 338 694 381 719 q 279 623 296 668 q 263 515 263 578 q 280 400 263 447 q 340 328 297 353 q 454 301 382 303 m 664 301 q 778 329 736 303 q 838 403 821 356 q 856 515 856 451 q 838 620 856 575 q 778 692 819 665 q 664 719 736 719 l 664 301 z "},"Χ":{"ha":769,"x_min":0,"x_max":769,"o":"m 769 0 l 529 0 l 383 321 l 233 0 l 0 0 l 254 503 l 18 992 l 249 992 l 381 685 l 508 992 l 743 992 l 508 501 l 769 0 z "},"Ψ":{"ha":1069,"x_min":90,"x_max":981,"o":"m 431 0 l 431 236 q 285 260 349 238 q 178 325 221 282 q 113 433 135 368 q 90 589 90 499 l 90 992 l 306 992 l 306 583 q 319 488 306 524 q 361 436 333 451 q 431 421 389 421 l 431 992 l 640 992 l 640 421 q 709 437 682 421 q 750 488 736 453 q 764 581 764 522 l 764 992 l 981 992 l 981 603 q 940 400 981 481 q 824 279 900 319 q 640 236 747 239 l 640 0 l 431 0 z "},"Ω":{"ha":861,"x_min":28,"x_max":832,"o":"m 28 0 l 28 186 l 203 186 q 106 278 144 224 q 50 405 68 333 q 32 560 32 476 q 80 797 32 696 q 217 952 128 897 q 431 1007 307 1007 q 640 952 551 1007 q 778 797 729 897 q 828 561 828 697 q 810 406 828 476 q 753 281 792 336 q 653 186 715 225 l 832 186 l 832 0 l 481 0 l 481 207 q 556 292 528 242 q 595 406 583 342 q 607 549 607 471 q 586 698 607 638 q 526 790 565 758 q 431 821 488 821 q 335 790 375 821 q 275 699 296 760 q 254 546 254 638 q 265 405 254 469 q 303 290 276 340 q 378 207 331 240 l 378 0 l 28 0 z "},"Ϊ":{"ha":501,"x_min":19,"x_max":482,"o":"m 461 0 l 40 0 l 40 119 l 142 165 l 142 826 l 40 872 l 40 992 l 461 992 l 461 872 l 361 826 l 361 165 l 461 119 l 461 0 m 19 1181 q 46 1255 19 1231 q 114 1279 72 1279 q 183 1254 157 1279 q 210 1181 210 1229 q 183 1109 210 1135 q 114 1083 157 1083 q 46 1108 72 1083 q 19 1181 19 1133 m 290 1181 q 317 1255 290 1231 q 386 1279 343 1279 q 456 1254 429 1279 q 482 1181 482 1229 q 456 1109 482 1135 q 386 1083 429 1083 q 317 1109 343 1083 q 290 1181 290 1135 z "},"Ϋ":{"ha":751,"x_min":0,"x_max":751,"o":"m 376 607 l 522 992 l 751 992 l 485 383 l 485 0 l 267 0 l 267 376 l 0 992 l 231 992 l 376 607 m 144 1181 q 171 1255 144 1231 q 239 1279 197 1279 q 308 1254 282 1279 q 335 1181 335 1229 q 308 1109 335 1135 q 239 1083 282 1083 q 171 1108 197 1083 q 144 1181 144 1133 m 415 1181 q 442 1255 415 1231 q 511 1279 468 1279 q 581 1254 554 1279 q 607 1181 607 1229 q 581 1109 607 1135 q 511 1083 554 1083 q 442 1109 468 1083 q 415 1181 415 1135 z "},"ά":{"ha":799,"x_min":51,"x_max":768,"o":"m 290 -14 q 162 33 215 -14 q 80 169 108 81 q 51 378 51 257 q 116 672 51 568 q 299 776 181 776 q 378 762 346 776 q 432 723 410 747 q 472 667 454 699 l 482 667 l 499 764 l 681 764 l 681 249 q 694 185 681 206 q 731 164 708 164 q 752 167 742 164 q 768 171 763 169 l 768 4 q 747 -4 764 0 q 710 -11 729 -8 q 681 -14 692 -14 q 559 13 604 -14 q 490 100 514 39 l 476 100 q 429 40 457 65 q 367 0 401 14 q 290 -14 333 -14 m 367 163 q 428 183 404 163 q 463 247 451 203 q 475 364 475 290 l 475 385 q 450 548 475 496 q 364 600 425 600 q 290 542 314 600 q 265 376 265 485 q 290 215 265 268 q 367 163 315 163 m 290 842 l 290 860 l 356 1078 l 586 1078 l 586 1064 l 433 842 l 290 842 z "},"έ":{"ha":596,"x_min":38,"x_max":561,"o":"m 329 -14 q 111 48 185 -14 q 38 214 38 110 q 58 304 38 267 q 113 365 78 342 q 190 396 147 388 l 190 403 q 101 463 131 419 q 71 569 71 507 q 103 681 71 635 q 196 753 136 728 q 336 778 256 778 q 449 766 394 778 q 561 721 504 754 l 506 568 q 433 602 468 592 q 364 613 399 613 q 292 593 315 613 q 269 542 269 574 q 293 490 269 508 q 367 471 317 471 l 444 471 l 444 313 l 363 313 q 295 303 321 313 q 259 277 269 294 q 249 236 249 260 q 278 176 249 196 q 364 156 308 156 q 467 172 425 156 q 554 218 510 188 l 554 44 q 449 -1 504 13 q 329 -14 394 -14 m 258 842 l 258 860 l 324 1078 l 554 1078 l 554 1064 l 401 842 l 258 842 z "},"ή":{"ha":765,"x_min":82,"x_max":685,"o":"m 474 -333 l 474 440 q 458 556 474 517 q 394 596 442 596 q 334 572 357 596 q 302 494 311 547 q 293 356 293 442 l 293 0 l 82 0 l 82 764 l 246 764 l 271 668 l 283 668 q 330 728 303 704 q 392 765 357 753 q 464 778 426 778 q 584 747 535 778 q 659 653 633 715 q 685 500 685 592 l 685 -333 l 474 -333 m 282 842 l 282 860 l 347 1078 l 578 1078 l 578 1064 l 425 842 l 282 842 z "},"ί":{"ha":461,"x_min":82,"x_max":432,"o":"m 315 -14 q 185 17 238 -12 q 108 105 133 47 q 82 246 82 163 l 82 764 l 293 764 l 293 268 q 312 190 293 214 q 363 165 331 165 q 397 169 381 165 q 432 178 414 172 l 432 3 q 376 -10 407 -6 q 315 -14 344 -14 m 125 842 l 125 860 l 190 1078 l 421 1078 l 421 1064 l 268 842 l 125 842 z "},"ΰ":{"ha":758,"x_min":76,"x_max":776,"o":"m 364 -12 q 228 10 283 -12 q 141 72 174 32 q 94 171 108 113 q 81 301 81 229 l 81 764 l 292 764 l 292 307 q 297 230 292 261 q 320 183 303 199 q 371 168 338 168 q 432 192 408 168 q 465 268 456 215 q 475 408 475 321 q 464 580 475 493 q 432 764 453 667 l 643 764 q 669 637 660 694 q 682 525 678 579 q 686 408 686 471 q 605 92 686 196 q 364 -12 524 -12 m 299 842 l 299 860 l 350 1078 l 581 1078 l 581 1064 l 440 842 l 299 842 m 169 856 q 101 881 128 856 q 75 953 75 906 q 101 1027 75 1003 q 169 1051 128 1051 q 239 1026 213 1051 q 265 953 265 1001 q 239 881 265 907 q 169 856 213 856 m 679 856 q 610 881 638 856 q 583 953 583 907 q 610 1027 583 1003 q 679 1051 638 1051 q 750 1026 724 1051 q 776 953 776 1001 q 750 881 776 907 q 679 856 724 856 z "},"α":{"ha":799,"x_min":51,"x_max":768,"o":"m 290 -14 q 162 33 215 -14 q 80 169 108 81 q 51 378 51 257 q 116 672 51 568 q 299 776 181 776 q 378 762 346 776 q 432 723 410 747 q 472 667 454 699 l 482 667 l 499 764 l 681 764 l 681 249 q 694 185 681 206 q 731 164 708 164 q 752 167 742 164 q 768 171 763 169 l 768 4 q 747 -4 764 0 q 710 -11 729 -8 q 681 -14 692 -14 q 559 13 604 -14 q 490 100 514 39 l 476 100 q 429 40 457 65 q 367 0 401 14 q 290 -14 333 -14 m 367 163 q 428 183 404 163 q 463 247 451 203 q 475 364 475 290 l 475 385 q 450 548 475 496 q 364 600 425 600 q 290 542 314 600 q 265 376 265 485 q 290 215 265 268 q 367 163 315 163 z "},"β":{"ha":763,"x_min":82,"x_max":711,"o":"m 82 -333 l 82 744 q 116 919 82 849 q 217 1026 150 990 q 382 1063 285 1063 q 530 1031 467 1063 q 628 941 593 1000 q 663 796 663 882 q 642 681 663 729 q 585 603 621 632 q 506 563 550 574 l 506 558 q 618 515 572 546 q 688 430 664 483 q 711 297 711 376 q 677 131 711 201 q 583 24 643 61 q 440 -14 522 -14 q 379 -9 404 -14 q 335 6 354 -4 q 293 28 315 15 l 293 -333 l 82 -333 m 386 164 q 467 202 439 164 q 496 317 496 240 q 481 396 496 364 q 441 445 467 428 q 379 463 415 463 l 338 463 l 338 631 l 369 631 q 415 647 397 631 q 442 694 433 664 q 451 765 451 724 q 433 859 451 826 q 374 892 414 892 q 328 876 346 892 q 301 830 310 861 q 293 750 293 799 l 293 204 q 336 175 313 186 q 386 164 360 164 z "},"γ":{"ha":703,"x_min":3,"x_max":658,"o":"m 215 -293 l 215 -6 l 3 764 l 221 764 l 322 315 q 331 276 326 296 q 339 236 335 256 q 344 199 343 217 l 350 199 q 405 371 383 283 q 436 554 426 458 q 446 764 446 650 l 658 764 q 635 493 658 619 q 560 249 611 367 q 426 11 510 131 l 426 -293 l 215 -293 z "},"δ":{"ha":731,"x_min":38,"x_max":678,"o":"m 354 -14 q 182 24 253 -14 q 74 133 111 61 q 38 301 38 204 q 62 444 38 382 q 133 550 86 506 q 249 621 181 594 q 181 683 208 650 q 139 755 153 715 q 125 839 125 794 q 158 959 125 910 q 251 1035 190 1008 q 397 1061 313 1061 q 492 1052 447 1061 q 575 1026 536 1043 q 647 981 614 1008 l 572 822 q 488 878 529 861 q 408 896 447 896 q 365 888 382 896 q 339 865 347 879 q 331 833 331 851 q 341 799 331 817 q 377 758 351 781 q 450 704 403 736 q 581 594 531 651 q 654 470 631 538 q 678 315 678 403 q 640 142 678 215 q 528 27 601 68 q 354 -14 456 -14 m 356 158 q 415 178 390 158 q 451 233 439 197 q 464 321 464 269 q 453 404 464 367 q 419 472 442 442 q 364 525 397 503 q 317 495 338 515 q 281 448 296 475 q 258 388 267 421 q 250 317 250 354 q 263 231 250 267 q 299 177 275 196 q 356 158 324 158 z "},"ε":{"ha":596,"x_min":38,"x_max":561,"o":"m 329 -14 q 111 48 185 -14 q 38 214 38 110 q 58 304 38 267 q 113 365 78 342 q 190 396 147 388 l 190 403 q 101 463 131 419 q 71 569 71 507 q 103 681 71 635 q 196 753 136 728 q 336 778 256 778 q 449 766 394 778 q 561 721 504 754 l 506 568 q 433 602 468 592 q 364 613 399 613 q 292 593 315 613 q 269 542 269 574 q 293 490 269 508 q 367 471 317 471 l 444 471 l 444 313 l 363 313 q 295 303 321 313 q 259 277 269 294 q 249 236 249 260 q 278 176 249 196 q 364 156 308 156 q 467 172 425 156 q 554 218 510 188 l 554 44 q 449 -1 504 13 q 329 -14 394 -14 z "},"ζ":{"ha":582,"x_min":51,"x_max":586,"o":"m 315 -281 q 363 -187 346 -231 q 381 -111 381 -143 q 373 -68 381 -85 q 342 -38 365 -51 q 275 -12 319 -25 q 156 44 207 10 q 78 135 106 79 q 51 271 51 190 q 76 424 51 350 q 147 576 100 497 q 263 753 194 656 l 365 901 q 331 894 350 897 q 289 889 311 890 q 244 888 267 888 l 78 888 l 78 1056 l 586 1056 l 586 921 l 424 672 q 337 534 372 596 q 283 419 301 472 q 264 317 264 367 q 276 251 264 281 q 319 198 288 221 q 413 157 351 175 q 515 111 476 139 q 569 45 553 83 q 586 -47 586 7 q 576 -128 586 -86 q 549 -208 565 -169 q 511 -281 532 -247 l 315 -281 z "},"η":{"ha":765,"x_min":82,"x_max":685,"o":"m 474 -333 l 474 440 q 458 556 474 517 q 394 596 442 596 q 334 572 357 596 q 302 494 311 547 q 293 356 293 442 l 293 0 l 82 0 l 82 764 l 246 764 l 271 668 l 283 668 q 330 728 303 704 q 392 765 357 753 q 464 778 426 778 q 584 747 535 778 q 659 653 633 715 q 685 500 685 592 l 685 -333 l 474 -333 z "},"θ":{"ha":744,"x_min":51,"x_max":692,"o":"m 369 -14 q 192 44 263 -14 q 86 223 121 103 q 51 529 51 343 q 85 827 51 708 q 190 1004 119 946 q 371 1063 261 1063 q 549 1005 478 1063 q 656 828 621 947 q 692 529 692 710 q 658 224 692 344 q 552 45 624 104 q 369 -14 481 -14 m 369 150 q 431 177 407 150 q 468 268 456 204 q 482 442 481 332 l 261 442 q 274 269 263 333 q 310 177 286 204 q 369 150 333 150 m 263 611 l 483 611 q 468 783 481 721 q 432 872 456 846 q 372 899 408 899 q 313 872 336 899 q 277 783 289 846 q 263 611 265 721 z "},"ι":{"ha":461,"x_min":82,"x_max":432,"o":"m 315 -14 q 185 17 238 -12 q 108 105 133 47 q 82 246 82 163 l 82 764 l 293 764 l 293 268 q 312 190 293 214 q 363 165 331 165 q 397 169 381 165 q 432 178 414 172 l 432 3 q 376 -10 407 -6 q 315 -14 344 -14 z "},"κ":{"ha":747,"x_min":82,"x_max":750,"o":"m 739 764 l 513 438 l 750 0 l 517 0 l 368 293 l 293 229 l 293 0 l 82 0 l 82 764 l 293 764 l 293 604 q 292 508 293 554 q 285 418 290 461 l 290 418 q 322 474 306 446 q 354 525 338 501 l 511 764 l 739 764 z "},"λ":{"ha":726,"x_min":3,"x_max":724,"o":"m 624 -14 q 522 8 563 -14 q 453 77 481 31 q 406 199 426 124 l 364 343 q 356 374 360 358 q 348 404 351 389 q 342 435 344 419 q 339 465 340 450 l 333 465 q 325 407 331 435 q 313 353 319 379 l 225 0 l 3 0 l 240 725 l 221 788 q 177 863 203 844 q 111 881 151 881 q 81 878 96 881 q 50 872 65 876 l 50 1051 q 78 1058 63 1056 q 113 1061 94 1060 q 151 1063 132 1063 q 274 1042 224 1064 q 360 972 325 1021 q 419 839 394 922 l 590 264 q 615 204 603 225 q 641 176 626 183 q 675 168 656 168 q 701 170 689 168 q 724 176 713 172 l 724 1 q 695 -6 713 -3 q 660 -12 678 -10 q 624 -14 642 -14 z "},"μ":{"ha":813,"x_min":82,"x_max":782,"o":"m 82 -333 l 82 764 l 293 764 l 293 328 q 311 208 293 249 q 375 167 329 167 q 462 226 440 167 q 483 407 483 286 l 483 764 l 694 764 l 694 249 q 708 185 694 206 q 744 164 722 164 q 765 167 756 164 q 782 171 775 169 l 782 4 q 760 -4 776 0 q 724 -11 743 -8 q 693 -14 706 -14 q 575 12 618 -14 q 507 100 532 38 l 497 100 q 467 38 485 64 q 426 -1 449 13 q 376 -14 404 -14 q 326 1 346 -14 q 290 46 306 15 l 286 46 q 290 0 289 26 q 292 -55 292 -26 q 293 -111 293 -83 l 293 -333 l 82 -333 z "},"ν":{"ha":703,"x_min":3,"x_max":658,"o":"m 215 0 l 3 764 l 221 764 l 322 315 q 331 276 326 296 q 339 236 335 256 q 344 199 343 217 l 350 199 q 405 370 383 283 q 436 553 426 457 q 446 764 446 650 l 658 764 q 633 487 658 615 q 556 240 608 358 q 417 0 503 121 l 215 0 z "},"ξ":{"ha":632,"x_min":51,"x_max":599,"o":"m 324 -281 q 373 -187 356 -231 q 390 -111 390 -143 q 382 -67 390 -83 q 350 -37 374 -50 q 281 -11 326 -25 q 165 42 217 7 q 82 134 113 76 q 51 282 51 192 q 71 401 51 347 q 131 492 90 454 q 233 549 171 531 l 233 556 q 153 593 186 569 q 103 651 119 617 q 88 728 88 685 q 105 804 88 771 q 153 861 122 838 q 228 894 185 885 q 186 890 206 892 q 149 888 167 889 q 114 888 131 888 l 81 888 l 81 1056 l 599 1056 l 599 889 l 508 889 q 421 882 460 889 q 353 860 382 875 q 310 818 325 844 q 296 754 296 792 q 313 689 296 717 q 365 646 329 661 q 458 631 401 631 l 561 631 l 561 463 l 454 463 q 347 447 389 463 q 285 398 306 431 q 264 317 264 365 q 278 242 264 272 q 326 193 292 213 q 418 157 360 174 q 524 110 485 139 q 578 44 563 82 q 594 -44 594 7 q 585 -126 594 -85 q 558 -207 575 -168 q 521 -281 542 -246 l 324 -281 z "},"ο":{"ha":749,"x_min":51,"x_max":696,"o":"m 696 383 q 677 229 696 301 q 619 102 658 157 q 519 17 581 47 q 374 -14 457 -14 q 234 17 294 -14 q 133 101 174 47 q 72 228 93 156 q 51 383 51 300 q 87 590 51 501 q 194 728 122 678 q 376 778 265 778 q 544 732 472 778 q 656 598 615 686 q 696 383 696 510 m 265 382 q 276 258 265 308 q 312 183 288 208 q 375 158 336 158 q 437 183 414 158 q 471 259 460 208 q 482 383 482 310 q 471 507 482 458 q 437 580 460 556 q 374 604 414 604 q 291 549 317 604 q 265 382 265 494 z "},"π":{"ha":892,"x_min":19,"x_max":863,"o":"m 708 -14 q 566 46 613 -14 q 519 225 519 106 l 519 594 l 360 594 l 360 0 l 149 0 l 149 594 l 19 594 l 19 764 l 863 764 l 863 594 l 731 594 l 731 235 q 744 182 731 199 q 779 165 757 165 q 819 171 797 165 q 860 186 842 176 l 860 29 q 791 -2 832 10 q 708 -14 750 -14 z "},"ρ":{"ha":742,"x_min":61,"x_max":690,"o":"m 61 -333 l 61 381 q 94 589 61 500 q 196 728 126 678 q 376 778 265 778 q 540 736 469 778 q 650 606 610 694 q 690 375 690 517 q 658 175 690 263 q 565 37 626 88 q 413 -14 503 -14 q 335 1 368 -14 q 274 38 301 15 l 263 38 q 270 -58 268 -8 q 272 -146 272 -107 l 272 -333 l 61 -333 m 368 158 q 428 179 404 158 q 464 247 451 200 q 476 374 476 294 q 449 554 476 504 q 369 604 421 604 q 296 563 319 604 q 272 422 272 521 l 272 203 q 316 170 292 182 q 368 158 340 158 z "},"σ":{"ha":792,"x_min":51,"x_max":747,"o":"m 371 -14 q 198 35 269 -14 q 89 172 126 83 q 51 376 51 260 q 94 594 51 508 q 215 722 136 681 q 404 764 293 764 l 747 764 l 747 594 l 610 594 q 658 527 640 564 q 685 447 676 490 q 693 354 693 404 q 672 209 693 276 q 610 92 651 142 q 508 14 568 42 q 371 -14 447 -14 m 371 158 q 432 182 408 158 q 467 253 456 206 q 479 369 479 300 q 474 462 479 419 q 456 538 468 504 q 425 594 444 572 l 403 594 q 326 572 357 594 q 281 500 296 550 q 265 368 265 450 q 276 251 265 297 q 311 181 288 204 q 371 158 335 158 z "},"τ":{"ha":622,"x_min":19,"x_max":579,"o":"m 385 -14 q 267 11 315 -14 q 195 92 219 36 q 171 240 171 149 l 171 594 l 19 594 l 19 764 l 579 764 l 579 594 l 383 594 l 383 249 q 390 201 383 221 q 413 173 397 182 q 449 164 428 164 q 499 169 474 164 q 550 186 524 175 l 550 24 q 476 -4 518 6 q 385 -14 435 -14 z "},"υ":{"ha":758,"x_min":81,"x_max":686,"o":"m 364 -12 q 228 10 283 -12 q 141 72 174 32 q 94 171 108 113 q 81 301 81 229 l 81 764 l 292 764 l 292 307 q 297 230 292 261 q 320 183 303 199 q 371 168 338 168 q 432 192 408 168 q 465 268 456 215 q 475 408 475 321 q 464 580 475 493 q 432 764 453 667 l 643 764 q 669 637 660 694 q 682 525 678 579 q 686 408 686 471 q 605 92 686 196 q 364 -12 524 -12 z "},"φ":{"ha":999,"x_min":51,"x_max":947,"o":"m 406 -333 l 406 -3 q 214 58 293 8 q 93 192 135 108 q 51 381 51 275 q 90 576 51 493 q 207 708 129 658 q 404 765 285 757 l 404 1056 l 596 1056 l 596 765 q 789 705 711 756 q 907 571 867 654 q 947 381 947 488 q 908 190 947 272 q 790 58 868 107 q 596 -3 711 8 l 596 -333 l 406 -333 m 404 157 l 404 607 q 331 574 363 604 q 282 494 299 544 q 265 381 265 444 q 281 268 265 318 q 327 189 296 218 q 404 157 358 160 m 596 157 q 673 190 642 160 q 719 269 704 219 q 735 381 735 319 q 699 539 735 476 q 596 607 663 601 l 596 157 z "},"χ":{"ha":806,"x_min":17,"x_max":811,"o":"m 675 -333 q 576 -315 614 -333 q 513 -256 539 -296 q 458 -156 488 -217 l 165 507 q 124 581 142 561 q 78 601 107 601 q 49 598 64 601 q 18 590 33 594 l 18 760 q 66 771 39 767 q 125 775 93 775 q 222 758 183 775 q 289 701 260 740 q 346 600 318 663 l 644 -76 q 669 -125 658 -107 q 695 -151 681 -143 q 732 -158 710 -158 q 760 -156 746 -158 q 790 -150 774 -154 l 790 -319 q 758 -327 775 -324 q 721 -332 740 -331 q 675 -333 701 -333 m 17 -333 l 339 272 l 425 67 l 226 -333 l 17 -333 m 499 133 l 414 356 l 601 764 l 811 764 l 499 133 z "},"ψ":{"ha":1025,"x_min":81,"x_max":951,"o":"m 410 -333 l 410 -12 q 227 26 300 -8 q 117 135 154 61 q 81 333 81 210 l 81 764 l 282 764 l 282 339 q 293 242 282 278 q 332 188 304 206 q 410 167 360 171 l 410 1056 l 611 1056 l 611 167 q 692 197 664 174 q 733 267 721 219 q 744 394 744 315 q 731 574 744 482 q 694 764 718 667 l 897 764 q 940 567 928 654 q 951 390 951 479 q 913 174 951 261 q 798 40 874 86 q 611 -12 722 -6 l 611 -333 l 410 -333 z "},"ω":{"ha":1068,"x_min":65,"x_max":1001,"o":"m 326 -14 q 181 33 239 -14 q 94 166 122 79 q 65 371 65 253 q 97 606 65 508 q 172 764 128 704 l 375 764 q 316 653 339 714 q 283 524 293 593 q 272 381 272 454 q 290 221 272 272 q 353 169 308 169 q 398 186 381 169 q 424 240 415 203 q 432 339 432 276 l 432 529 l 635 529 l 635 339 q 642 238 635 275 q 667 186 650 201 q 713 169 683 171 q 760 194 742 169 q 786 264 778 218 q 794 376 794 310 q 784 519 794 449 q 751 651 774 589 q 692 764 729 714 l 893 764 q 953 654 929 714 q 990 525 978 594 q 1001 371 1001 456 q 973 165 1001 251 q 886 32 944 78 q 739 -14 828 -14 q 610 25 663 -14 q 536 154 558 64 l 531 154 q 488 57 517 94 q 419 3 460 19 q 326 -14 379 -14 z "},"ϊ":{"ha":461,"x_min":-40,"x_max":432,"o":"m 315 -14 q 185 17 238 -12 q 108 105 133 47 q 82 246 82 163 l 82 764 l 293 764 l 293 268 q 312 190 293 214 q 363 165 331 165 q 397 169 381 165 q 432 178 414 172 l 432 3 q 376 -10 407 -6 q 315 -14 344 -14 m -40 953 q -14 1027 -40 1003 q 54 1051 13 1051 q 124 1026 97 1051 q 150 953 150 1001 q 124 881 150 907 q 54 856 97 856 q -14 881 13 856 q -40 953 -40 906 m 231 953 q 257 1027 231 1003 q 326 1051 283 1051 q 396 1026 369 1051 q 422 953 422 1001 q 396 881 422 907 q 326 856 369 856 q 257 881 283 856 q 231 953 231 907 z "},"ϋ":{"ha":758,"x_min":81,"x_max":686,"o":"m 364 -12 q 228 10 283 -12 q 141 72 174 32 q 94 171 108 113 q 81 301 81 229 l 81 764 l 292 764 l 292 307 q 297 230 292 261 q 320 183 303 199 q 371 168 338 168 q 432 192 408 168 q 465 268 456 215 q 475 408 475 321 q 464 580 475 493 q 432 764 453 667 l 643 764 q 669 637 660 694 q 682 525 678 579 q 686 408 686 471 q 605 92 686 196 q 364 -12 524 -12 m 135 953 q 161 1027 135 1003 q 229 1051 188 1051 q 299 1026 272 1051 q 325 953 325 1001 q 299 881 325 907 q 229 856 272 856 q 161 881 188 856 q 135 953 135 906 m 406 953 q 432 1027 406 1003 q 501 1051 458 1051 q 571 1026 544 1051 q 597 953 597 1001 q 571 881 597 907 q 501 856 544 856 q 432 881 458 856 q 406 953 406 907 z "},"ό":{"ha":749,"x_min":51,"x_max":696,"o":"m 696 383 q 677 229 696 301 q 619 102 658 157 q 519 17 581 47 q 374 -14 457 -14 q 234 17 294 -14 q 133 101 174 47 q 72 228 93 156 q 51 383 51 300 q 87 590 51 501 q 194 728 122 678 q 376 778 265 778 q 544 732 472 778 q 656 598 615 686 q 696 383 696 510 m 265 382 q 276 258 265 308 q 312 183 288 208 q 375 158 336 158 q 437 183 414 158 q 471 259 460 208 q 482 383 482 310 q 471 507 482 458 q 437 580 460 556 q 374 604 414 604 q 291 549 317 604 q 265 382 265 494 m 308 842 l 308 860 l 374 1078 l 604 1078 l 604 1064 l 451 842 l 308 842 z "},"ύ":{"ha":758,"x_min":81,"x_max":686,"o":"m 364 -12 q 228 10 283 -12 q 141 72 174 32 q 94 171 108 113 q 81 301 81 229 l 81 764 l 292 764 l 292 307 q 297 230 292 261 q 320 183 303 199 q 371 168 338 168 q 432 192 408 168 q 465 268 456 215 q 475 408 475 321 q 464 580 475 493 q 432 764 453 667 l 643 764 q 669 637 660 694 q 682 525 678 579 q 686 408 686 471 q 605 92 686 196 q 364 -12 524 -12 m 300 842 l 300 860 l 365 1078 l 596 1078 l 596 1064 l 443 842 l 300 842 z "},"ώ":{"ha":1068,"x_min":65,"x_max":1001,"o":"m 326 -14 q 181 33 239 -14 q 94 166 122 79 q 65 371 65 253 q 97 606 65 508 q 172 764 128 704 l 375 764 q 316 653 339 714 q 283 524 293 593 q 272 381 272 454 q 290 221 272 272 q 353 169 308 169 q 398 186 381 169 q 424 240 415 203 q 432 339 432 276 l 432 529 l 635 529 l 635 339 q 642 238 635 275 q 667 186 650 201 q 713 169 683 171 q 760 194 742 169 q 786 264 778 218 q 794 376 794 310 q 784 519 794 449 q 751 651 774 589 q 692 764 729 714 l 893 764 q 953 654 929 714 q 990 525 978 594 q 1001 371 1001 456 q 973 165 1001 251 q 886 32 944 78 q 739 -14 828 -14 q 610 25 663 -14 q 536 154 558 64 l 531 154 q 488 57 517 94 q 419 3 460 19 q 326 -14 379 -14 m 467 842 l 467 860 l 532 1078 l 763 1078 l 763 1064 l 610 842 l 467 842 z "},"Ё":{"ha":657,"x_min":94,"x_max":593,"o":"m 94 0 l 94 992 l 593 992 l 593 808 l 314 808 l 314 606 l 574 606 l 574 422 l 314 422 l 314 186 l 593 186 l 593 0 l 94 0 m 215 1081 q 149 1107 174 1081 q 125 1182 125 1133 q 149 1260 125 1233 q 217 1286 174 1286 q 283 1260 258 1286 q 308 1182 308 1233 q 283 1107 308 1133 q 215 1081 258 1081 m 471 1081 q 403 1107 428 1081 q 379 1182 379 1133 q 403 1260 379 1233 q 472 1286 428 1286 q 539 1260 514 1286 q 564 1182 564 1233 q 539 1107 564 1133 q 471 1081 514 1081 z "},"Ђ":{"ha":917,"x_min":24,"x_max":871,"o":"m 607 -17 q 549 -12 576 -17 q 501 -1 522 -8 l 501 174 q 529 167 517 169 q 554 165 542 165 q 627 197 603 165 q 651 293 651 229 l 651 293 q 622 389 651 357 q 535 421 593 421 q 462 410 499 421 q 390 378 425 399 l 438 458 l 436 0 l 218 0 l 218 804 l 24 804 l 24 992 l 681 992 l 681 804 l 436 804 l 436 503 l 374 560 q 473 594 422 583 q 576 606 524 606 q 794 524 718 606 q 871 293 871 443 l 871 293 q 840 126 871 196 q 749 20 808 57 q 607 -17 690 -17 z "},"Ѓ":{"ha":643,"x_min":94,"x_max":617,"o":"m 94 0 l 94 992 l 593 992 l 593 806 l 314 806 l 314 0 l 94 0 m 256 1068 l 256 1086 l 379 1290 l 617 1290 l 617 1276 l 404 1068 l 256 1068 z "},"Є":{"ha":758,"x_min":58,"x_max":717,"o":"m 457 -14 q 240 44 329 -14 q 105 216 151 103 q 58 492 58 329 q 108 763 58 647 q 252 942 158 878 q 475 1006 346 1006 q 601 990 540 1006 q 717 946 661 975 l 650 774 q 565 809 604 799 q 489 819 526 819 q 375 783 421 819 q 306 678 329 747 q 282 506 283 608 l 190 599 l 601 599 l 601 415 l 186 415 l 282 511 q 301 324 279 399 q 371 210 322 249 q 496 172 419 172 q 591 184 544 172 q 683 218 638 196 l 683 36 q 580 -1 640 13 q 457 -14 519 -14 z "},"Ѕ":{"ha":667,"x_min":47,"x_max":625,"o":"m 297 -14 q 210 -8 253 -14 q 128 9 168 -3 q 47 42 89 21 l 47 253 q 169 197 107 217 q 285 178 232 178 q 353 190 326 178 q 392 224 379 203 q 404 274 404 246 q 391 324 404 303 q 347 369 378 346 q 258 424 315 393 q 178 476 215 449 q 113 536 140 503 q 69 615 85 569 q 54 721 54 660 q 91 872 54 808 q 197 971 128 936 q 364 1006 267 1006 q 498 988 433 1006 q 624 938 563 971 l 560 757 q 459 801 506 786 q 372 815 413 815 q 319 805 342 815 q 285 776 296 794 q 274 729 274 757 q 287 679 274 701 q 333 634 300 657 q 425 579 365 611 q 534 504 490 544 q 601 413 578 464 q 625 293 625 363 q 586 135 625 204 q 474 26 547 65 q 297 -14 401 -14 z "},"І":{"ha":414,"x_min":97,"x_max":317,"o":"m 97 0 l 97 992 l 317 992 l 317 0 l 97 0 z "},"Ї":{"ha":431,"x_min":15,"x_max":415,"o":"m 106 0 l 106 992 l 325 992 l 325 0 l 106 0 m 104 1081 q 39 1108 63 1081 q 15 1182 15 1135 q 40 1260 15 1233 q 106 1288 64 1288 q 172 1260 149 1288 q 196 1183 196 1233 q 172 1108 196 1135 q 104 1081 147 1081 m 325 1081 q 259 1108 283 1081 q 235 1183 235 1135 q 259 1260 235 1233 q 325 1288 283 1288 q 392 1260 368 1288 q 415 1183 415 1233 q 392 1108 415 1135 q 325 1081 368 1081 z "},"Ј":{"ha":410,"x_min":-89,"x_max":315,"o":"m 28 -301 q -35 -298 -6 -301 q -89 -287 -64 -294 l -89 -104 q -50 -114 -71 -110 q -6 -118 -29 -118 q 54 -102 32 -118 q 87 -47 76 -86 q 97 57 97 -8 l 97 992 l 315 992 l 315 65 q 281 -153 315 -72 q 183 -267 247 -233 q 28 -301 118 -301 z "},"Љ":{"ha":1217,"x_min":0,"x_max":1172,"o":"m 110 -14 q 48 -10 75 -14 q 0 0 21 -6 l 0 183 q 26 177 14 179 q 54 175 39 175 q 102 187 82 175 q 134 227 122 199 q 149 304 146 256 q 158 444 154 371 q 168 599 163 517 q 178 778 174 682 q 188 992 183 875 l 774 992 l 774 653 l 833 653 q 1087 572 1001 653 q 1172 333 1172 492 q 1085 86 1172 172 q 831 0 997 0 l 557 0 l 557 804 l 383 804 q 374 652 378 722 q 367 519 371 582 q 358 395 363 456 q 350 274 354 335 q 313 113 340 178 q 236 17 286 49 q 110 -14 186 -14 m 774 185 l 822 185 q 920 222 888 185 q 953 331 953 260 q 921 435 953 401 q 824 469 889 469 l 774 469 l 774 185 z "},"Њ":{"ha":1210,"x_min":93,"x_max":1167,"o":"m 93 0 l 93 992 l 313 992 l 313 621 l 551 621 l 551 992 l 767 992 l 767 622 l 826 622 q 1081 544 994 622 q 1167 315 1167 465 q 1078 83 1167 165 q 824 0 989 0 l 551 0 l 551 438 l 313 438 l 313 0 l 93 0 m 767 185 l 817 185 q 913 219 881 185 q 946 314 946 253 q 914 407 946 375 q 818 439 882 439 l 767 439 l 767 185 z "},"Ћ":{"ha":928,"x_min":24,"x_max":864,"o":"m 218 0 l 218 804 l 24 804 l 24 992 l 679 992 l 679 804 l 436 804 l 436 500 l 374 556 q 476 590 424 579 q 582 601 528 601 q 792 531 719 601 q 863 318 864 460 l 863 0 l 644 0 l 644 294 q 618 385 644 357 q 533 414 592 414 q 463 403 497 414 q 390 374 428 393 l 438 451 l 438 0 l 218 0 z "},"Ќ":{"ha":824,"x_min":94,"x_max":831,"o":"m 585 0 l 332 500 l 331 526 l 578 992 l 811 992 l 538 501 l 543 543 l 831 0 l 585 0 m 94 0 l 94 992 l 314 992 l 314 0 l 94 0 m 240 422 l 240 607 l 429 607 l 429 422 l 240 422 m 324 1067 l 324 1085 l 447 1289 l 685 1289 l 685 1275 l 472 1067 l 324 1067 z "},"Ў":{"ha":774,"x_min":8,"x_max":774,"o":"m 179 -14 q 118 -10 149 -14 q 60 4 88 -6 l 60 190 q 101 180 81 183 q 144 176 122 176 q 220 194 190 176 q 273 256 250 213 q 314 375 296 300 l 314 186 l 8 992 l 243 992 l 349 675 q 366 617 357 647 q 383 557 375 588 q 397 496 392 526 l 406 496 q 419 556 411 526 q 435 613 426 585 q 450 669 443 642 l 547 992 l 774 992 l 532 307 q 444 120 492 190 q 333 18 396 50 q 179 -14 269 -14 m 399 1061 q 223 1118 285 1061 q 153 1285 161 1175 l 318 1285 q 340 1208 321 1235 q 399 1181 360 1181 q 460 1208 439 1181 q 485 1285 482 1235 l 649 1285 q 577 1119 640 1176 q 399 1061 514 1061 z "},"Џ":{"ha":885,"x_min":94,"x_max":789,"o":"m 335 -206 l 335 0 l 94 0 l 94 992 l 314 992 l 314 186 l 571 186 l 571 992 l 789 992 l 789 0 l 549 0 l 549 -206 l 335 -206 z "},"А":{"ha":828,"x_min":0,"x_max":828,"o":"m 592 0 l 542 217 l 288 217 l 238 0 l 0 0 l 269 993 l 554 993 l 828 0 l 592 0 m 453 633 q 439 701 446 665 q 426 772 432 738 q 414 833 419 806 q 404 772 411 807 q 390 702 397 738 q 376 636 383 667 l 325 403 l 504 403 l 453 633 z "},"Б":{"ha":768,"x_min":94,"x_max":721,"o":"m 94 0 l 94 992 l 654 992 l 654 806 l 313 806 l 313 622 l 382 622 q 635 545 550 622 q 721 319 721 468 q 633 84 721 168 q 379 0 544 0 l 94 0 m 313 185 l 374 185 q 468 219 436 185 q 500 315 500 253 q 468 408 500 376 q 372 440 436 440 l 313 440 l 313 185 z "}}}
